G04 DipTrace 2.3.1.0*
%INLOGICCOMP.GTO*%
%MOMM*%
%ADD10C,0.25*%
%ADD60C,0.196*%
%ADD61C,0.314*%
%FSLAX53Y53*%
G04*
G71*
G90*
G75*
G01*
%LNTopSilk*%
%LPD*%
X67207Y108123D2*
D10*
Y75723D1*
X54408Y108123D2*
Y75723D1*
X67207D2*
X54408D1*
Y108123D2*
X60007D1*
X67207D2*
X61608D1*
X60007D2*
G03X61608Y108123I800J0D01*
G01*
X16992Y16991D2*
Y13184D1*
X16987Y16999D2*
G03X16987Y13177I-2535J-1911D01*
G01*
X16992Y24611D2*
Y20804D1*
X16987Y24619D2*
G03X16987Y20797I-2535J-1911D01*
G01*
X16992Y32231D2*
Y28424D1*
X16987Y32239D2*
G03X16987Y28417I-2535J-1911D01*
G01*
X16992Y39851D2*
Y36044D1*
X16987Y39859D2*
G03X16987Y36037I-2535J-1911D01*
G01*
X16992Y47471D2*
Y43664D1*
X16987Y47479D2*
G03X16987Y43657I-2535J-1911D01*
G01*
X16992Y55091D2*
Y51284D1*
X16987Y55099D2*
G03X16987Y51277I-2535J-1911D01*
G01*
X16992Y62711D2*
Y58904D1*
X16987Y62719D2*
G03X16987Y58897I-2535J-1911D01*
G01*
X16992Y70331D2*
Y66524D1*
X16987Y70339D2*
G03X16987Y66517I-2535J-1911D01*
G01*
X16992Y77951D2*
Y74144D1*
X16987Y77959D2*
G03X16987Y74137I-2535J-1911D01*
G01*
X16992Y85571D2*
Y81764D1*
X16987Y85579D2*
G03X16987Y81757I-2535J-1911D01*
G01*
X16992Y93191D2*
Y89384D1*
X16987Y93199D2*
G03X16987Y89377I-2535J-1911D01*
G01*
X16992Y100811D2*
Y97004D1*
X16987Y100819D2*
G03X16987Y96997I-2535J-1911D01*
G01*
X102083Y13184D2*
Y16991D1*
X102088Y13177D2*
G03X102088Y16999I2535J1911D01*
G01*
X102083Y20804D2*
Y24611D1*
X102088Y20797D2*
G03X102088Y24619I2535J1911D01*
G01*
X102083Y28424D2*
Y32231D1*
X102088Y28417D2*
G03X102088Y32239I2535J1911D01*
G01*
X102083Y36044D2*
Y39851D1*
X102088Y36037D2*
G03X102088Y39859I2535J1911D01*
G01*
X102083Y43664D2*
Y47471D1*
X102088Y43657D2*
G03X102088Y47479I2535J1911D01*
G01*
X102083Y51284D2*
Y55091D1*
X102088Y51277D2*
G03X102088Y55099I2535J1911D01*
G01*
X102083Y58904D2*
Y62711D1*
X102088Y58897D2*
G03X102088Y62719I2535J1911D01*
G01*
X102083Y66524D2*
Y70331D1*
X102088Y66517D2*
G03X102088Y70339I2535J1911D01*
G01*
X102083Y74144D2*
Y77951D1*
X102088Y74137D2*
G03X102088Y77959I2535J1911D01*
G01*
X102083Y81764D2*
Y85571D1*
X102088Y81757D2*
G03X102088Y85579I2535J1911D01*
G01*
X102083Y89384D2*
Y93191D1*
X102088Y89377D2*
G03X102088Y93199I2535J1911D01*
G01*
X102083Y97004D2*
Y100811D1*
X102088Y96997D2*
G03X102088Y100819I2535J1911D01*
G01*
X32103Y32377D2*
Y40978D1*
X29502Y32377D2*
Y40978D1*
X32103D2*
X29502D1*
X32103Y32377D2*
X31303D1*
X30302D2*
X29502D1*
X31303D2*
G03X30302Y32377I-500J0D01*
G01*
X32103Y61587D2*
Y70188D1*
X29502Y61587D2*
Y70188D1*
X32103D2*
X29502D1*
X32103Y61587D2*
X31303D1*
X30302D2*
X29502D1*
X31303D2*
G03X30302Y61587I-500J0D01*
G01*
X88618Y60952D2*
Y69553D1*
X86017Y60952D2*
Y69553D1*
X88618D2*
X86017D1*
X88618Y60952D2*
X87818D1*
X86817D2*
X86017D1*
X87818D2*
G03X86817Y60952I-500J0D01*
G01*
X89253Y33012D2*
Y41613D1*
X86652Y33012D2*
Y41613D1*
X89253D2*
X86652D1*
X89253Y33012D2*
X88453D1*
X87452D2*
X86652D1*
X88453D2*
G03X87452Y33012I-500J0D01*
G01*
X18139Y14787D2*
Y15388D1*
X17838Y15088D2*
X18438D1*
X18899D2*
X18905Y15265D1*
X18924Y15441D1*
X18955Y15616D1*
X18998Y15788D1*
X19052Y15956D1*
X19119Y16121D1*
X19196Y16280D1*
X19285Y16434D1*
X19384Y16581D1*
X19493Y16720D1*
X19612Y16852D1*
X19739Y16975D1*
X19875Y17089D1*
X20018Y17193D1*
X20169Y17287D1*
X20325Y17371D1*
X20487Y17443D1*
X20654Y17503D1*
X20824Y17552D1*
X20997Y17589D1*
X21173Y17614D1*
X21350Y17626D1*
X21527D1*
X21704Y17614D1*
X21879Y17589D1*
X22053Y17552D1*
X22223Y17503D1*
X22390Y17443D1*
X22551Y17371D1*
X22708Y17287D1*
X22858Y17193D1*
X23002Y17089D1*
X23137Y16975D1*
X23265Y16852D1*
X23383Y16720D1*
X23493Y16581D1*
X23592Y16434D1*
X23680Y16280D1*
X23758Y16121D1*
X23824Y15956D1*
X23879Y15788D1*
X23922Y15616D1*
X23953Y15441D1*
X23971Y15265D1*
X23977Y15088D1*
X23971Y14910D1*
X23953Y14734D1*
X23922Y14560D1*
X23879Y14387D1*
X23824Y14219D1*
X23758Y14054D1*
X23680Y13895D1*
X23592Y13742D1*
X23493Y13595D1*
X23383Y13455D1*
X23265Y13323D1*
X23137Y13200D1*
X23002Y13086D1*
X22858Y12982D1*
X22708Y12888D1*
X22551Y12805D1*
X22390Y12733D1*
X22223Y12672D1*
X22053Y12623D1*
X21879Y12586D1*
X21704Y12562D1*
X21527Y12549D1*
X21350D1*
X21173Y12562D1*
X20997Y12586D1*
X20824Y12623D1*
X20654Y12672D1*
X20487Y12733D1*
X20325Y12805D1*
X20169Y12888D1*
X20018Y12982D1*
X19875Y13086D1*
X19739Y13200D1*
X19612Y13323D1*
X19493Y13455D1*
X19384Y13595D1*
X19285Y13742D1*
X19196Y13895D1*
X19119Y14054D1*
X19052Y14219D1*
X18998Y14387D1*
X18955Y14560D1*
X18924Y14734D1*
X18905Y14910D1*
X18899Y15088D1*
X18139Y22407D2*
Y23008D1*
X17838Y22708D2*
X18438D1*
X18899D2*
X18905Y22885D1*
X18924Y23061D1*
X18955Y23236D1*
X18998Y23408D1*
X19052Y23576D1*
X19119Y23741D1*
X19196Y23900D1*
X19285Y24054D1*
X19384Y24201D1*
X19493Y24340D1*
X19612Y24472D1*
X19739Y24595D1*
X19875Y24709D1*
X20018Y24813D1*
X20169Y24907D1*
X20325Y24991D1*
X20487Y25063D1*
X20654Y25123D1*
X20824Y25172D1*
X20997Y25209D1*
X21173Y25234D1*
X21350Y25246D1*
X21527D1*
X21704Y25234D1*
X21879Y25209D1*
X22053Y25172D1*
X22223Y25123D1*
X22390Y25063D1*
X22551Y24991D1*
X22708Y24907D1*
X22858Y24813D1*
X23002Y24709D1*
X23137Y24595D1*
X23265Y24472D1*
X23383Y24340D1*
X23493Y24201D1*
X23592Y24054D1*
X23680Y23900D1*
X23758Y23741D1*
X23824Y23576D1*
X23879Y23408D1*
X23922Y23236D1*
X23953Y23061D1*
X23971Y22885D1*
X23977Y22708D1*
X23971Y22530D1*
X23953Y22354D1*
X23922Y22180D1*
X23879Y22007D1*
X23824Y21839D1*
X23758Y21674D1*
X23680Y21515D1*
X23592Y21362D1*
X23493Y21215D1*
X23383Y21075D1*
X23265Y20943D1*
X23137Y20820D1*
X23002Y20706D1*
X22858Y20602D1*
X22708Y20508D1*
X22551Y20425D1*
X22390Y20353D1*
X22223Y20292D1*
X22053Y20243D1*
X21879Y20206D1*
X21704Y20182D1*
X21527Y20169D1*
X21350D1*
X21173Y20182D1*
X20997Y20206D1*
X20824Y20243D1*
X20654Y20292D1*
X20487Y20353D1*
X20325Y20425D1*
X20169Y20508D1*
X20018Y20602D1*
X19875Y20706D1*
X19739Y20820D1*
X19612Y20943D1*
X19493Y21075D1*
X19384Y21215D1*
X19285Y21362D1*
X19196Y21515D1*
X19119Y21674D1*
X19052Y21839D1*
X18998Y22007D1*
X18955Y22180D1*
X18924Y22354D1*
X18905Y22530D1*
X18899Y22708D1*
X18139Y30027D2*
Y30628D1*
X17838Y30328D2*
X18438D1*
X18899D2*
X18905Y30505D1*
X18924Y30681D1*
X18955Y30856D1*
X18998Y31028D1*
X19052Y31196D1*
X19119Y31361D1*
X19196Y31520D1*
X19285Y31674D1*
X19384Y31821D1*
X19493Y31960D1*
X19612Y32092D1*
X19739Y32215D1*
X19875Y32329D1*
X20018Y32433D1*
X20169Y32527D1*
X20325Y32611D1*
X20487Y32683D1*
X20654Y32743D1*
X20824Y32792D1*
X20997Y32829D1*
X21173Y32854D1*
X21350Y32866D1*
X21527D1*
X21704Y32854D1*
X21879Y32829D1*
X22053Y32792D1*
X22223Y32743D1*
X22390Y32683D1*
X22551Y32611D1*
X22708Y32527D1*
X22858Y32433D1*
X23002Y32329D1*
X23137Y32215D1*
X23265Y32092D1*
X23383Y31960D1*
X23493Y31821D1*
X23592Y31674D1*
X23680Y31520D1*
X23758Y31361D1*
X23824Y31196D1*
X23879Y31028D1*
X23922Y30856D1*
X23953Y30681D1*
X23971Y30505D1*
X23977Y30328D1*
X23971Y30150D1*
X23953Y29974D1*
X23922Y29800D1*
X23879Y29627D1*
X23824Y29459D1*
X23758Y29294D1*
X23680Y29135D1*
X23592Y28982D1*
X23493Y28835D1*
X23383Y28695D1*
X23265Y28563D1*
X23137Y28440D1*
X23002Y28326D1*
X22858Y28222D1*
X22708Y28128D1*
X22551Y28045D1*
X22390Y27973D1*
X22223Y27912D1*
X22053Y27863D1*
X21879Y27826D1*
X21704Y27802D1*
X21527Y27789D1*
X21350D1*
X21173Y27802D1*
X20997Y27826D1*
X20824Y27863D1*
X20654Y27912D1*
X20487Y27973D1*
X20325Y28045D1*
X20169Y28128D1*
X20018Y28222D1*
X19875Y28326D1*
X19739Y28440D1*
X19612Y28563D1*
X19493Y28695D1*
X19384Y28835D1*
X19285Y28982D1*
X19196Y29135D1*
X19119Y29294D1*
X19052Y29459D1*
X18998Y29627D1*
X18955Y29800D1*
X18924Y29974D1*
X18905Y30150D1*
X18899Y30328D1*
X18139Y37647D2*
Y38248D1*
X17838Y37948D2*
X18438D1*
X18899D2*
X18905Y38125D1*
X18924Y38301D1*
X18955Y38476D1*
X18998Y38648D1*
X19052Y38816D1*
X19119Y38981D1*
X19196Y39140D1*
X19285Y39294D1*
X19384Y39441D1*
X19493Y39580D1*
X19612Y39712D1*
X19739Y39835D1*
X19875Y39949D1*
X20018Y40053D1*
X20169Y40147D1*
X20325Y40231D1*
X20487Y40303D1*
X20654Y40363D1*
X20824Y40412D1*
X20997Y40449D1*
X21173Y40474D1*
X21350Y40486D1*
X21527D1*
X21704Y40474D1*
X21879Y40449D1*
X22053Y40412D1*
X22223Y40363D1*
X22390Y40303D1*
X22551Y40231D1*
X22708Y40147D1*
X22858Y40053D1*
X23002Y39949D1*
X23137Y39835D1*
X23265Y39712D1*
X23383Y39580D1*
X23493Y39441D1*
X23592Y39294D1*
X23680Y39140D1*
X23758Y38981D1*
X23824Y38816D1*
X23879Y38648D1*
X23922Y38476D1*
X23953Y38301D1*
X23971Y38125D1*
X23977Y37948D1*
X23971Y37770D1*
X23953Y37594D1*
X23922Y37420D1*
X23879Y37247D1*
X23824Y37079D1*
X23758Y36914D1*
X23680Y36755D1*
X23592Y36602D1*
X23493Y36455D1*
X23383Y36315D1*
X23265Y36183D1*
X23137Y36060D1*
X23002Y35946D1*
X22858Y35842D1*
X22708Y35748D1*
X22551Y35665D1*
X22390Y35593D1*
X22223Y35532D1*
X22053Y35483D1*
X21879Y35446D1*
X21704Y35422D1*
X21527Y35409D1*
X21350D1*
X21173Y35422D1*
X20997Y35446D1*
X20824Y35483D1*
X20654Y35532D1*
X20487Y35593D1*
X20325Y35665D1*
X20169Y35748D1*
X20018Y35842D1*
X19875Y35946D1*
X19739Y36060D1*
X19612Y36183D1*
X19493Y36315D1*
X19384Y36455D1*
X19285Y36602D1*
X19196Y36755D1*
X19119Y36914D1*
X19052Y37079D1*
X18998Y37247D1*
X18955Y37420D1*
X18924Y37594D1*
X18905Y37770D1*
X18899Y37948D1*
X18139Y45267D2*
Y45868D1*
X17838Y45568D2*
X18438D1*
X18899D2*
X18905Y45745D1*
X18924Y45921D1*
X18955Y46096D1*
X18998Y46268D1*
X19052Y46436D1*
X19119Y46601D1*
X19196Y46760D1*
X19285Y46914D1*
X19384Y47061D1*
X19493Y47200D1*
X19612Y47332D1*
X19739Y47455D1*
X19875Y47569D1*
X20018Y47673D1*
X20169Y47767D1*
X20325Y47851D1*
X20487Y47923D1*
X20654Y47983D1*
X20824Y48032D1*
X20997Y48069D1*
X21173Y48094D1*
X21350Y48106D1*
X21527D1*
X21704Y48094D1*
X21879Y48069D1*
X22053Y48032D1*
X22223Y47983D1*
X22390Y47923D1*
X22551Y47851D1*
X22708Y47767D1*
X22858Y47673D1*
X23002Y47569D1*
X23137Y47455D1*
X23265Y47332D1*
X23383Y47200D1*
X23493Y47061D1*
X23592Y46914D1*
X23680Y46760D1*
X23758Y46601D1*
X23824Y46436D1*
X23879Y46268D1*
X23922Y46096D1*
X23953Y45921D1*
X23971Y45745D1*
X23977Y45568D1*
X23971Y45390D1*
X23953Y45214D1*
X23922Y45040D1*
X23879Y44867D1*
X23824Y44699D1*
X23758Y44534D1*
X23680Y44375D1*
X23592Y44222D1*
X23493Y44075D1*
X23383Y43935D1*
X23265Y43803D1*
X23137Y43680D1*
X23002Y43566D1*
X22858Y43462D1*
X22708Y43368D1*
X22551Y43285D1*
X22390Y43213D1*
X22223Y43152D1*
X22053Y43103D1*
X21879Y43066D1*
X21704Y43042D1*
X21527Y43029D1*
X21350D1*
X21173Y43042D1*
X20997Y43066D1*
X20824Y43103D1*
X20654Y43152D1*
X20487Y43213D1*
X20325Y43285D1*
X20169Y43368D1*
X20018Y43462D1*
X19875Y43566D1*
X19739Y43680D1*
X19612Y43803D1*
X19493Y43935D1*
X19384Y44075D1*
X19285Y44222D1*
X19196Y44375D1*
X19119Y44534D1*
X19052Y44699D1*
X18998Y44867D1*
X18955Y45040D1*
X18924Y45214D1*
X18905Y45390D1*
X18899Y45568D1*
X18139Y52887D2*
Y53488D1*
X17838Y53188D2*
X18438D1*
X18899D2*
X18905Y53365D1*
X18924Y53541D1*
X18955Y53716D1*
X18998Y53888D1*
X19052Y54056D1*
X19119Y54221D1*
X19196Y54380D1*
X19285Y54534D1*
X19384Y54681D1*
X19493Y54820D1*
X19612Y54952D1*
X19739Y55075D1*
X19875Y55189D1*
X20018Y55293D1*
X20169Y55387D1*
X20325Y55471D1*
X20487Y55543D1*
X20654Y55603D1*
X20824Y55652D1*
X20997Y55689D1*
X21173Y55714D1*
X21350Y55726D1*
X21527D1*
X21704Y55714D1*
X21879Y55689D1*
X22053Y55652D1*
X22223Y55603D1*
X22390Y55543D1*
X22551Y55471D1*
X22708Y55387D1*
X22858Y55293D1*
X23002Y55189D1*
X23137Y55075D1*
X23265Y54952D1*
X23383Y54820D1*
X23493Y54681D1*
X23592Y54534D1*
X23680Y54380D1*
X23758Y54221D1*
X23824Y54056D1*
X23879Y53888D1*
X23922Y53716D1*
X23953Y53541D1*
X23971Y53365D1*
X23977Y53188D1*
X23971Y53010D1*
X23953Y52834D1*
X23922Y52660D1*
X23879Y52487D1*
X23824Y52319D1*
X23758Y52154D1*
X23680Y51995D1*
X23592Y51842D1*
X23493Y51695D1*
X23383Y51555D1*
X23265Y51423D1*
X23137Y51300D1*
X23002Y51186D1*
X22858Y51082D1*
X22708Y50988D1*
X22551Y50905D1*
X22390Y50833D1*
X22223Y50772D1*
X22053Y50723D1*
X21879Y50686D1*
X21704Y50662D1*
X21527Y50649D1*
X21350D1*
X21173Y50662D1*
X20997Y50686D1*
X20824Y50723D1*
X20654Y50772D1*
X20487Y50833D1*
X20325Y50905D1*
X20169Y50988D1*
X20018Y51082D1*
X19875Y51186D1*
X19739Y51300D1*
X19612Y51423D1*
X19493Y51555D1*
X19384Y51695D1*
X19285Y51842D1*
X19196Y51995D1*
X19119Y52154D1*
X19052Y52319D1*
X18998Y52487D1*
X18955Y52660D1*
X18924Y52834D1*
X18905Y53010D1*
X18899Y53188D1*
X18139Y60507D2*
Y61108D1*
X17838Y60808D2*
X18438D1*
X18899D2*
X18905Y60985D1*
X18924Y61161D1*
X18955Y61336D1*
X18998Y61508D1*
X19052Y61676D1*
X19119Y61841D1*
X19196Y62000D1*
X19285Y62154D1*
X19384Y62301D1*
X19493Y62440D1*
X19612Y62572D1*
X19739Y62695D1*
X19875Y62809D1*
X20018Y62913D1*
X20169Y63007D1*
X20325Y63091D1*
X20487Y63163D1*
X20654Y63223D1*
X20824Y63272D1*
X20997Y63309D1*
X21173Y63334D1*
X21350Y63346D1*
X21527D1*
X21704Y63334D1*
X21879Y63309D1*
X22053Y63272D1*
X22223Y63223D1*
X22390Y63163D1*
X22551Y63091D1*
X22708Y63007D1*
X22858Y62913D1*
X23002Y62809D1*
X23137Y62695D1*
X23265Y62572D1*
X23383Y62440D1*
X23493Y62301D1*
X23592Y62154D1*
X23680Y62000D1*
X23758Y61841D1*
X23824Y61676D1*
X23879Y61508D1*
X23922Y61336D1*
X23953Y61161D1*
X23971Y60985D1*
X23977Y60808D1*
X23971Y60630D1*
X23953Y60454D1*
X23922Y60280D1*
X23879Y60107D1*
X23824Y59939D1*
X23758Y59774D1*
X23680Y59615D1*
X23592Y59462D1*
X23493Y59315D1*
X23383Y59175D1*
X23265Y59043D1*
X23137Y58920D1*
X23002Y58806D1*
X22858Y58702D1*
X22708Y58608D1*
X22551Y58525D1*
X22390Y58453D1*
X22223Y58392D1*
X22053Y58343D1*
X21879Y58306D1*
X21704Y58282D1*
X21527Y58269D1*
X21350D1*
X21173Y58282D1*
X20997Y58306D1*
X20824Y58343D1*
X20654Y58392D1*
X20487Y58453D1*
X20325Y58525D1*
X20169Y58608D1*
X20018Y58702D1*
X19875Y58806D1*
X19739Y58920D1*
X19612Y59043D1*
X19493Y59175D1*
X19384Y59315D1*
X19285Y59462D1*
X19196Y59615D1*
X19119Y59774D1*
X19052Y59939D1*
X18998Y60107D1*
X18955Y60280D1*
X18924Y60454D1*
X18905Y60630D1*
X18899Y60808D1*
X18139Y68127D2*
Y68728D1*
X17838Y68428D2*
X18438D1*
X18899D2*
X18905Y68605D1*
X18924Y68781D1*
X18955Y68956D1*
X18998Y69128D1*
X19052Y69296D1*
X19119Y69461D1*
X19196Y69620D1*
X19285Y69774D1*
X19384Y69921D1*
X19493Y70060D1*
X19612Y70192D1*
X19739Y70315D1*
X19875Y70429D1*
X20018Y70533D1*
X20169Y70627D1*
X20325Y70711D1*
X20487Y70783D1*
X20654Y70843D1*
X20824Y70892D1*
X20997Y70929D1*
X21173Y70954D1*
X21350Y70966D1*
X21527D1*
X21704Y70954D1*
X21879Y70929D1*
X22053Y70892D1*
X22223Y70843D1*
X22390Y70783D1*
X22551Y70711D1*
X22708Y70627D1*
X22858Y70533D1*
X23002Y70429D1*
X23137Y70315D1*
X23265Y70192D1*
X23383Y70060D1*
X23493Y69921D1*
X23592Y69774D1*
X23680Y69620D1*
X23758Y69461D1*
X23824Y69296D1*
X23879Y69128D1*
X23922Y68956D1*
X23953Y68781D1*
X23971Y68605D1*
X23977Y68428D1*
X23971Y68250D1*
X23953Y68074D1*
X23922Y67900D1*
X23879Y67727D1*
X23824Y67559D1*
X23758Y67394D1*
X23680Y67235D1*
X23592Y67082D1*
X23493Y66935D1*
X23383Y66795D1*
X23265Y66663D1*
X23137Y66540D1*
X23002Y66426D1*
X22858Y66322D1*
X22708Y66228D1*
X22551Y66145D1*
X22390Y66073D1*
X22223Y66012D1*
X22053Y65963D1*
X21879Y65926D1*
X21704Y65902D1*
X21527Y65889D1*
X21350D1*
X21173Y65902D1*
X20997Y65926D1*
X20824Y65963D1*
X20654Y66012D1*
X20487Y66073D1*
X20325Y66145D1*
X20169Y66228D1*
X20018Y66322D1*
X19875Y66426D1*
X19739Y66540D1*
X19612Y66663D1*
X19493Y66795D1*
X19384Y66935D1*
X19285Y67082D1*
X19196Y67235D1*
X19119Y67394D1*
X19052Y67559D1*
X18998Y67727D1*
X18955Y67900D1*
X18924Y68074D1*
X18905Y68250D1*
X18899Y68428D1*
X18139Y75747D2*
Y76348D1*
X17838Y76048D2*
X18438D1*
X18899D2*
X18905Y76225D1*
X18924Y76401D1*
X18955Y76576D1*
X18998Y76748D1*
X19052Y76916D1*
X19119Y77081D1*
X19196Y77240D1*
X19285Y77394D1*
X19384Y77541D1*
X19493Y77680D1*
X19612Y77812D1*
X19739Y77935D1*
X19875Y78049D1*
X20018Y78153D1*
X20169Y78247D1*
X20325Y78331D1*
X20487Y78403D1*
X20654Y78463D1*
X20824Y78512D1*
X20997Y78549D1*
X21173Y78574D1*
X21350Y78586D1*
X21527D1*
X21704Y78574D1*
X21879Y78549D1*
X22053Y78512D1*
X22223Y78463D1*
X22390Y78403D1*
X22551Y78331D1*
X22708Y78247D1*
X22858Y78153D1*
X23002Y78049D1*
X23137Y77935D1*
X23265Y77812D1*
X23383Y77680D1*
X23493Y77541D1*
X23592Y77394D1*
X23680Y77240D1*
X23758Y77081D1*
X23824Y76916D1*
X23879Y76748D1*
X23922Y76576D1*
X23953Y76401D1*
X23971Y76225D1*
X23977Y76048D1*
X23971Y75870D1*
X23953Y75694D1*
X23922Y75520D1*
X23879Y75347D1*
X23824Y75179D1*
X23758Y75014D1*
X23680Y74855D1*
X23592Y74702D1*
X23493Y74555D1*
X23383Y74415D1*
X23265Y74283D1*
X23137Y74160D1*
X23002Y74046D1*
X22858Y73942D1*
X22708Y73848D1*
X22551Y73765D1*
X22390Y73693D1*
X22223Y73632D1*
X22053Y73583D1*
X21879Y73546D1*
X21704Y73522D1*
X21527Y73509D1*
X21350D1*
X21173Y73522D1*
X20997Y73546D1*
X20824Y73583D1*
X20654Y73632D1*
X20487Y73693D1*
X20325Y73765D1*
X20169Y73848D1*
X20018Y73942D1*
X19875Y74046D1*
X19739Y74160D1*
X19612Y74283D1*
X19493Y74415D1*
X19384Y74555D1*
X19285Y74702D1*
X19196Y74855D1*
X19119Y75014D1*
X19052Y75179D1*
X18998Y75347D1*
X18955Y75520D1*
X18924Y75694D1*
X18905Y75870D1*
X18899Y76048D1*
X18139Y83367D2*
Y83968D1*
X17838Y83668D2*
X18438D1*
X18899D2*
X18905Y83845D1*
X18924Y84021D1*
X18955Y84196D1*
X18998Y84368D1*
X19052Y84536D1*
X19119Y84701D1*
X19196Y84860D1*
X19285Y85014D1*
X19384Y85161D1*
X19493Y85300D1*
X19612Y85432D1*
X19739Y85555D1*
X19875Y85669D1*
X20018Y85773D1*
X20169Y85867D1*
X20325Y85951D1*
X20487Y86023D1*
X20654Y86083D1*
X20824Y86132D1*
X20997Y86169D1*
X21173Y86194D1*
X21350Y86206D1*
X21527D1*
X21704Y86194D1*
X21879Y86169D1*
X22053Y86132D1*
X22223Y86083D1*
X22390Y86023D1*
X22551Y85951D1*
X22708Y85867D1*
X22858Y85773D1*
X23002Y85669D1*
X23137Y85555D1*
X23265Y85432D1*
X23383Y85300D1*
X23493Y85161D1*
X23592Y85014D1*
X23680Y84860D1*
X23758Y84701D1*
X23824Y84536D1*
X23879Y84368D1*
X23922Y84196D1*
X23953Y84021D1*
X23971Y83845D1*
X23977Y83668D1*
X23971Y83490D1*
X23953Y83314D1*
X23922Y83140D1*
X23879Y82967D1*
X23824Y82799D1*
X23758Y82634D1*
X23680Y82475D1*
X23592Y82322D1*
X23493Y82175D1*
X23383Y82035D1*
X23265Y81903D1*
X23137Y81780D1*
X23002Y81666D1*
X22858Y81562D1*
X22708Y81468D1*
X22551Y81385D1*
X22390Y81313D1*
X22223Y81252D1*
X22053Y81203D1*
X21879Y81166D1*
X21704Y81142D1*
X21527Y81129D1*
X21350D1*
X21173Y81142D1*
X20997Y81166D1*
X20824Y81203D1*
X20654Y81252D1*
X20487Y81313D1*
X20325Y81385D1*
X20169Y81468D1*
X20018Y81562D1*
X19875Y81666D1*
X19739Y81780D1*
X19612Y81903D1*
X19493Y82035D1*
X19384Y82175D1*
X19285Y82322D1*
X19196Y82475D1*
X19119Y82634D1*
X19052Y82799D1*
X18998Y82967D1*
X18955Y83140D1*
X18924Y83314D1*
X18905Y83490D1*
X18899Y83668D1*
X18139Y90987D2*
Y91588D1*
X17838Y91288D2*
X18438D1*
X18899D2*
X18905Y91465D1*
X18924Y91641D1*
X18955Y91816D1*
X18998Y91988D1*
X19052Y92156D1*
X19119Y92321D1*
X19196Y92480D1*
X19285Y92634D1*
X19384Y92781D1*
X19493Y92920D1*
X19612Y93052D1*
X19739Y93175D1*
X19875Y93289D1*
X20018Y93393D1*
X20169Y93487D1*
X20325Y93571D1*
X20487Y93643D1*
X20654Y93703D1*
X20824Y93752D1*
X20997Y93789D1*
X21173Y93814D1*
X21350Y93826D1*
X21527D1*
X21704Y93814D1*
X21879Y93789D1*
X22053Y93752D1*
X22223Y93703D1*
X22390Y93643D1*
X22551Y93571D1*
X22708Y93487D1*
X22858Y93393D1*
X23002Y93289D1*
X23137Y93175D1*
X23265Y93052D1*
X23383Y92920D1*
X23493Y92781D1*
X23592Y92634D1*
X23680Y92480D1*
X23758Y92321D1*
X23824Y92156D1*
X23879Y91988D1*
X23922Y91816D1*
X23953Y91641D1*
X23971Y91465D1*
X23977Y91288D1*
X23971Y91110D1*
X23953Y90934D1*
X23922Y90760D1*
X23879Y90587D1*
X23824Y90419D1*
X23758Y90254D1*
X23680Y90095D1*
X23592Y89942D1*
X23493Y89795D1*
X23383Y89655D1*
X23265Y89523D1*
X23137Y89400D1*
X23002Y89286D1*
X22858Y89182D1*
X22708Y89088D1*
X22551Y89005D1*
X22390Y88933D1*
X22223Y88872D1*
X22053Y88823D1*
X21879Y88786D1*
X21704Y88762D1*
X21527Y88749D1*
X21350D1*
X21173Y88762D1*
X20997Y88786D1*
X20824Y88823D1*
X20654Y88872D1*
X20487Y88933D1*
X20325Y89005D1*
X20169Y89088D1*
X20018Y89182D1*
X19875Y89286D1*
X19739Y89400D1*
X19612Y89523D1*
X19493Y89655D1*
X19384Y89795D1*
X19285Y89942D1*
X19196Y90095D1*
X19119Y90254D1*
X19052Y90419D1*
X18998Y90587D1*
X18955Y90760D1*
X18924Y90934D1*
X18905Y91110D1*
X18899Y91288D1*
X18139Y98607D2*
Y99208D1*
X17838Y98908D2*
X18438D1*
X18899D2*
X18905Y99085D1*
X18924Y99261D1*
X18955Y99436D1*
X18998Y99608D1*
X19052Y99776D1*
X19119Y99941D1*
X19196Y100100D1*
X19285Y100254D1*
X19384Y100401D1*
X19493Y100540D1*
X19612Y100672D1*
X19739Y100795D1*
X19875Y100909D1*
X20018Y101013D1*
X20169Y101107D1*
X20325Y101191D1*
X20487Y101263D1*
X20654Y101323D1*
X20824Y101372D1*
X20997Y101409D1*
X21173Y101434D1*
X21350Y101446D1*
X21527D1*
X21704Y101434D1*
X21879Y101409D1*
X22053Y101372D1*
X22223Y101323D1*
X22390Y101263D1*
X22551Y101191D1*
X22708Y101107D1*
X22858Y101013D1*
X23002Y100909D1*
X23137Y100795D1*
X23265Y100672D1*
X23383Y100540D1*
X23493Y100401D1*
X23592Y100254D1*
X23680Y100100D1*
X23758Y99941D1*
X23824Y99776D1*
X23879Y99608D1*
X23922Y99436D1*
X23953Y99261D1*
X23971Y99085D1*
X23977Y98908D1*
X23971Y98730D1*
X23953Y98554D1*
X23922Y98380D1*
X23879Y98207D1*
X23824Y98039D1*
X23758Y97874D1*
X23680Y97715D1*
X23592Y97562D1*
X23493Y97415D1*
X23383Y97275D1*
X23265Y97143D1*
X23137Y97020D1*
X23002Y96906D1*
X22858Y96802D1*
X22708Y96708D1*
X22551Y96625D1*
X22390Y96553D1*
X22223Y96492D1*
X22053Y96443D1*
X21879Y96406D1*
X21704Y96382D1*
X21527Y96369D1*
X21350D1*
X21173Y96382D1*
X20997Y96406D1*
X20824Y96443D1*
X20654Y96492D1*
X20487Y96553D1*
X20325Y96625D1*
X20169Y96708D1*
X20018Y96802D1*
X19875Y96906D1*
X19739Y97020D1*
X19612Y97143D1*
X19493Y97275D1*
X19384Y97415D1*
X19285Y97562D1*
X19196Y97715D1*
X19119Y97874D1*
X19052Y98039D1*
X18998Y98207D1*
X18955Y98380D1*
X18924Y98554D1*
X18905Y98730D1*
X18899Y98908D1*
X100937Y99208D2*
Y98607D1*
X101237Y98908D2*
X100637D1*
X95098D2*
X95104Y99085D1*
X95122Y99261D1*
X95153Y99436D1*
X95196Y99608D1*
X95251Y99776D1*
X95317Y99941D1*
X95395Y100100D1*
X95484Y100254D1*
X95583Y100401D1*
X95692Y100540D1*
X95810Y100672D1*
X95938Y100795D1*
X96074Y100909D1*
X96217Y101013D1*
X96367Y101107D1*
X96524Y101191D1*
X96686Y101263D1*
X96852Y101323D1*
X97023Y101372D1*
X97196Y101409D1*
X97371Y101434D1*
X97548Y101446D1*
X97725D1*
X97902Y101434D1*
X98078Y101409D1*
X98251Y101372D1*
X98421Y101323D1*
X98588Y101263D1*
X98750Y101191D1*
X98906Y101107D1*
X99057Y101013D1*
X99200Y100909D1*
X99336Y100795D1*
X99463Y100672D1*
X99582Y100540D1*
X99691Y100401D1*
X99790Y100254D1*
X99879Y100100D1*
X99956Y99941D1*
X100023Y99776D1*
X100078Y99608D1*
X100120Y99436D1*
X100151Y99261D1*
X100170Y99085D1*
X100176Y98908D1*
X100170Y98730D1*
X100151Y98554D1*
X100120Y98380D1*
X100078Y98207D1*
X100023Y98039D1*
X99956Y97874D1*
X99879Y97715D1*
X99790Y97562D1*
X99691Y97415D1*
X99582Y97275D1*
X99463Y97143D1*
X99336Y97020D1*
X99200Y96906D1*
X99057Y96802D1*
X98906Y96708D1*
X98750Y96625D1*
X98588Y96553D1*
X98421Y96492D1*
X98251Y96443D1*
X98078Y96406D1*
X97902Y96382D1*
X97725Y96369D1*
X97548D1*
X97371Y96382D1*
X97196Y96406D1*
X97023Y96443D1*
X96852Y96492D1*
X96686Y96553D1*
X96524Y96625D1*
X96367Y96708D1*
X96217Y96802D1*
X96074Y96906D1*
X95938Y97020D1*
X95810Y97143D1*
X95692Y97275D1*
X95583Y97415D1*
X95484Y97562D1*
X95395Y97715D1*
X95317Y97874D1*
X95251Y98039D1*
X95196Y98207D1*
X95153Y98380D1*
X95122Y98554D1*
X95104Y98730D1*
X95098Y98908D1*
X100937Y91588D2*
Y90987D1*
X101237Y91288D2*
X100637D1*
X95098D2*
X95104Y91465D1*
X95122Y91641D1*
X95153Y91816D1*
X95196Y91988D1*
X95251Y92156D1*
X95317Y92321D1*
X95395Y92480D1*
X95484Y92634D1*
X95583Y92781D1*
X95692Y92920D1*
X95810Y93052D1*
X95938Y93175D1*
X96074Y93289D1*
X96217Y93393D1*
X96367Y93487D1*
X96524Y93571D1*
X96686Y93643D1*
X96852Y93703D1*
X97023Y93752D1*
X97196Y93789D1*
X97371Y93814D1*
X97548Y93826D1*
X97725D1*
X97902Y93814D1*
X98078Y93789D1*
X98251Y93752D1*
X98421Y93703D1*
X98588Y93643D1*
X98750Y93571D1*
X98906Y93487D1*
X99057Y93393D1*
X99200Y93289D1*
X99336Y93175D1*
X99463Y93052D1*
X99582Y92920D1*
X99691Y92781D1*
X99790Y92634D1*
X99879Y92480D1*
X99956Y92321D1*
X100023Y92156D1*
X100078Y91988D1*
X100120Y91816D1*
X100151Y91641D1*
X100170Y91465D1*
X100176Y91288D1*
X100170Y91110D1*
X100151Y90934D1*
X100120Y90760D1*
X100078Y90587D1*
X100023Y90419D1*
X99956Y90254D1*
X99879Y90095D1*
X99790Y89942D1*
X99691Y89795D1*
X99582Y89655D1*
X99463Y89523D1*
X99336Y89400D1*
X99200Y89286D1*
X99057Y89182D1*
X98906Y89088D1*
X98750Y89005D1*
X98588Y88933D1*
X98421Y88872D1*
X98251Y88823D1*
X98078Y88786D1*
X97902Y88762D1*
X97725Y88749D1*
X97548D1*
X97371Y88762D1*
X97196Y88786D1*
X97023Y88823D1*
X96852Y88872D1*
X96686Y88933D1*
X96524Y89005D1*
X96367Y89088D1*
X96217Y89182D1*
X96074Y89286D1*
X95938Y89400D1*
X95810Y89523D1*
X95692Y89655D1*
X95583Y89795D1*
X95484Y89942D1*
X95395Y90095D1*
X95317Y90254D1*
X95251Y90419D1*
X95196Y90587D1*
X95153Y90760D1*
X95122Y90934D1*
X95104Y91110D1*
X95098Y91288D1*
X100937Y83968D2*
Y83367D1*
X101237Y83668D2*
X100637D1*
X95098D2*
X95104Y83845D1*
X95122Y84021D1*
X95153Y84196D1*
X95196Y84368D1*
X95251Y84536D1*
X95317Y84701D1*
X95395Y84860D1*
X95484Y85014D1*
X95583Y85161D1*
X95692Y85300D1*
X95810Y85432D1*
X95938Y85555D1*
X96074Y85669D1*
X96217Y85773D1*
X96367Y85867D1*
X96524Y85951D1*
X96686Y86023D1*
X96852Y86083D1*
X97023Y86132D1*
X97196Y86169D1*
X97371Y86194D1*
X97548Y86206D1*
X97725D1*
X97902Y86194D1*
X98078Y86169D1*
X98251Y86132D1*
X98421Y86083D1*
X98588Y86023D1*
X98750Y85951D1*
X98906Y85867D1*
X99057Y85773D1*
X99200Y85669D1*
X99336Y85555D1*
X99463Y85432D1*
X99582Y85300D1*
X99691Y85161D1*
X99790Y85014D1*
X99879Y84860D1*
X99956Y84701D1*
X100023Y84536D1*
X100078Y84368D1*
X100120Y84196D1*
X100151Y84021D1*
X100170Y83845D1*
X100176Y83668D1*
X100170Y83490D1*
X100151Y83314D1*
X100120Y83140D1*
X100078Y82967D1*
X100023Y82799D1*
X99956Y82634D1*
X99879Y82475D1*
X99790Y82322D1*
X99691Y82175D1*
X99582Y82035D1*
X99463Y81903D1*
X99336Y81780D1*
X99200Y81666D1*
X99057Y81562D1*
X98906Y81468D1*
X98750Y81385D1*
X98588Y81313D1*
X98421Y81252D1*
X98251Y81203D1*
X98078Y81166D1*
X97902Y81142D1*
X97725Y81129D1*
X97548D1*
X97371Y81142D1*
X97196Y81166D1*
X97023Y81203D1*
X96852Y81252D1*
X96686Y81313D1*
X96524Y81385D1*
X96367Y81468D1*
X96217Y81562D1*
X96074Y81666D1*
X95938Y81780D1*
X95810Y81903D1*
X95692Y82035D1*
X95583Y82175D1*
X95484Y82322D1*
X95395Y82475D1*
X95317Y82634D1*
X95251Y82799D1*
X95196Y82967D1*
X95153Y83140D1*
X95122Y83314D1*
X95104Y83490D1*
X95098Y83668D1*
X100937Y76348D2*
Y75747D1*
X101237Y76048D2*
X100637D1*
X95098D2*
X95104Y76225D1*
X95122Y76401D1*
X95153Y76576D1*
X95196Y76748D1*
X95251Y76916D1*
X95317Y77081D1*
X95395Y77240D1*
X95484Y77394D1*
X95583Y77541D1*
X95692Y77680D1*
X95810Y77812D1*
X95938Y77935D1*
X96074Y78049D1*
X96217Y78153D1*
X96367Y78247D1*
X96524Y78331D1*
X96686Y78403D1*
X96852Y78463D1*
X97023Y78512D1*
X97196Y78549D1*
X97371Y78574D1*
X97548Y78586D1*
X97725D1*
X97902Y78574D1*
X98078Y78549D1*
X98251Y78512D1*
X98421Y78463D1*
X98588Y78403D1*
X98750Y78331D1*
X98906Y78247D1*
X99057Y78153D1*
X99200Y78049D1*
X99336Y77935D1*
X99463Y77812D1*
X99582Y77680D1*
X99691Y77541D1*
X99790Y77394D1*
X99879Y77240D1*
X99956Y77081D1*
X100023Y76916D1*
X100078Y76748D1*
X100120Y76576D1*
X100151Y76401D1*
X100170Y76225D1*
X100176Y76048D1*
X100170Y75870D1*
X100151Y75694D1*
X100120Y75520D1*
X100078Y75347D1*
X100023Y75179D1*
X99956Y75014D1*
X99879Y74855D1*
X99790Y74702D1*
X99691Y74555D1*
X99582Y74415D1*
X99463Y74283D1*
X99336Y74160D1*
X99200Y74046D1*
X99057Y73942D1*
X98906Y73848D1*
X98750Y73765D1*
X98588Y73693D1*
X98421Y73632D1*
X98251Y73583D1*
X98078Y73546D1*
X97902Y73522D1*
X97725Y73509D1*
X97548D1*
X97371Y73522D1*
X97196Y73546D1*
X97023Y73583D1*
X96852Y73632D1*
X96686Y73693D1*
X96524Y73765D1*
X96367Y73848D1*
X96217Y73942D1*
X96074Y74046D1*
X95938Y74160D1*
X95810Y74283D1*
X95692Y74415D1*
X95583Y74555D1*
X95484Y74702D1*
X95395Y74855D1*
X95317Y75014D1*
X95251Y75179D1*
X95196Y75347D1*
X95153Y75520D1*
X95122Y75694D1*
X95104Y75870D1*
X95098Y76048D1*
X100937Y68728D2*
Y68127D1*
X101237Y68428D2*
X100637D1*
X95098D2*
X95104Y68605D1*
X95122Y68781D1*
X95153Y68956D1*
X95196Y69128D1*
X95251Y69296D1*
X95317Y69461D1*
X95395Y69620D1*
X95484Y69774D1*
X95583Y69921D1*
X95692Y70060D1*
X95810Y70192D1*
X95938Y70315D1*
X96074Y70429D1*
X96217Y70533D1*
X96367Y70627D1*
X96524Y70711D1*
X96686Y70783D1*
X96852Y70843D1*
X97023Y70892D1*
X97196Y70929D1*
X97371Y70954D1*
X97548Y70966D1*
X97725D1*
X97902Y70954D1*
X98078Y70929D1*
X98251Y70892D1*
X98421Y70843D1*
X98588Y70783D1*
X98750Y70711D1*
X98906Y70627D1*
X99057Y70533D1*
X99200Y70429D1*
X99336Y70315D1*
X99463Y70192D1*
X99582Y70060D1*
X99691Y69921D1*
X99790Y69774D1*
X99879Y69620D1*
X99956Y69461D1*
X100023Y69296D1*
X100078Y69128D1*
X100120Y68956D1*
X100151Y68781D1*
X100170Y68605D1*
X100176Y68428D1*
X100170Y68250D1*
X100151Y68074D1*
X100120Y67900D1*
X100078Y67727D1*
X100023Y67559D1*
X99956Y67394D1*
X99879Y67235D1*
X99790Y67082D1*
X99691Y66935D1*
X99582Y66795D1*
X99463Y66663D1*
X99336Y66540D1*
X99200Y66426D1*
X99057Y66322D1*
X98906Y66228D1*
X98750Y66145D1*
X98588Y66073D1*
X98421Y66012D1*
X98251Y65963D1*
X98078Y65926D1*
X97902Y65902D1*
X97725Y65889D1*
X97548D1*
X97371Y65902D1*
X97196Y65926D1*
X97023Y65963D1*
X96852Y66012D1*
X96686Y66073D1*
X96524Y66145D1*
X96367Y66228D1*
X96217Y66322D1*
X96074Y66426D1*
X95938Y66540D1*
X95810Y66663D1*
X95692Y66795D1*
X95583Y66935D1*
X95484Y67082D1*
X95395Y67235D1*
X95317Y67394D1*
X95251Y67559D1*
X95196Y67727D1*
X95153Y67900D1*
X95122Y68074D1*
X95104Y68250D1*
X95098Y68428D1*
X100937Y61108D2*
Y60507D1*
X101237Y60808D2*
X100637D1*
X95098D2*
X95104Y60985D1*
X95122Y61161D1*
X95153Y61336D1*
X95196Y61508D1*
X95251Y61676D1*
X95317Y61841D1*
X95395Y62000D1*
X95484Y62154D1*
X95583Y62301D1*
X95692Y62440D1*
X95810Y62572D1*
X95938Y62695D1*
X96074Y62809D1*
X96217Y62913D1*
X96367Y63007D1*
X96524Y63091D1*
X96686Y63163D1*
X96852Y63223D1*
X97023Y63272D1*
X97196Y63309D1*
X97371Y63334D1*
X97548Y63346D1*
X97725D1*
X97902Y63334D1*
X98078Y63309D1*
X98251Y63272D1*
X98421Y63223D1*
X98588Y63163D1*
X98750Y63091D1*
X98906Y63007D1*
X99057Y62913D1*
X99200Y62809D1*
X99336Y62695D1*
X99463Y62572D1*
X99582Y62440D1*
X99691Y62301D1*
X99790Y62154D1*
X99879Y62000D1*
X99956Y61841D1*
X100023Y61676D1*
X100078Y61508D1*
X100120Y61336D1*
X100151Y61161D1*
X100170Y60985D1*
X100176Y60808D1*
X100170Y60630D1*
X100151Y60454D1*
X100120Y60280D1*
X100078Y60107D1*
X100023Y59939D1*
X99956Y59774D1*
X99879Y59615D1*
X99790Y59462D1*
X99691Y59315D1*
X99582Y59175D1*
X99463Y59043D1*
X99336Y58920D1*
X99200Y58806D1*
X99057Y58702D1*
X98906Y58608D1*
X98750Y58525D1*
X98588Y58453D1*
X98421Y58392D1*
X98251Y58343D1*
X98078Y58306D1*
X97902Y58282D1*
X97725Y58269D1*
X97548D1*
X97371Y58282D1*
X97196Y58306D1*
X97023Y58343D1*
X96852Y58392D1*
X96686Y58453D1*
X96524Y58525D1*
X96367Y58608D1*
X96217Y58702D1*
X96074Y58806D1*
X95938Y58920D1*
X95810Y59043D1*
X95692Y59175D1*
X95583Y59315D1*
X95484Y59462D1*
X95395Y59615D1*
X95317Y59774D1*
X95251Y59939D1*
X95196Y60107D1*
X95153Y60280D1*
X95122Y60454D1*
X95104Y60630D1*
X95098Y60808D1*
X100937Y53488D2*
Y52887D1*
X101237Y53188D2*
X100637D1*
X95098D2*
X95104Y53365D1*
X95122Y53541D1*
X95153Y53716D1*
X95196Y53888D1*
X95251Y54056D1*
X95317Y54221D1*
X95395Y54380D1*
X95484Y54534D1*
X95583Y54681D1*
X95692Y54820D1*
X95810Y54952D1*
X95938Y55075D1*
X96074Y55189D1*
X96217Y55293D1*
X96367Y55387D1*
X96524Y55471D1*
X96686Y55543D1*
X96852Y55603D1*
X97023Y55652D1*
X97196Y55689D1*
X97371Y55714D1*
X97548Y55726D1*
X97725D1*
X97902Y55714D1*
X98078Y55689D1*
X98251Y55652D1*
X98421Y55603D1*
X98588Y55543D1*
X98750Y55471D1*
X98906Y55387D1*
X99057Y55293D1*
X99200Y55189D1*
X99336Y55075D1*
X99463Y54952D1*
X99582Y54820D1*
X99691Y54681D1*
X99790Y54534D1*
X99879Y54380D1*
X99956Y54221D1*
X100023Y54056D1*
X100078Y53888D1*
X100120Y53716D1*
X100151Y53541D1*
X100170Y53365D1*
X100176Y53188D1*
X100170Y53010D1*
X100151Y52834D1*
X100120Y52660D1*
X100078Y52487D1*
X100023Y52319D1*
X99956Y52154D1*
X99879Y51995D1*
X99790Y51842D1*
X99691Y51695D1*
X99582Y51555D1*
X99463Y51423D1*
X99336Y51300D1*
X99200Y51186D1*
X99057Y51082D1*
X98906Y50988D1*
X98750Y50905D1*
X98588Y50833D1*
X98421Y50772D1*
X98251Y50723D1*
X98078Y50686D1*
X97902Y50662D1*
X97725Y50649D1*
X97548D1*
X97371Y50662D1*
X97196Y50686D1*
X97023Y50723D1*
X96852Y50772D1*
X96686Y50833D1*
X96524Y50905D1*
X96367Y50988D1*
X96217Y51082D1*
X96074Y51186D1*
X95938Y51300D1*
X95810Y51423D1*
X95692Y51555D1*
X95583Y51695D1*
X95484Y51842D1*
X95395Y51995D1*
X95317Y52154D1*
X95251Y52319D1*
X95196Y52487D1*
X95153Y52660D1*
X95122Y52834D1*
X95104Y53010D1*
X95098Y53188D1*
X79858Y102083D2*
Y76683D1*
X74778Y102083D2*
X79858D1*
X74778D2*
Y76683D1*
X79858D1*
X46838Y102083D2*
Y76683D1*
X41758Y102083D2*
X46838D1*
X41758D2*
Y76683D1*
X46838D1*
X79858Y102083D2*
Y104623D1*
X74778Y102083D2*
X79858D1*
X74778D2*
Y104623D1*
X79858D1*
Y107163D1*
X74778Y104623D2*
X79858D1*
X74778D2*
Y107163D1*
X79858D1*
X46838Y102083D2*
Y104623D1*
X41758Y102083D2*
X46838D1*
X41758D2*
Y104623D1*
X46838D1*
Y107163D1*
X41758Y104623D2*
X46838D1*
X41758D2*
Y107163D1*
X46838D1*
X34138Y91923D2*
Y76683D1*
X36678Y91923D2*
Y76683D1*
X34138Y91923D2*
X36678D1*
X34138Y76683D2*
X36678D1*
X34138Y107163D2*
Y91923D1*
X36678Y107163D2*
Y91923D1*
X34138Y107163D2*
X36678D1*
X34138Y91923D2*
X36678D1*
X84938D2*
Y76683D1*
X87478Y91923D2*
Y76683D1*
X84938Y91923D2*
X87478D1*
X84938Y76683D2*
X87478D1*
X84938Y107163D2*
Y91923D1*
X87478Y107163D2*
Y91923D1*
X84938Y107163D2*
X87478D1*
X84938Y91923D2*
X87478D1*
X100937Y45868D2*
Y45267D1*
X101237Y45568D2*
X100637D1*
X95098D2*
X95104Y45745D1*
X95122Y45921D1*
X95153Y46096D1*
X95196Y46268D1*
X95251Y46436D1*
X95317Y46601D1*
X95395Y46760D1*
X95484Y46914D1*
X95583Y47061D1*
X95692Y47200D1*
X95810Y47332D1*
X95938Y47455D1*
X96074Y47569D1*
X96217Y47673D1*
X96367Y47767D1*
X96524Y47851D1*
X96686Y47923D1*
X96852Y47983D1*
X97023Y48032D1*
X97196Y48069D1*
X97371Y48094D1*
X97548Y48106D1*
X97725D1*
X97902Y48094D1*
X98078Y48069D1*
X98251Y48032D1*
X98421Y47983D1*
X98588Y47923D1*
X98750Y47851D1*
X98906Y47767D1*
X99057Y47673D1*
X99200Y47569D1*
X99336Y47455D1*
X99463Y47332D1*
X99582Y47200D1*
X99691Y47061D1*
X99790Y46914D1*
X99879Y46760D1*
X99956Y46601D1*
X100023Y46436D1*
X100078Y46268D1*
X100120Y46096D1*
X100151Y45921D1*
X100170Y45745D1*
X100176Y45568D1*
X100170Y45390D1*
X100151Y45214D1*
X100120Y45040D1*
X100078Y44867D1*
X100023Y44699D1*
X99956Y44534D1*
X99879Y44375D1*
X99790Y44222D1*
X99691Y44075D1*
X99582Y43935D1*
X99463Y43803D1*
X99336Y43680D1*
X99200Y43566D1*
X99057Y43462D1*
X98906Y43368D1*
X98750Y43285D1*
X98588Y43213D1*
X98421Y43152D1*
X98251Y43103D1*
X98078Y43066D1*
X97902Y43042D1*
X97725Y43029D1*
X97548D1*
X97371Y43042D1*
X97196Y43066D1*
X97023Y43103D1*
X96852Y43152D1*
X96686Y43213D1*
X96524Y43285D1*
X96367Y43368D1*
X96217Y43462D1*
X96074Y43566D1*
X95938Y43680D1*
X95810Y43803D1*
X95692Y43935D1*
X95583Y44075D1*
X95484Y44222D1*
X95395Y44375D1*
X95317Y44534D1*
X95251Y44699D1*
X95196Y44867D1*
X95153Y45040D1*
X95122Y45214D1*
X95104Y45390D1*
X95098Y45568D1*
X100937Y38248D2*
Y37647D1*
X101237Y37948D2*
X100637D1*
X95098D2*
X95104Y38125D1*
X95122Y38301D1*
X95153Y38476D1*
X95196Y38648D1*
X95251Y38816D1*
X95317Y38981D1*
X95395Y39140D1*
X95484Y39294D1*
X95583Y39441D1*
X95692Y39580D1*
X95810Y39712D1*
X95938Y39835D1*
X96074Y39949D1*
X96217Y40053D1*
X96367Y40147D1*
X96524Y40231D1*
X96686Y40303D1*
X96852Y40363D1*
X97023Y40412D1*
X97196Y40449D1*
X97371Y40474D1*
X97548Y40486D1*
X97725D1*
X97902Y40474D1*
X98078Y40449D1*
X98251Y40412D1*
X98421Y40363D1*
X98588Y40303D1*
X98750Y40231D1*
X98906Y40147D1*
X99057Y40053D1*
X99200Y39949D1*
X99336Y39835D1*
X99463Y39712D1*
X99582Y39580D1*
X99691Y39441D1*
X99790Y39294D1*
X99879Y39140D1*
X99956Y38981D1*
X100023Y38816D1*
X100078Y38648D1*
X100120Y38476D1*
X100151Y38301D1*
X100170Y38125D1*
X100176Y37948D1*
X100170Y37770D1*
X100151Y37594D1*
X100120Y37420D1*
X100078Y37247D1*
X100023Y37079D1*
X99956Y36914D1*
X99879Y36755D1*
X99790Y36602D1*
X99691Y36455D1*
X99582Y36315D1*
X99463Y36183D1*
X99336Y36060D1*
X99200Y35946D1*
X99057Y35842D1*
X98906Y35748D1*
X98750Y35665D1*
X98588Y35593D1*
X98421Y35532D1*
X98251Y35483D1*
X98078Y35446D1*
X97902Y35422D1*
X97725Y35409D1*
X97548D1*
X97371Y35422D1*
X97196Y35446D1*
X97023Y35483D1*
X96852Y35532D1*
X96686Y35593D1*
X96524Y35665D1*
X96367Y35748D1*
X96217Y35842D1*
X96074Y35946D1*
X95938Y36060D1*
X95810Y36183D1*
X95692Y36315D1*
X95583Y36455D1*
X95484Y36602D1*
X95395Y36755D1*
X95317Y36914D1*
X95251Y37079D1*
X95196Y37247D1*
X95153Y37420D1*
X95122Y37594D1*
X95104Y37770D1*
X95098Y37948D1*
X100937Y30628D2*
Y30027D1*
X101237Y30328D2*
X100637D1*
X95098D2*
X95104Y30505D1*
X95122Y30681D1*
X95153Y30856D1*
X95196Y31028D1*
X95251Y31196D1*
X95317Y31361D1*
X95395Y31520D1*
X95484Y31674D1*
X95583Y31821D1*
X95692Y31960D1*
X95810Y32092D1*
X95938Y32215D1*
X96074Y32329D1*
X96217Y32433D1*
X96367Y32527D1*
X96524Y32611D1*
X96686Y32683D1*
X96852Y32743D1*
X97023Y32792D1*
X97196Y32829D1*
X97371Y32854D1*
X97548Y32866D1*
X97725D1*
X97902Y32854D1*
X98078Y32829D1*
X98251Y32792D1*
X98421Y32743D1*
X98588Y32683D1*
X98750Y32611D1*
X98906Y32527D1*
X99057Y32433D1*
X99200Y32329D1*
X99336Y32215D1*
X99463Y32092D1*
X99582Y31960D1*
X99691Y31821D1*
X99790Y31674D1*
X99879Y31520D1*
X99956Y31361D1*
X100023Y31196D1*
X100078Y31028D1*
X100120Y30856D1*
X100151Y30681D1*
X100170Y30505D1*
X100176Y30328D1*
X100170Y30150D1*
X100151Y29974D1*
X100120Y29800D1*
X100078Y29627D1*
X100023Y29459D1*
X99956Y29294D1*
X99879Y29135D1*
X99790Y28982D1*
X99691Y28835D1*
X99582Y28695D1*
X99463Y28563D1*
X99336Y28440D1*
X99200Y28326D1*
X99057Y28222D1*
X98906Y28128D1*
X98750Y28045D1*
X98588Y27973D1*
X98421Y27912D1*
X98251Y27863D1*
X98078Y27826D1*
X97902Y27802D1*
X97725Y27789D1*
X97548D1*
X97371Y27802D1*
X97196Y27826D1*
X97023Y27863D1*
X96852Y27912D1*
X96686Y27973D1*
X96524Y28045D1*
X96367Y28128D1*
X96217Y28222D1*
X96074Y28326D1*
X95938Y28440D1*
X95810Y28563D1*
X95692Y28695D1*
X95583Y28835D1*
X95484Y28982D1*
X95395Y29135D1*
X95317Y29294D1*
X95251Y29459D1*
X95196Y29627D1*
X95153Y29800D1*
X95122Y29974D1*
X95104Y30150D1*
X95098Y30328D1*
X100937Y23008D2*
Y22407D1*
X101237Y22708D2*
X100637D1*
X95098D2*
X95104Y22885D1*
X95122Y23061D1*
X95153Y23236D1*
X95196Y23408D1*
X95251Y23576D1*
X95317Y23741D1*
X95395Y23900D1*
X95484Y24054D1*
X95583Y24201D1*
X95692Y24340D1*
X95810Y24472D1*
X95938Y24595D1*
X96074Y24709D1*
X96217Y24813D1*
X96367Y24907D1*
X96524Y24991D1*
X96686Y25063D1*
X96852Y25123D1*
X97023Y25172D1*
X97196Y25209D1*
X97371Y25234D1*
X97548Y25246D1*
X97725D1*
X97902Y25234D1*
X98078Y25209D1*
X98251Y25172D1*
X98421Y25123D1*
X98588Y25063D1*
X98750Y24991D1*
X98906Y24907D1*
X99057Y24813D1*
X99200Y24709D1*
X99336Y24595D1*
X99463Y24472D1*
X99582Y24340D1*
X99691Y24201D1*
X99790Y24054D1*
X99879Y23900D1*
X99956Y23741D1*
X100023Y23576D1*
X100078Y23408D1*
X100120Y23236D1*
X100151Y23061D1*
X100170Y22885D1*
X100176Y22708D1*
X100170Y22530D1*
X100151Y22354D1*
X100120Y22180D1*
X100078Y22007D1*
X100023Y21839D1*
X99956Y21674D1*
X99879Y21515D1*
X99790Y21362D1*
X99691Y21215D1*
X99582Y21075D1*
X99463Y20943D1*
X99336Y20820D1*
X99200Y20706D1*
X99057Y20602D1*
X98906Y20508D1*
X98750Y20425D1*
X98588Y20353D1*
X98421Y20292D1*
X98251Y20243D1*
X98078Y20206D1*
X97902Y20182D1*
X97725Y20169D1*
X97548D1*
X97371Y20182D1*
X97196Y20206D1*
X97023Y20243D1*
X96852Y20292D1*
X96686Y20353D1*
X96524Y20425D1*
X96367Y20508D1*
X96217Y20602D1*
X96074Y20706D1*
X95938Y20820D1*
X95810Y20943D1*
X95692Y21075D1*
X95583Y21215D1*
X95484Y21362D1*
X95395Y21515D1*
X95317Y21674D1*
X95251Y21839D1*
X95196Y22007D1*
X95153Y22180D1*
X95122Y22354D1*
X95104Y22530D1*
X95098Y22708D1*
X100937Y15388D2*
Y14787D1*
X101237Y15088D2*
X100637D1*
X95098D2*
X95104Y15265D1*
X95122Y15441D1*
X95153Y15616D1*
X95196Y15788D1*
X95251Y15956D1*
X95317Y16121D1*
X95395Y16280D1*
X95484Y16434D1*
X95583Y16581D1*
X95692Y16720D1*
X95810Y16852D1*
X95938Y16975D1*
X96074Y17089D1*
X96217Y17193D1*
X96367Y17287D1*
X96524Y17371D1*
X96686Y17443D1*
X96852Y17503D1*
X97023Y17552D1*
X97196Y17589D1*
X97371Y17614D1*
X97548Y17626D1*
X97725D1*
X97902Y17614D1*
X98078Y17589D1*
X98251Y17552D1*
X98421Y17503D1*
X98588Y17443D1*
X98750Y17371D1*
X98906Y17287D1*
X99057Y17193D1*
X99200Y17089D1*
X99336Y16975D1*
X99463Y16852D1*
X99582Y16720D1*
X99691Y16581D1*
X99790Y16434D1*
X99879Y16280D1*
X99956Y16121D1*
X100023Y15956D1*
X100078Y15788D1*
X100120Y15616D1*
X100151Y15441D1*
X100170Y15265D1*
X100176Y15088D1*
X100170Y14910D1*
X100151Y14734D1*
X100120Y14560D1*
X100078Y14387D1*
X100023Y14219D1*
X99956Y14054D1*
X99879Y13895D1*
X99790Y13742D1*
X99691Y13595D1*
X99582Y13455D1*
X99463Y13323D1*
X99336Y13200D1*
X99200Y13086D1*
X99057Y12982D1*
X98906Y12888D1*
X98750Y12805D1*
X98588Y12733D1*
X98421Y12672D1*
X98251Y12623D1*
X98078Y12586D1*
X97902Y12562D1*
X97725Y12549D1*
X97548D1*
X97371Y12562D1*
X97196Y12586D1*
X97023Y12623D1*
X96852Y12672D1*
X96686Y12733D1*
X96524Y12805D1*
X96367Y12888D1*
X96217Y12982D1*
X96074Y13086D1*
X95938Y13200D1*
X95810Y13323D1*
X95692Y13455D1*
X95583Y13595D1*
X95484Y13742D1*
X95395Y13895D1*
X95317Y14054D1*
X95251Y14219D1*
X95196Y14387D1*
X95153Y14560D1*
X95122Y14734D1*
X95104Y14910D1*
X95098Y15088D1*
X23562Y71588D2*
Y72887D1*
X32643Y59552D2*
Y58253D1*
X35422Y55947D2*
X34123D1*
X37962Y66742D2*
X36663D1*
X24197Y58253D2*
Y59552D1*
X28007Y71588D2*
Y72887D1*
X26212Y40392D2*
X24913D1*
X25787Y28723D2*
Y30022D1*
X36343Y33598D2*
X37642D1*
X33168Y31693D2*
X34467D1*
X36773Y43357D2*
Y42058D1*
X28007Y42378D2*
Y43677D1*
X45438Y62222D2*
Y70823D1*
X42837Y62222D2*
Y70823D1*
X45438D2*
X42837D1*
X45438Y62222D2*
X44638D1*
X43637D2*
X42837D1*
X44638D2*
G03X43637Y62222I-500J0D01*
G01*
X74013Y61587D2*
Y70188D1*
X71412Y61587D2*
Y70188D1*
X74013D2*
X71412D1*
X74013Y61587D2*
X73213D1*
X72212D2*
X71412D1*
X73213D2*
G03X72212Y61587I-500J0D01*
G01*
X47343Y43807D2*
Y52408D1*
X44742Y43807D2*
Y52408D1*
X47343D2*
X44742D1*
X47343Y43807D2*
X46543D1*
X45542D2*
X44742D1*
X46543D2*
G03X45542Y43807I-500J0D01*
G01*
X70203Y45077D2*
Y53678D1*
X67602Y45077D2*
Y53678D1*
X70203D2*
X67602D1*
X70203Y45077D2*
X69403D1*
X68402D2*
X67602D1*
X69403D2*
G03X68402Y45077I-500J0D01*
G01*
X47978Y24757D2*
Y33358D1*
X45377Y24757D2*
Y33358D1*
X47978D2*
X45377D1*
X47978Y24757D2*
X47178D1*
X46177D2*
X45377D1*
X47178D2*
G03X46177Y24757I-500J0D01*
G01*
X69568Y25392D2*
Y33993D1*
X66967Y25392D2*
Y33993D1*
X69568D2*
X66967D1*
X69568Y25392D2*
X68768D1*
X67767D2*
X66967D1*
X68768D2*
G03X67767Y25392I-500J0D01*
G01*
X65253Y5201D2*
X56362D1*
Y19648D1*
X58162D1*
X63383D2*
X65253D1*
X65307Y19637D2*
X65312Y18688D1*
X65333Y13118D2*
Y5238D1*
X79442Y70953D2*
Y72252D1*
X85157Y71588D2*
Y72887D1*
X91507Y71588D2*
Y72887D1*
X85587Y55947D2*
X84288D1*
X94157Y56902D2*
X92858D1*
X89397Y55947D2*
X88098D1*
X82698Y46298D2*
X83997D1*
X92543Y46618D2*
X93842D1*
X89368D2*
X90667D1*
X80077Y29678D2*
Y30977D1*
X85157Y29678D2*
Y30977D1*
X90237Y29678D2*
Y30977D1*
X51937Y15703D2*
X54438D1*
X51937Y15892D2*
X54438D1*
X51937D2*
Y15293D1*
X54438Y15892D2*
Y15293D1*
X60034Y109982D2*
D60*
Y109071D1*
X60094Y108889D1*
X60216Y108768D1*
X60399Y108706D1*
X60520D1*
X60702Y108768D1*
X60824Y108889D1*
X60885Y109071D1*
Y109982D1*
X61277Y109738D2*
X61399Y109800D1*
X61581Y109981D1*
Y108706D1*
X13361Y20122D2*
Y18846D1*
X13787D1*
X13969Y18908D1*
X14091Y19028D1*
X14152Y19150D1*
X14212Y19332D1*
Y19636D1*
X14152Y19819D1*
X14091Y19939D1*
X13969Y20062D1*
X13787Y20122D1*
X13361D1*
X14604Y19878D2*
X14726Y19939D1*
X14909Y20121D1*
Y18846D1*
X13088Y27742D2*
Y26466D1*
X13513D1*
X13696Y26528D1*
X13818Y26648D1*
X13878Y26770D1*
X13939Y26952D1*
Y27256D1*
X13878Y27439D1*
X13818Y27559D1*
X13696Y27682D1*
X13513Y27742D1*
X13088D1*
X14393Y27437D2*
Y27498D1*
X14453Y27620D1*
X14514Y27680D1*
X14636Y27741D1*
X14879D1*
X14999Y27680D1*
X15060Y27620D1*
X15121Y27498D1*
Y27377D1*
X15060Y27255D1*
X14939Y27074D1*
X14331Y26466D1*
X15182D1*
X13088Y35362D2*
Y34086D1*
X13513D1*
X13696Y34148D1*
X13818Y34268D1*
X13878Y34390D1*
X13939Y34572D1*
Y34876D1*
X13878Y35059D1*
X13818Y35179D1*
X13696Y35302D1*
X13513Y35362D1*
X13088D1*
X14453Y35361D2*
X15120D1*
X14756Y34875D1*
X14939D1*
X15060Y34814D1*
X15120Y34754D1*
X15182Y34572D1*
Y34451D1*
X15120Y34268D1*
X14999Y34146D1*
X14817Y34086D1*
X14634D1*
X14453Y34146D1*
X14393Y34208D1*
X14331Y34329D1*
X13058Y42982D2*
Y41706D1*
X13483D1*
X13666Y41768D1*
X13788Y41888D1*
X13848Y42010D1*
X13909Y42192D1*
Y42496D1*
X13848Y42679D1*
X13788Y42799D1*
X13666Y42922D1*
X13483Y42982D1*
X13058D1*
X14909Y41706D2*
Y42981D1*
X14301Y42131D1*
X15212D1*
X13088Y50602D2*
Y49326D1*
X13513D1*
X13696Y49388D1*
X13818Y49508D1*
X13878Y49630D1*
X13939Y49812D1*
Y50116D1*
X13878Y50299D1*
X13818Y50419D1*
X13696Y50542D1*
X13513Y50602D1*
X13088D1*
X15060Y50601D2*
X14453D1*
X14393Y50054D1*
X14453Y50115D1*
X14636Y50177D1*
X14817D1*
X14999Y50115D1*
X15121Y49994D1*
X15182Y49812D1*
Y49691D1*
X15121Y49508D1*
X14999Y49386D1*
X14817Y49326D1*
X14636D1*
X14453Y49386D1*
X14393Y49448D1*
X14331Y49569D1*
X13119Y58222D2*
Y56946D1*
X13544D1*
X13727Y57008D1*
X13849Y57128D1*
X13909Y57250D1*
X13970Y57432D1*
Y57736D1*
X13909Y57919D1*
X13849Y58039D1*
X13727Y58162D1*
X13544Y58222D1*
X13119D1*
X15090Y58039D2*
X15030Y58160D1*
X14848Y58221D1*
X14727D1*
X14544Y58160D1*
X14422Y57978D1*
X14362Y57674D1*
Y57371D1*
X14422Y57128D1*
X14544Y57006D1*
X14727Y56946D1*
X14787D1*
X14968Y57006D1*
X15090Y57128D1*
X15151Y57311D1*
Y57371D1*
X15090Y57554D1*
X14968Y57674D1*
X14787Y57735D1*
X14727D1*
X14544Y57674D1*
X14422Y57554D1*
X14362Y57371D1*
X13088Y65842D2*
Y64566D1*
X13513D1*
X13696Y64628D1*
X13818Y64748D1*
X13878Y64870D1*
X13939Y65052D1*
Y65356D1*
X13878Y65539D1*
X13818Y65659D1*
X13696Y65782D1*
X13513Y65842D1*
X13088D1*
X14574Y64566D2*
X15182Y65841D1*
X14331D1*
X13089Y73462D2*
Y72186D1*
X13514D1*
X13697Y72248D1*
X13819Y72368D1*
X13879Y72490D1*
X13940Y72672D1*
Y72976D1*
X13879Y73159D1*
X13819Y73279D1*
X13697Y73402D1*
X13514Y73462D1*
X13089D1*
X14635Y73461D2*
X14454Y73400D1*
X14392Y73279D1*
Y73157D1*
X14454Y73037D1*
X14575Y72975D1*
X14817Y72914D1*
X15000Y72854D1*
X15121Y72732D1*
X15181Y72611D1*
Y72429D1*
X15121Y72308D1*
X15060Y72246D1*
X14878Y72186D1*
X14635D1*
X14454Y72246D1*
X14392Y72308D1*
X14332Y72429D1*
Y72611D1*
X14392Y72732D1*
X14514Y72854D1*
X14695Y72914D1*
X14938Y72975D1*
X15060Y73037D1*
X15121Y73157D1*
Y73279D1*
X15060Y73400D1*
X14878Y73461D1*
X14635D1*
X13118Y81082D2*
Y79806D1*
X13544D1*
X13726Y79868D1*
X13848Y79988D1*
X13909Y80110D1*
X13969Y80292D1*
Y80596D1*
X13909Y80779D1*
X13848Y80899D1*
X13726Y81022D1*
X13544Y81082D1*
X13118D1*
X15152Y80657D2*
X15090Y80474D1*
X14969Y80352D1*
X14787Y80292D1*
X14726D1*
X14544Y80352D1*
X14423Y80474D1*
X14361Y80657D1*
Y80717D1*
X14423Y80899D1*
X14544Y81020D1*
X14726Y81081D1*
X14787D1*
X14969Y81020D1*
X15090Y80899D1*
X15152Y80657D1*
Y80352D1*
X15090Y80049D1*
X14969Y79866D1*
X14787Y79806D1*
X14666D1*
X14483Y79866D1*
X14423Y79988D1*
X12740Y88702D2*
Y87426D1*
X13165D1*
X13348Y87488D1*
X13470Y87608D1*
X13530Y87730D1*
X13590Y87912D1*
Y88216D1*
X13530Y88399D1*
X13470Y88519D1*
X13348Y88642D1*
X13165Y88702D1*
X12740D1*
X13983Y88458D2*
X14105Y88519D1*
X14287Y88701D1*
Y87426D1*
X15044Y88701D2*
X14862Y88640D1*
X14740Y88458D1*
X14679Y88154D1*
Y87972D1*
X14740Y87669D1*
X14862Y87486D1*
X15044Y87426D1*
X15165D1*
X15348Y87486D1*
X15468Y87669D1*
X15530Y87972D1*
Y88154D1*
X15468Y88458D1*
X15348Y88640D1*
X15165Y88701D1*
X15044D1*
X15468Y88458D2*
X14740Y87669D1*
X13013Y96322D2*
Y95046D1*
X13438D1*
X13621Y95108D1*
X13743Y95228D1*
X13803Y95350D1*
X13864Y95532D1*
Y95836D1*
X13803Y96019D1*
X13743Y96139D1*
X13621Y96262D1*
X13438Y96322D1*
X13013D1*
X14256Y96078D2*
X14378Y96139D1*
X14560Y96321D1*
Y95046D1*
X14952Y96078D2*
X15075Y96139D1*
X15257Y96321D1*
Y95046D1*
X12740Y103942D2*
Y102666D1*
X13165D1*
X13348Y102728D1*
X13470Y102848D1*
X13530Y102970D1*
X13590Y103152D1*
Y103456D1*
X13530Y103639D1*
X13470Y103759D1*
X13348Y103882D1*
X13165Y103942D1*
X12740D1*
X13983Y103698D2*
X14105Y103759D1*
X14287Y103941D1*
Y102666D1*
X14741Y103637D2*
Y103698D1*
X14802Y103820D1*
X14862Y103880D1*
X14984Y103941D1*
X15227D1*
X15348Y103880D1*
X15408Y103820D1*
X15470Y103698D1*
Y103577D1*
X15408Y103455D1*
X15287Y103274D1*
X14679Y102666D1*
X15530D1*
X103545Y20122D2*
Y18846D1*
X103970D1*
X104153Y18908D1*
X104275Y19028D1*
X104335Y19150D1*
X104396Y19332D1*
Y19636D1*
X104335Y19819D1*
X104275Y19939D1*
X104153Y20062D1*
X103970Y20122D1*
X103545D1*
X104788Y19878D2*
X104910Y19939D1*
X105093Y20121D1*
Y18846D1*
X105607Y20121D2*
X106274D1*
X105910Y19635D1*
X106093D1*
X106213Y19574D1*
X106274Y19514D1*
X106335Y19332D1*
Y19211D1*
X106274Y19028D1*
X106153Y18906D1*
X105970Y18846D1*
X105788D1*
X105607Y18906D1*
X105547Y18968D1*
X105485Y19089D1*
X103515Y27742D2*
Y26466D1*
X103940D1*
X104123Y26528D1*
X104245Y26648D1*
X104305Y26770D1*
X104366Y26952D1*
Y27256D1*
X104305Y27439D1*
X104245Y27559D1*
X104123Y27682D1*
X103940Y27742D1*
X103515D1*
X104758Y27498D2*
X104880Y27559D1*
X105062Y27741D1*
Y26466D1*
X106062D2*
Y27741D1*
X105455Y26891D1*
X106366D1*
X103545Y35362D2*
Y34086D1*
X103970D1*
X104153Y34148D1*
X104275Y34268D1*
X104335Y34390D1*
X104396Y34572D1*
Y34876D1*
X104335Y35059D1*
X104275Y35179D1*
X104153Y35302D1*
X103970Y35362D1*
X103545D1*
X104788Y35118D2*
X104910Y35179D1*
X105093Y35361D1*
Y34086D1*
X106213Y35361D2*
X105607D1*
X105547Y34814D1*
X105607Y34875D1*
X105789Y34937D1*
X105970D1*
X106153Y34875D1*
X106275Y34754D1*
X106335Y34572D1*
Y34451D1*
X106275Y34268D1*
X106153Y34146D1*
X105970Y34086D1*
X105789D1*
X105607Y34146D1*
X105547Y34208D1*
X105485Y34329D1*
X103576Y42982D2*
Y41706D1*
X104001D1*
X104184Y41768D1*
X104306Y41888D1*
X104366Y42010D1*
X104427Y42192D1*
Y42496D1*
X104366Y42679D1*
X104306Y42799D1*
X104184Y42922D1*
X104001Y42982D1*
X103576D1*
X104819Y42738D2*
X104941Y42799D1*
X105123Y42981D1*
Y41706D1*
X106244Y42799D2*
X106184Y42920D1*
X106001Y42981D1*
X105881D1*
X105698Y42920D1*
X105576Y42738D1*
X105516Y42434D1*
Y42131D1*
X105576Y41888D1*
X105698Y41766D1*
X105881Y41706D1*
X105941D1*
X106122Y41766D1*
X106244Y41888D1*
X106305Y42071D1*
Y42131D1*
X106244Y42314D1*
X106122Y42434D1*
X105941Y42495D1*
X105881D1*
X105698Y42434D1*
X105576Y42314D1*
X105516Y42131D1*
X103545Y50602D2*
Y49326D1*
X103970D1*
X104153Y49388D1*
X104275Y49508D1*
X104335Y49630D1*
X104396Y49812D1*
Y50116D1*
X104335Y50299D1*
X104275Y50419D1*
X104153Y50542D1*
X103970Y50602D1*
X103545D1*
X104788Y50358D2*
X104910Y50419D1*
X105093Y50601D1*
Y49326D1*
X105728D2*
X106335Y50601D1*
X105485D1*
X103546Y58222D2*
Y56946D1*
X103971D1*
X104154Y57008D1*
X104276Y57128D1*
X104336Y57250D1*
X104396Y57432D1*
Y57736D1*
X104336Y57919D1*
X104276Y58039D1*
X104154Y58162D1*
X103971Y58222D1*
X103546D1*
X104789Y57978D2*
X104911Y58039D1*
X105093Y58221D1*
Y56946D1*
X105789Y58221D2*
X105608Y58160D1*
X105546Y58039D1*
Y57917D1*
X105608Y57797D1*
X105728Y57735D1*
X105971Y57674D1*
X106154Y57614D1*
X106274Y57492D1*
X106335Y57371D1*
Y57189D1*
X106274Y57068D1*
X106214Y57006D1*
X106032Y56946D1*
X105789D1*
X105608Y57006D1*
X105546Y57068D1*
X105485Y57189D1*
Y57371D1*
X105546Y57492D1*
X105668Y57614D1*
X105849Y57674D1*
X106092Y57735D1*
X106214Y57797D1*
X106274Y57917D1*
Y58039D1*
X106214Y58160D1*
X106032Y58221D1*
X105789D1*
X103575Y65842D2*
Y64566D1*
X104001D1*
X104183Y64628D1*
X104305Y64748D1*
X104366Y64870D1*
X104426Y65052D1*
Y65356D1*
X104366Y65539D1*
X104305Y65659D1*
X104183Y65782D1*
X104001Y65842D1*
X103575D1*
X104818Y65598D2*
X104940Y65659D1*
X105123Y65841D1*
Y64566D1*
X106305Y65417D2*
X106244Y65234D1*
X106123Y65112D1*
X105940Y65052D1*
X105880D1*
X105697Y65112D1*
X105577Y65234D1*
X105515Y65417D1*
Y65477D1*
X105577Y65659D1*
X105697Y65780D1*
X105880Y65841D1*
X105940D1*
X106123Y65780D1*
X106244Y65659D1*
X106305Y65417D1*
Y65112D1*
X106244Y64809D1*
X106123Y64626D1*
X105940Y64566D1*
X105820D1*
X105637Y64626D1*
X105577Y64748D1*
X103272Y73462D2*
Y72186D1*
X103697D1*
X103880Y72248D1*
X104002Y72368D1*
X104062Y72490D1*
X104123Y72672D1*
Y72976D1*
X104062Y73159D1*
X104002Y73279D1*
X103880Y73402D1*
X103697Y73462D1*
X103272D1*
X104577Y73157D2*
Y73218D1*
X104637Y73340D1*
X104697Y73400D1*
X104820Y73461D1*
X105062D1*
X105183Y73400D1*
X105243Y73340D1*
X105305Y73218D1*
Y73097D1*
X105243Y72975D1*
X105123Y72794D1*
X104515Y72186D1*
X105366D1*
X106123Y73461D2*
X105940Y73400D1*
X105818Y73218D1*
X105758Y72914D1*
Y72732D1*
X105818Y72429D1*
X105940Y72246D1*
X106123Y72186D1*
X106244D1*
X106426Y72246D1*
X106547Y72429D1*
X106609Y72732D1*
Y72914D1*
X106547Y73218D1*
X106426Y73400D1*
X106244Y73461D1*
X106123D1*
X106547Y73218D2*
X105818Y72429D1*
X103545Y81082D2*
Y79806D1*
X103970D1*
X104153Y79868D1*
X104275Y79988D1*
X104335Y80110D1*
X104396Y80292D1*
Y80596D1*
X104335Y80779D1*
X104275Y80899D1*
X104153Y81022D1*
X103970Y81082D1*
X103545D1*
X104850Y80777D2*
Y80838D1*
X104910Y80960D1*
X104970Y81020D1*
X105093Y81081D1*
X105335D1*
X105456Y81020D1*
X105517Y80960D1*
X105578Y80838D1*
Y80717D1*
X105517Y80595D1*
X105396Y80414D1*
X104788Y79806D1*
X105639D1*
X106031Y80838D2*
X106153Y80899D1*
X106335Y81081D1*
Y79806D1*
X103272Y88702D2*
Y87426D1*
X103697D1*
X103880Y87488D1*
X104002Y87608D1*
X104062Y87730D1*
X104123Y87912D1*
Y88216D1*
X104062Y88399D1*
X104002Y88519D1*
X103880Y88642D1*
X103697Y88702D1*
X103272D1*
X104577Y88397D2*
Y88458D1*
X104637Y88580D1*
X104697Y88640D1*
X104820Y88701D1*
X105062D1*
X105183Y88640D1*
X105243Y88580D1*
X105305Y88458D1*
Y88337D1*
X105243Y88215D1*
X105123Y88034D1*
X104515Y87426D1*
X105366D1*
X105820Y88397D2*
Y88458D1*
X105880Y88580D1*
X105940Y88640D1*
X106062Y88701D1*
X106305D1*
X106426Y88640D1*
X106486Y88580D1*
X106548Y88458D1*
Y88337D1*
X106486Y88215D1*
X106366Y88034D1*
X105758Y87426D1*
X106609D1*
X103272Y96322D2*
Y95046D1*
X103697D1*
X103880Y95108D1*
X104002Y95228D1*
X104062Y95350D1*
X104123Y95532D1*
Y95836D1*
X104062Y96019D1*
X104002Y96139D1*
X103880Y96262D1*
X103697Y96322D1*
X103272D1*
X104577Y96017D2*
Y96078D1*
X104637Y96200D1*
X104697Y96260D1*
X104820Y96321D1*
X105062D1*
X105183Y96260D1*
X105243Y96200D1*
X105305Y96078D1*
Y95957D1*
X105243Y95835D1*
X105123Y95654D1*
X104515Y95046D1*
X105366D1*
X105880Y96321D2*
X106547D1*
X106183Y95835D1*
X106366D1*
X106486Y95774D1*
X106547Y95714D1*
X106609Y95532D1*
Y95411D1*
X106547Y95228D1*
X106426Y95106D1*
X106244Y95046D1*
X106061D1*
X105880Y95106D1*
X105820Y95168D1*
X105758Y95289D1*
X103242Y103942D2*
Y102666D1*
X103667D1*
X103850Y102728D1*
X103972Y102848D1*
X104032Y102970D1*
X104093Y103152D1*
Y103456D1*
X104032Y103639D1*
X103972Y103759D1*
X103850Y103882D1*
X103667Y103942D1*
X103242D1*
X104546Y103637D2*
Y103698D1*
X104607Y103820D1*
X104667Y103880D1*
X104789Y103941D1*
X105032D1*
X105153Y103880D1*
X105213Y103820D1*
X105275Y103698D1*
Y103577D1*
X105213Y103455D1*
X105093Y103274D1*
X104485Y102666D1*
X105335D1*
X106335D2*
Y103941D1*
X105728Y103091D1*
X106639D1*
X29756Y42838D2*
Y41927D1*
X29816Y41744D1*
X29938Y41623D1*
X30121Y41562D1*
X30242D1*
X30424Y41623D1*
X30546Y41744D1*
X30607Y41927D1*
Y42838D1*
X31121Y42836D2*
X31788D1*
X31424Y42350D1*
X31607D1*
X31727Y42290D1*
X31788Y42230D1*
X31849Y42047D1*
Y41927D1*
X31788Y41744D1*
X31667Y41622D1*
X31484Y41562D1*
X31302D1*
X31121Y41622D1*
X31060Y41684D1*
X30999Y41804D1*
X29726Y72048D2*
Y71137D1*
X29786Y70954D1*
X29908Y70833D1*
X30091Y70772D1*
X30211D1*
X30394Y70833D1*
X30516Y70954D1*
X30576Y71137D1*
Y72048D1*
X31576Y70772D2*
Y72046D1*
X30968Y71197D1*
X31880D1*
X86271Y71413D2*
Y70502D1*
X86331Y70319D1*
X86453Y70198D1*
X86636Y70137D1*
X86757D1*
X86939Y70198D1*
X87061Y70319D1*
X87122Y70502D1*
Y71413D1*
X88242Y71411D2*
X87636D1*
X87575Y70865D1*
X87636Y70925D1*
X87818Y70987D1*
X87999D1*
X88182Y70925D1*
X88304Y70805D1*
X88364Y70622D1*
Y70502D1*
X88304Y70319D1*
X88182Y70197D1*
X87999Y70137D1*
X87818D1*
X87636Y70197D1*
X87575Y70259D1*
X87514Y70379D1*
X86937Y43473D2*
Y42562D1*
X86997Y42379D1*
X87119Y42258D1*
X87302Y42197D1*
X87422D1*
X87605Y42258D1*
X87727Y42379D1*
X87787Y42562D1*
Y43473D1*
X88908Y43290D2*
X88848Y43411D1*
X88665Y43471D1*
X88545D1*
X88362Y43411D1*
X88240Y43228D1*
X88180Y42925D1*
Y42622D1*
X88240Y42379D1*
X88362Y42257D1*
X88545Y42197D1*
X88605D1*
X88786Y42257D1*
X88908Y42379D1*
X88969Y42562D1*
Y42622D1*
X88908Y42804D1*
X88786Y42925D1*
X88605Y42985D1*
X88545D1*
X88362Y42925D1*
X88240Y42804D1*
X88180Y42622D1*
X21015Y19184D2*
X20955Y19305D1*
X20833Y19427D1*
X20712Y19487D1*
X20469D1*
X20347Y19427D1*
X20226Y19305D1*
X20164Y19184D1*
X20104Y19002D1*
Y18697D1*
X20164Y18516D1*
X20226Y18394D1*
X20347Y18273D1*
X20469Y18211D1*
X20712D1*
X20833Y18273D1*
X20955Y18394D1*
X21015Y18516D1*
X21407Y19243D2*
X21529Y19305D1*
X21712Y19486D1*
Y18211D1*
X20742Y26804D2*
X20682Y26925D1*
X20560Y27047D1*
X20439Y27107D1*
X20196D1*
X20074Y27047D1*
X19953Y26925D1*
X19891Y26804D1*
X19831Y26622D1*
Y26317D1*
X19891Y26136D1*
X19953Y26014D1*
X20074Y25893D1*
X20196Y25831D1*
X20439D1*
X20560Y25893D1*
X20682Y26014D1*
X20742Y26136D1*
X21196Y26803D2*
Y26863D1*
X21256Y26985D1*
X21317Y27046D1*
X21439Y27106D1*
X21682D1*
X21802Y27046D1*
X21863Y26985D1*
X21925Y26863D1*
Y26742D1*
X21863Y26620D1*
X21742Y26439D1*
X21134Y25831D1*
X21985D1*
X20742Y34424D2*
X20682Y34545D1*
X20560Y34667D1*
X20439Y34727D1*
X20196D1*
X20074Y34667D1*
X19953Y34545D1*
X19891Y34424D1*
X19831Y34242D1*
Y33937D1*
X19891Y33756D1*
X19953Y33634D1*
X20074Y33513D1*
X20196Y33451D1*
X20439D1*
X20560Y33513D1*
X20682Y33634D1*
X20742Y33756D1*
X21256Y34726D2*
X21923D1*
X21560Y34240D1*
X21742D1*
X21863Y34180D1*
X21923Y34120D1*
X21985Y33937D1*
Y33816D1*
X21923Y33634D1*
X21802Y33512D1*
X21620Y33451D1*
X21437D1*
X21256Y33512D1*
X21196Y33574D1*
X21134Y33694D1*
X20712Y42044D2*
X20651Y42165D1*
X20529Y42287D1*
X20409Y42347D1*
X20166D1*
X20044Y42287D1*
X19923Y42165D1*
X19861Y42044D1*
X19801Y41862D1*
Y41557D1*
X19861Y41376D1*
X19923Y41254D1*
X20044Y41133D1*
X20166Y41071D1*
X20409D1*
X20529Y41133D1*
X20651Y41254D1*
X20712Y41376D1*
X21712Y41071D2*
Y42346D1*
X21104Y41497D1*
X22015D1*
X20742Y49664D2*
X20682Y49785D1*
X20560Y49907D1*
X20439Y49967D1*
X20196D1*
X20074Y49907D1*
X19953Y49785D1*
X19891Y49664D1*
X19831Y49482D1*
Y49177D1*
X19891Y48996D1*
X19953Y48874D1*
X20074Y48753D1*
X20196Y48691D1*
X20439D1*
X20560Y48753D1*
X20682Y48874D1*
X20742Y48996D1*
X21863Y49966D2*
X21256D1*
X21196Y49420D1*
X21256Y49480D1*
X21439Y49542D1*
X21620D1*
X21802Y49480D1*
X21925Y49360D1*
X21985Y49177D1*
Y49056D1*
X21925Y48874D1*
X21802Y48752D1*
X21620Y48691D1*
X21439D1*
X21256Y48752D1*
X21196Y48814D1*
X21134Y48934D1*
X20773Y57284D2*
X20713Y57405D1*
X20590Y57527D1*
X20470Y57587D1*
X20227D1*
X20105Y57527D1*
X19984Y57405D1*
X19922Y57284D1*
X19862Y57102D1*
Y56797D1*
X19922Y56616D1*
X19984Y56494D1*
X20105Y56373D1*
X20227Y56311D1*
X20470D1*
X20590Y56373D1*
X20713Y56494D1*
X20773Y56616D1*
X21894Y57405D2*
X21833Y57526D1*
X21651Y57586D1*
X21530D1*
X21348Y57526D1*
X21225Y57343D1*
X21165Y57040D1*
Y56737D1*
X21225Y56494D1*
X21348Y56372D1*
X21530Y56311D1*
X21590D1*
X21772Y56372D1*
X21894Y56494D1*
X21954Y56676D1*
Y56737D1*
X21894Y56919D1*
X21772Y57040D1*
X21590Y57100D1*
X21530D1*
X21348Y57040D1*
X21225Y56919D1*
X21165Y56737D1*
X20742Y64904D2*
X20682Y65025D1*
X20560Y65147D1*
X20439Y65207D1*
X20196D1*
X20074Y65147D1*
X19953Y65025D1*
X19891Y64904D1*
X19831Y64722D1*
Y64417D1*
X19891Y64236D1*
X19953Y64114D1*
X20074Y63993D1*
X20196Y63931D1*
X20439D1*
X20560Y63993D1*
X20682Y64114D1*
X20742Y64236D1*
X21377Y63931D2*
X21985Y65206D1*
X21134D1*
X20743Y72524D2*
X20682Y72645D1*
X20560Y72767D1*
X20440Y72827D1*
X20197D1*
X20075Y72767D1*
X19954Y72645D1*
X19892Y72524D1*
X19832Y72342D1*
Y72037D1*
X19892Y71856D1*
X19954Y71734D1*
X20075Y71613D1*
X20197Y71551D1*
X20440D1*
X20560Y71613D1*
X20682Y71734D1*
X20743Y71856D1*
X21438Y72826D2*
X21257Y72766D1*
X21195Y72645D1*
Y72523D1*
X21257Y72402D1*
X21378Y72340D1*
X21621Y72280D1*
X21803Y72220D1*
X21924Y72097D1*
X21984Y71977D1*
Y71794D1*
X21924Y71674D1*
X21863Y71612D1*
X21681Y71551D1*
X21438D1*
X21257Y71612D1*
X21195Y71674D1*
X21135Y71794D1*
Y71977D1*
X21195Y72097D1*
X21317Y72220D1*
X21498Y72280D1*
X21741Y72340D1*
X21863Y72402D1*
X21924Y72523D1*
Y72645D1*
X21863Y72766D1*
X21681Y72826D1*
X21438D1*
X20772Y80144D2*
X20712Y80265D1*
X20590Y80387D1*
X20469Y80447D1*
X20226D1*
X20104Y80387D1*
X19983Y80265D1*
X19921Y80144D1*
X19861Y79962D1*
Y79657D1*
X19921Y79476D1*
X19983Y79354D1*
X20104Y79233D1*
X20226Y79171D1*
X20469D1*
X20590Y79233D1*
X20712Y79354D1*
X20772Y79476D1*
X21955Y80022D2*
X21893Y79840D1*
X21772Y79717D1*
X21590Y79657D1*
X21529D1*
X21347Y79717D1*
X21226Y79840D1*
X21164Y80022D1*
Y80082D1*
X21226Y80265D1*
X21347Y80386D1*
X21529Y80446D1*
X21590D1*
X21772Y80386D1*
X21893Y80265D1*
X21955Y80022D1*
Y79717D1*
X21893Y79414D1*
X21772Y79232D1*
X21590Y79171D1*
X21469D1*
X21287Y79232D1*
X21226Y79354D1*
X20394Y87764D2*
X20333Y87885D1*
X20211Y88007D1*
X20090Y88067D1*
X19848D1*
X19725Y88007D1*
X19605Y87885D1*
X19543Y87764D1*
X19483Y87582D1*
Y87277D1*
X19543Y87096D1*
X19605Y86974D1*
X19725Y86853D1*
X19848Y86791D1*
X20090D1*
X20211Y86853D1*
X20333Y86974D1*
X20394Y87096D1*
X20786Y87823D2*
X20908Y87885D1*
X21090Y88066D1*
Y86791D1*
X21848Y88066D2*
X21665Y88006D1*
X21543Y87823D1*
X21483Y87520D1*
Y87337D1*
X21543Y87034D1*
X21665Y86852D1*
X21848Y86791D1*
X21968D1*
X22151Y86852D1*
X22272Y87034D1*
X22333Y87337D1*
Y87520D1*
X22272Y87823D1*
X22151Y88006D1*
X21968Y88066D1*
X21848D1*
X22272Y87823D2*
X21543Y87034D1*
X20667Y95384D2*
X20606Y95505D1*
X20484Y95627D1*
X20363Y95687D1*
X20121D1*
X19998Y95627D1*
X19878Y95505D1*
X19816Y95384D1*
X19756Y95202D1*
Y94897D1*
X19816Y94716D1*
X19878Y94594D1*
X19998Y94473D1*
X20121Y94411D1*
X20363D1*
X20484Y94473D1*
X20606Y94594D1*
X20667Y94716D1*
X21059Y95443D2*
X21181Y95505D1*
X21363Y95686D1*
Y94411D1*
X21756Y95443D2*
X21878Y95505D1*
X22060Y95686D1*
Y94411D1*
X20394Y103004D2*
X20333Y103125D1*
X20211Y103247D1*
X20090Y103307D1*
X19848D1*
X19725Y103247D1*
X19605Y103125D1*
X19543Y103004D1*
X19483Y102822D1*
Y102517D1*
X19543Y102336D1*
X19605Y102214D1*
X19725Y102093D1*
X19848Y102031D1*
X20090D1*
X20211Y102093D1*
X20333Y102214D1*
X20394Y102336D1*
X20786Y103063D2*
X20908Y103125D1*
X21090Y103306D1*
Y102031D1*
X21544Y103003D2*
Y103063D1*
X21605Y103185D1*
X21665Y103246D1*
X21787Y103306D1*
X22030D1*
X22151Y103246D1*
X22211Y103185D1*
X22273Y103063D1*
Y102942D1*
X22211Y102820D1*
X22090Y102639D1*
X21483Y102031D1*
X22333D1*
X97653Y103004D2*
X97593Y103125D1*
X97470Y103247D1*
X97350Y103307D1*
X97107D1*
X96985Y103247D1*
X96864Y103125D1*
X96802Y103004D1*
X96742Y102822D1*
Y102517D1*
X96802Y102336D1*
X96864Y102214D1*
X96985Y102093D1*
X97107Y102031D1*
X97350D1*
X97470Y102093D1*
X97593Y102214D1*
X97653Y102336D1*
X98045Y103063D2*
X98167Y103125D1*
X98350Y103306D1*
Y102031D1*
X98864Y103306D2*
X99531D1*
X99167Y102820D1*
X99350D1*
X99471Y102760D1*
X99531Y102700D1*
X99593Y102517D1*
Y102396D1*
X99531Y102214D1*
X99410Y102092D1*
X99228Y102031D1*
X99045D1*
X98864Y102092D1*
X98804Y102154D1*
X98742Y102274D1*
X97623Y95384D2*
X97562Y95505D1*
X97440Y95627D1*
X97320Y95687D1*
X97077D1*
X96955Y95627D1*
X96834Y95505D1*
X96772Y95384D1*
X96712Y95202D1*
Y94897D1*
X96772Y94716D1*
X96834Y94594D1*
X96955Y94473D1*
X97077Y94411D1*
X97320D1*
X97440Y94473D1*
X97562Y94594D1*
X97623Y94716D1*
X98015Y95443D2*
X98137Y95505D1*
X98320Y95686D1*
Y94411D1*
X99320D2*
Y95686D1*
X98712Y94837D1*
X99623D1*
X97653Y87764D2*
X97593Y87885D1*
X97470Y88007D1*
X97350Y88067D1*
X97107D1*
X96985Y88007D1*
X96864Y87885D1*
X96802Y87764D1*
X96742Y87582D1*
Y87277D1*
X96802Y87096D1*
X96864Y86974D1*
X96985Y86853D1*
X97107Y86791D1*
X97350D1*
X97470Y86853D1*
X97593Y86974D1*
X97653Y87096D1*
X98045Y87823D2*
X98167Y87885D1*
X98350Y88066D1*
Y86791D1*
X99471Y88066D2*
X98864D1*
X98804Y87520D1*
X98864Y87580D1*
X99047Y87642D1*
X99228D1*
X99410Y87580D1*
X99532Y87460D1*
X99593Y87277D1*
Y87156D1*
X99532Y86974D1*
X99410Y86852D1*
X99228Y86791D1*
X99047D1*
X98864Y86852D1*
X98804Y86914D1*
X98742Y87034D1*
X97684Y80144D2*
X97623Y80265D1*
X97501Y80387D1*
X97381Y80447D1*
X97138D1*
X97016Y80387D1*
X96895Y80265D1*
X96833Y80144D1*
X96773Y79962D1*
Y79657D1*
X96833Y79476D1*
X96895Y79354D1*
X97016Y79233D1*
X97138Y79171D1*
X97381D1*
X97501Y79233D1*
X97623Y79354D1*
X97684Y79476D1*
X98076Y80203D2*
X98198Y80265D1*
X98381Y80446D1*
Y79171D1*
X99501Y80265D2*
X99441Y80386D1*
X99259Y80446D1*
X99138D1*
X98955Y80386D1*
X98833Y80203D1*
X98773Y79900D1*
Y79597D1*
X98833Y79354D1*
X98955Y79232D1*
X99138Y79171D1*
X99198D1*
X99379Y79232D1*
X99501Y79354D1*
X99562Y79536D1*
Y79597D1*
X99501Y79779D1*
X99379Y79900D1*
X99198Y79960D1*
X99138D1*
X98955Y79900D1*
X98833Y79779D1*
X98773Y79597D1*
X97653Y72524D2*
X97593Y72645D1*
X97470Y72767D1*
X97350Y72827D1*
X97107D1*
X96985Y72767D1*
X96864Y72645D1*
X96802Y72524D1*
X96742Y72342D1*
Y72037D1*
X96802Y71856D1*
X96864Y71734D1*
X96985Y71613D1*
X97107Y71551D1*
X97350D1*
X97470Y71613D1*
X97593Y71734D1*
X97653Y71856D1*
X98045Y72583D2*
X98167Y72645D1*
X98350Y72826D1*
Y71551D1*
X98985D2*
X99593Y72826D1*
X98742D1*
X97654Y64904D2*
X97593Y65025D1*
X97471Y65147D1*
X97350Y65207D1*
X97108D1*
X96985Y65147D1*
X96865Y65025D1*
X96803Y64904D1*
X96743Y64722D1*
Y64417D1*
X96803Y64236D1*
X96865Y64114D1*
X96985Y63993D1*
X97108Y63931D1*
X97350D1*
X97471Y63993D1*
X97593Y64114D1*
X97654Y64236D1*
X98046Y64963D2*
X98168Y65025D1*
X98350Y65206D1*
Y63931D1*
X99046Y65206D2*
X98865Y65146D1*
X98803Y65025D1*
Y64903D1*
X98865Y64782D1*
X98985Y64720D1*
X99228Y64660D1*
X99411Y64600D1*
X99532Y64477D1*
X99592Y64357D1*
Y64174D1*
X99532Y64054D1*
X99471Y63992D1*
X99289Y63931D1*
X99046D1*
X98865Y63992D1*
X98803Y64054D1*
X98743Y64174D1*
Y64357D1*
X98803Y64477D1*
X98925Y64600D1*
X99106Y64660D1*
X99349Y64720D1*
X99471Y64782D1*
X99532Y64903D1*
Y65025D1*
X99471Y65146D1*
X99289Y65206D1*
X99046D1*
X97683Y57284D2*
X97623Y57405D1*
X97501Y57527D1*
X97380Y57587D1*
X97137D1*
X97015Y57527D1*
X96894Y57405D1*
X96832Y57284D1*
X96772Y57102D1*
Y56797D1*
X96832Y56616D1*
X96894Y56494D1*
X97015Y56373D1*
X97137Y56311D1*
X97380D1*
X97501Y56373D1*
X97623Y56494D1*
X97683Y56616D1*
X98075Y57343D2*
X98197Y57405D1*
X98380Y57586D1*
Y56311D1*
X99562Y57162D2*
X99501Y56980D1*
X99380Y56857D1*
X99197Y56797D1*
X99137D1*
X98955Y56857D1*
X98834Y56980D1*
X98772Y57162D1*
Y57222D1*
X98834Y57405D1*
X98955Y57526D1*
X99137Y57586D1*
X99197D1*
X99380Y57526D1*
X99501Y57405D1*
X99562Y57162D1*
Y56857D1*
X99501Y56554D1*
X99380Y56372D1*
X99197Y56311D1*
X99077D1*
X98894Y56372D1*
X98834Y56494D1*
X77273Y103942D2*
Y102971D1*
X77213Y102789D1*
X77151Y102728D1*
X77030Y102666D1*
X76908D1*
X76787Y102728D1*
X76727Y102789D1*
X76665Y102971D1*
Y103092D1*
X77665Y103698D2*
X77787Y103760D1*
X77970Y103941D1*
Y102666D1*
X43980Y103942D2*
Y102971D1*
X43920Y102789D1*
X43858Y102728D1*
X43737Y102666D1*
X43615D1*
X43494Y102728D1*
X43434Y102789D1*
X43372Y102971D1*
Y103092D1*
X44434Y103638D2*
Y103698D1*
X44494Y103820D1*
X44555Y103881D1*
X44677Y103941D1*
X44920D1*
X45040Y103881D1*
X45101Y103820D1*
X45163Y103698D1*
Y103577D1*
X45101Y103455D1*
X44980Y103274D1*
X44372Y102666D1*
X45223D1*
X77000Y106482D2*
Y105511D1*
X76940Y105329D1*
X76878Y105268D1*
X76757Y105206D1*
X76635D1*
X76514Y105268D1*
X76454Y105329D1*
X76392Y105511D1*
Y105632D1*
X77514Y106481D2*
X78181D1*
X77818Y105995D1*
X78000D1*
X78121Y105935D1*
X78181Y105875D1*
X78243Y105692D1*
Y105571D1*
X78181Y105389D1*
X78060Y105267D1*
X77878Y105206D1*
X77695D1*
X77514Y105267D1*
X77454Y105329D1*
X77392Y105449D1*
X76970Y109022D2*
Y108051D1*
X76910Y107869D1*
X76848Y107808D1*
X76727Y107746D1*
X76605D1*
X76484Y107808D1*
X76424Y107869D1*
X76362Y108051D1*
Y108172D1*
X77970Y107746D2*
Y109021D1*
X77362Y108172D1*
X78273D1*
X43980Y106482D2*
Y105511D1*
X43920Y105329D1*
X43858Y105268D1*
X43737Y105206D1*
X43615D1*
X43494Y105268D1*
X43434Y105329D1*
X43372Y105511D1*
Y105632D1*
X45101Y106481D2*
X44494D1*
X44434Y105935D1*
X44494Y105995D1*
X44677Y106057D1*
X44858D1*
X45040Y105995D1*
X45163Y105875D1*
X45223Y105692D1*
Y105571D1*
X45163Y105389D1*
X45040Y105267D1*
X44858Y105206D1*
X44677D1*
X44494Y105267D1*
X44434Y105329D1*
X44372Y105449D1*
X44011Y109022D2*
Y108051D1*
X43951Y107869D1*
X43889Y107808D1*
X43768Y107746D1*
X43646D1*
X43525Y107808D1*
X43465Y107869D1*
X43403Y108051D1*
Y108172D1*
X45132Y108840D2*
X45071Y108961D1*
X44889Y109021D1*
X44768D1*
X44586Y108961D1*
X44463Y108778D1*
X44403Y108475D1*
Y108172D1*
X44463Y107929D1*
X44586Y107807D1*
X44768Y107746D1*
X44828D1*
X45010Y107807D1*
X45132Y107929D1*
X45192Y108111D1*
Y108172D1*
X45132Y108354D1*
X45010Y108475D1*
X44828Y108535D1*
X44768D1*
X44586Y108475D1*
X44463Y108354D1*
X44403Y108172D1*
X35090Y93782D2*
Y92811D1*
X35030Y92629D1*
X34968Y92568D1*
X34847Y92506D1*
X34725D1*
X34604Y92568D1*
X34544Y92629D1*
X34482Y92811D1*
Y92932D1*
X35725Y92506D2*
X36333Y93781D1*
X35482D1*
X35091Y109022D2*
Y108051D1*
X35030Y107869D1*
X34969Y107808D1*
X34848Y107746D1*
X34726D1*
X34605Y107808D1*
X34545Y107869D1*
X34483Y108051D1*
Y108172D1*
X35786Y109021D2*
X35605Y108961D1*
X35543Y108840D1*
Y108718D1*
X35605Y108597D1*
X35726Y108535D1*
X35969Y108475D1*
X36151Y108415D1*
X36272Y108292D1*
X36332Y108172D1*
Y107989D1*
X36272Y107869D1*
X36212Y107807D1*
X36029Y107746D1*
X35786D1*
X35605Y107807D1*
X35543Y107869D1*
X35483Y107989D1*
Y108172D1*
X35543Y108292D1*
X35665Y108415D1*
X35847Y108475D1*
X36089Y108535D1*
X36212Y108597D1*
X36272Y108718D1*
Y108840D1*
X36212Y108961D1*
X36029Y109021D1*
X35786D1*
X85920Y93782D2*
Y92811D1*
X85860Y92629D1*
X85798Y92568D1*
X85677Y92506D1*
X85555D1*
X85435Y92568D1*
X85374Y92629D1*
X85312Y92811D1*
Y92932D1*
X87103Y93357D2*
X87041Y93175D1*
X86920Y93052D1*
X86738Y92992D1*
X86677D1*
X86495Y93052D1*
X86374Y93175D1*
X86312Y93357D1*
Y93417D1*
X86374Y93600D1*
X86495Y93721D1*
X86677Y93781D1*
X86738D1*
X86920Y93721D1*
X87041Y93600D1*
X87103Y93357D1*
Y93052D1*
X87041Y92749D1*
X86920Y92567D1*
X86738Y92506D1*
X86617D1*
X86435Y92567D1*
X86374Y92689D1*
X83078Y98877D2*
X84049D1*
X84232Y98816D1*
X84292Y98755D1*
X84354Y98634D1*
Y98512D1*
X84292Y98391D1*
X84232Y98331D1*
X84049Y98269D1*
X83928D1*
X83322Y99269D2*
X83260Y99391D1*
X83079Y99573D1*
X84354D1*
X83079Y100331D2*
X83140Y100148D1*
X83322Y100026D1*
X83625Y99966D1*
X83808D1*
X84111Y100026D1*
X84293Y100148D1*
X84354Y100331D1*
Y100451D1*
X84293Y100634D1*
X84111Y100755D1*
X83808Y100816D1*
X83625D1*
X83322Y100755D1*
X83140Y100634D1*
X83079Y100451D1*
Y100331D1*
X83322Y100755D2*
X84111Y100026D1*
X97380Y49664D2*
X97320Y49785D1*
X97197Y49907D1*
X97077Y49967D1*
X96834D1*
X96712Y49907D1*
X96591Y49785D1*
X96529Y49664D1*
X96469Y49482D1*
Y49177D1*
X96529Y48996D1*
X96591Y48874D1*
X96712Y48753D1*
X96834Y48691D1*
X97077D1*
X97197Y48753D1*
X97320Y48874D1*
X97380Y48996D1*
X97834Y49663D2*
Y49723D1*
X97894Y49845D1*
X97955Y49906D1*
X98077Y49966D1*
X98320D1*
X98440Y49906D1*
X98501Y49845D1*
X98562Y49723D1*
Y49602D1*
X98501Y49480D1*
X98380Y49299D1*
X97772Y48691D1*
X98623D1*
X99380Y49966D2*
X99197Y49906D1*
X99075Y49723D1*
X99015Y49420D1*
Y49237D1*
X99075Y48934D1*
X99197Y48752D1*
X99380Y48691D1*
X99501D1*
X99683Y48752D1*
X99804Y48934D1*
X99866Y49237D1*
Y49420D1*
X99804Y49723D1*
X99683Y49906D1*
X99501Y49966D1*
X99380D1*
X99804Y49723D2*
X99075Y48934D1*
X97653Y42044D2*
X97593Y42165D1*
X97470Y42287D1*
X97350Y42347D1*
X97107D1*
X96985Y42287D1*
X96864Y42165D1*
X96802Y42044D1*
X96742Y41862D1*
Y41557D1*
X96802Y41376D1*
X96864Y41254D1*
X96985Y41133D1*
X97107Y41071D1*
X97350D1*
X97470Y41133D1*
X97593Y41254D1*
X97653Y41376D1*
X98107Y42043D2*
Y42103D1*
X98167Y42225D1*
X98228Y42286D1*
X98350Y42346D1*
X98593D1*
X98713Y42286D1*
X98774Y42225D1*
X98835Y42103D1*
Y41982D1*
X98774Y41860D1*
X98653Y41679D1*
X98045Y41071D1*
X98896D1*
X99288Y42103D2*
X99410Y42165D1*
X99593Y42346D1*
Y41071D1*
X97380Y34424D2*
X97320Y34545D1*
X97197Y34667D1*
X97077Y34727D1*
X96834D1*
X96712Y34667D1*
X96591Y34545D1*
X96529Y34424D1*
X96469Y34242D1*
Y33937D1*
X96529Y33756D1*
X96591Y33634D1*
X96712Y33513D1*
X96834Y33451D1*
X97077D1*
X97197Y33513D1*
X97320Y33634D1*
X97380Y33756D1*
X97834Y34423D2*
Y34483D1*
X97894Y34605D1*
X97955Y34666D1*
X98077Y34726D1*
X98320D1*
X98440Y34666D1*
X98501Y34605D1*
X98562Y34483D1*
Y34362D1*
X98501Y34240D1*
X98380Y34059D1*
X97772Y33451D1*
X98623D1*
X99077Y34423D2*
Y34483D1*
X99137Y34605D1*
X99197Y34666D1*
X99320Y34726D1*
X99562D1*
X99683Y34666D1*
X99744Y34605D1*
X99805Y34483D1*
Y34362D1*
X99744Y34240D1*
X99623Y34059D1*
X99015Y33451D1*
X99866D1*
X97380Y26804D2*
X97320Y26925D1*
X97197Y27047D1*
X97077Y27107D1*
X96834D1*
X96712Y27047D1*
X96591Y26925D1*
X96529Y26804D1*
X96469Y26622D1*
Y26317D1*
X96529Y26136D1*
X96591Y26014D1*
X96712Y25893D1*
X96834Y25831D1*
X97077D1*
X97197Y25893D1*
X97320Y26014D1*
X97380Y26136D1*
X97834Y26803D2*
Y26863D1*
X97894Y26985D1*
X97955Y27046D1*
X98077Y27106D1*
X98320D1*
X98440Y27046D1*
X98501Y26985D1*
X98562Y26863D1*
Y26742D1*
X98501Y26620D1*
X98380Y26439D1*
X97772Y25831D1*
X98623D1*
X99137Y27106D2*
X99804D1*
X99440Y26620D1*
X99623D1*
X99744Y26560D1*
X99804Y26500D1*
X99866Y26317D1*
Y26196D1*
X99804Y26014D1*
X99683Y25892D1*
X99501Y25831D1*
X99318D1*
X99137Y25892D1*
X99077Y25954D1*
X99015Y26074D1*
X97350Y19184D2*
X97289Y19305D1*
X97167Y19427D1*
X97047Y19487D1*
X96804D1*
X96682Y19427D1*
X96561Y19305D1*
X96499Y19184D1*
X96439Y19002D1*
Y18697D1*
X96499Y18516D1*
X96561Y18394D1*
X96682Y18273D1*
X96804Y18211D1*
X97047D1*
X97167Y18273D1*
X97289Y18394D1*
X97350Y18516D1*
X97804Y19183D2*
Y19243D1*
X97864Y19365D1*
X97924Y19426D1*
X98047Y19486D1*
X98289D1*
X98410Y19426D1*
X98470Y19365D1*
X98532Y19243D1*
Y19122D1*
X98470Y19000D1*
X98350Y18819D1*
X97742Y18211D1*
X98593D1*
X99593D2*
Y19486D1*
X98985Y18637D1*
X99896D1*
X17169Y20900D2*
X17715D1*
X17897Y20961D1*
X17959Y21022D1*
X18020Y21142D1*
Y21265D1*
X17959Y21385D1*
X17897Y21447D1*
X17715Y21507D1*
X17169D1*
Y20231D1*
X17594Y20900D2*
X18020Y20231D1*
X18412Y21263D2*
X18534Y21325D1*
X18716Y21506D1*
Y20231D1*
X16896Y28520D2*
X17442D1*
X17624Y28581D1*
X17686Y28642D1*
X17747Y28762D1*
Y28885D1*
X17686Y29005D1*
X17624Y29067D1*
X17442Y29127D1*
X16896D1*
Y27851D1*
X17321Y28520D2*
X17747Y27851D1*
X18200Y28823D2*
Y28883D1*
X18261Y29005D1*
X18321Y29066D1*
X18443Y29126D1*
X18686D1*
X18807Y29066D1*
X18867Y29005D1*
X18929Y28883D1*
Y28762D1*
X18867Y28640D1*
X18747Y28459D1*
X18139Y27851D1*
X18989D1*
X16896Y36140D2*
X17442D1*
X17624Y36201D1*
X17686Y36262D1*
X17747Y36382D1*
Y36505D1*
X17686Y36625D1*
X17624Y36687D1*
X17442Y36747D1*
X16896D1*
Y35471D1*
X17321Y36140D2*
X17747Y35471D1*
X18261Y36746D2*
X18928D1*
X18564Y36260D1*
X18747D1*
X18867Y36200D1*
X18928Y36140D1*
X18989Y35957D1*
Y35836D1*
X18928Y35654D1*
X18807Y35532D1*
X18624Y35471D1*
X18442D1*
X18261Y35532D1*
X18200Y35594D1*
X18139Y35714D1*
X16866Y43760D2*
X17412D1*
X17594Y43821D1*
X17656Y43882D1*
X17716Y44002D1*
Y44125D1*
X17656Y44245D1*
X17594Y44307D1*
X17412Y44367D1*
X16866D1*
Y43091D1*
X17291Y43760D2*
X17716Y43091D1*
X18716D2*
Y44366D1*
X18108Y43517D1*
X19020D1*
X16896Y51380D2*
X17442D1*
X17624Y51441D1*
X17686Y51502D1*
X17747Y51622D1*
Y51745D1*
X17686Y51865D1*
X17624Y51927D1*
X17442Y51987D1*
X16896D1*
Y50711D1*
X17321Y51380D2*
X17747Y50711D1*
X18867Y51986D2*
X18261D1*
X18200Y51440D1*
X18261Y51500D1*
X18443Y51562D1*
X18624D1*
X18807Y51500D1*
X18929Y51380D1*
X18989Y51197D1*
Y51076D1*
X18929Y50894D1*
X18807Y50772D1*
X18624Y50711D1*
X18443D1*
X18261Y50772D1*
X18200Y50834D1*
X18139Y50954D1*
X16927Y59000D2*
X17473D1*
X17655Y59061D1*
X17717Y59122D1*
X17777Y59242D1*
Y59365D1*
X17717Y59485D1*
X17655Y59547D1*
X17473Y59607D1*
X16927D1*
Y58331D1*
X17352Y59000D2*
X17777Y58331D1*
X18898Y59425D2*
X18838Y59546D1*
X18655Y59606D1*
X18535D1*
X18352Y59546D1*
X18230Y59363D1*
X18170Y59060D1*
Y58757D1*
X18230Y58514D1*
X18352Y58392D1*
X18535Y58331D1*
X18595D1*
X18776Y58392D1*
X18898Y58514D1*
X18959Y58696D1*
Y58757D1*
X18898Y58939D1*
X18776Y59060D1*
X18595Y59120D1*
X18535D1*
X18352Y59060D1*
X18230Y58939D1*
X18170Y58757D1*
X16896Y66620D2*
X17442D1*
X17624Y66681D1*
X17686Y66742D1*
X17747Y66862D1*
Y66985D1*
X17686Y67105D1*
X17624Y67167D1*
X17442Y67227D1*
X16896D1*
Y65951D1*
X17321Y66620D2*
X17747Y65951D1*
X18382D2*
X18989Y67226D1*
X18139D1*
X16896Y74240D2*
X17443D1*
X17625Y74301D1*
X17687Y74362D1*
X17747Y74482D1*
Y74605D1*
X17687Y74725D1*
X17625Y74787D1*
X17443Y74847D1*
X16896D1*
Y73571D1*
X17322Y74240D2*
X17747Y73571D1*
X18443Y74846D2*
X18262Y74786D1*
X18200Y74665D1*
Y74543D1*
X18262Y74422D1*
X18382Y74360D1*
X18625Y74300D1*
X18808Y74240D1*
X18928Y74117D1*
X18989Y73997D1*
Y73814D1*
X18928Y73694D1*
X18868Y73632D1*
X18685Y73571D1*
X18443D1*
X18262Y73632D1*
X18200Y73694D1*
X18139Y73814D1*
Y73997D1*
X18200Y74117D1*
X18322Y74240D1*
X18503Y74300D1*
X18746Y74360D1*
X18868Y74422D1*
X18928Y74543D1*
Y74665D1*
X18868Y74786D1*
X18685Y74846D1*
X18443D1*
X16926Y81860D2*
X17472D1*
X17655Y81921D1*
X17716Y81982D1*
X17777Y82102D1*
Y82225D1*
X17716Y82345D1*
X17655Y82407D1*
X17472Y82467D1*
X16926D1*
Y81191D1*
X17351Y81860D2*
X17777Y81191D1*
X18959Y82042D2*
X18897Y81860D1*
X18777Y81737D1*
X18594Y81677D1*
X18534D1*
X18351Y81737D1*
X18231Y81860D1*
X18169Y82042D1*
Y82102D1*
X18231Y82285D1*
X18351Y82406D1*
X18534Y82466D1*
X18594D1*
X18777Y82406D1*
X18897Y82285D1*
X18959Y82042D1*
Y81737D1*
X18897Y81434D1*
X18777Y81252D1*
X18594Y81191D1*
X18473D1*
X18291Y81252D1*
X18231Y81374D1*
X16547Y89480D2*
X17093D1*
X17276Y89541D1*
X17338Y89602D1*
X17398Y89722D1*
Y89845D1*
X17338Y89965D1*
X17276Y90027D1*
X17093Y90087D1*
X16547D1*
Y88811D1*
X16973Y89480D2*
X17398Y88811D1*
X17790Y89843D2*
X17912Y89905D1*
X18095Y90086D1*
Y88811D1*
X18852Y90086D2*
X18670Y90026D1*
X18547Y89843D1*
X18487Y89540D1*
Y89357D1*
X18547Y89054D1*
X18670Y88872D1*
X18852Y88811D1*
X18973D1*
X19155Y88872D1*
X19276Y89054D1*
X19338Y89357D1*
Y89540D1*
X19276Y89843D1*
X19155Y90026D1*
X18973Y90086D1*
X18852D1*
X19276Y89843D2*
X18547Y89054D1*
X16820Y97100D2*
X17367D1*
X17549Y97161D1*
X17611Y97222D1*
X17671Y97342D1*
Y97465D1*
X17611Y97585D1*
X17549Y97647D1*
X17367Y97707D1*
X16820D1*
Y96431D1*
X17246Y97100D2*
X17671Y96431D1*
X18063Y97463D2*
X18185Y97525D1*
X18368Y97706D1*
Y96431D1*
X18760Y97463D2*
X18882Y97525D1*
X19065Y97706D1*
Y96431D1*
X16547Y104720D2*
X17093D1*
X17276Y104781D1*
X17338Y104842D1*
X17398Y104962D1*
Y105085D1*
X17338Y105205D1*
X17276Y105267D1*
X17093Y105327D1*
X16547D1*
Y104051D1*
X16973Y104720D2*
X17398Y104051D1*
X17790Y105083D2*
X17912Y105145D1*
X18095Y105326D1*
Y104051D1*
X18549Y105023D2*
Y105083D1*
X18609Y105205D1*
X18670Y105266D1*
X18792Y105326D1*
X19035D1*
X19155Y105266D1*
X19216Y105205D1*
X19277Y105083D1*
Y104962D1*
X19216Y104840D1*
X19095Y104659D1*
X18487Y104051D1*
X19338D1*
X24605Y74544D2*
X24545Y74665D1*
X24423Y74787D1*
X24302Y74847D1*
X24059D1*
X23937Y74787D1*
X23816Y74665D1*
X23754Y74544D1*
X23694Y74362D1*
Y74057D1*
X23754Y73876D1*
X23816Y73754D1*
X23937Y73633D1*
X24059Y73571D1*
X24302D1*
X24423Y73633D1*
X24545Y73754D1*
X24605Y73876D1*
X25059Y74543D2*
Y74603D1*
X25120Y74725D1*
X25180Y74786D1*
X25302Y74846D1*
X25545D1*
X25666Y74786D1*
X25726Y74725D1*
X25788Y74603D1*
Y74482D1*
X25726Y74360D1*
X25605Y74179D1*
X24997Y73571D1*
X25848D1*
X27031Y74422D2*
X26969Y74240D1*
X26848Y74117D1*
X26666Y74057D1*
X26605D1*
X26423Y74117D1*
X26302Y74240D1*
X26240Y74422D1*
Y74482D1*
X26302Y74665D1*
X26423Y74786D1*
X26605Y74846D1*
X26666D1*
X26848Y74786D1*
X26969Y74665D1*
X27031Y74422D1*
Y74117D1*
X26969Y73814D1*
X26848Y73632D1*
X26666Y73571D1*
X26545D1*
X26362Y73632D1*
X26302Y73754D1*
X30055Y61209D2*
X29995Y61330D1*
X29873Y61452D1*
X29752Y61512D1*
X29509D1*
X29387Y61452D1*
X29266Y61330D1*
X29204Y61209D1*
X29144Y61027D1*
Y60722D1*
X29204Y60541D1*
X29266Y60419D1*
X29387Y60298D1*
X29509Y60236D1*
X29752D1*
X29873Y60298D1*
X29995Y60419D1*
X30055Y60541D1*
X30569Y61511D2*
X31236D1*
X30873Y61025D1*
X31055D1*
X31176Y60965D1*
X31236Y60905D1*
X31298Y60722D1*
Y60601D1*
X31236Y60419D1*
X31116Y60297D1*
X30933Y60236D1*
X30751D1*
X30569Y60297D1*
X30509Y60359D1*
X30447Y60479D1*
X32055Y61511D2*
X31873Y61451D1*
X31751Y61268D1*
X31690Y60965D1*
Y60782D1*
X31751Y60479D1*
X31873Y60297D1*
X32055Y60236D1*
X32176D1*
X32358Y60297D1*
X32479Y60479D1*
X32541Y60782D1*
Y60965D1*
X32479Y61268D1*
X32358Y61451D1*
X32176Y61511D1*
X32055D1*
X32479Y61268D2*
X31751Y60479D1*
X32466Y57233D2*
X32345Y57173D1*
X32223Y57051D1*
X32163Y56930D1*
Y56687D1*
X32223Y56565D1*
X32345Y56444D1*
X32466Y56382D1*
X32648Y56322D1*
X32953D1*
X33134Y56382D1*
X33256Y56444D1*
X33377Y56565D1*
X33439Y56687D1*
Y56930D1*
X33377Y57051D1*
X33256Y57173D1*
X33134Y57233D1*
X32164Y57747D2*
Y58414D1*
X32650Y58051D1*
Y58233D1*
X32710Y58354D1*
X32771Y58414D1*
X32953Y58476D1*
X33074D1*
X33256Y58414D1*
X33378Y58293D1*
X33439Y58111D1*
Y57928D1*
X33378Y57747D1*
X33317Y57687D1*
X33196Y57625D1*
X32407Y58868D2*
X32345Y58990D1*
X32164Y59173D1*
X33439D1*
X35006Y67755D2*
X34885Y67695D1*
X34763Y67573D1*
X34703Y67452D1*
Y67209D1*
X34763Y67087D1*
X34885Y66966D1*
X35006Y66904D1*
X35188Y66844D1*
X35493D1*
X35674Y66904D1*
X35796Y66966D1*
X35917Y67087D1*
X35979Y67209D1*
Y67452D1*
X35917Y67573D1*
X35796Y67695D1*
X35674Y67755D1*
X34704Y68269D2*
Y68936D1*
X35190Y68573D1*
Y68755D1*
X35250Y68876D1*
X35311Y68936D1*
X35493Y68998D1*
X35614D1*
X35796Y68936D1*
X35918Y68815D1*
X35979Y68633D1*
Y68450D1*
X35918Y68269D1*
X35857Y68209D1*
X35736Y68147D1*
X35007Y69452D2*
X34947D1*
X34825Y69512D1*
X34765Y69573D1*
X34704Y69695D1*
Y69938D1*
X34765Y70058D1*
X34825Y70119D1*
X34947Y70180D1*
X35068D1*
X35190Y70119D1*
X35371Y69998D1*
X35979Y69390D1*
Y70241D1*
X25210Y61209D2*
X25150Y61330D1*
X25028Y61452D1*
X24907Y61512D1*
X24664D1*
X24542Y61452D1*
X24421Y61330D1*
X24359Y61209D1*
X24299Y61027D1*
Y60722D1*
X24359Y60541D1*
X24421Y60419D1*
X24542Y60298D1*
X24664Y60236D1*
X24907D1*
X25028Y60298D1*
X25150Y60419D1*
X25210Y60541D1*
X25724Y61511D2*
X26391D1*
X26028Y61025D1*
X26210D1*
X26331Y60965D1*
X26391Y60905D1*
X26453Y60722D1*
Y60601D1*
X26391Y60419D1*
X26270Y60297D1*
X26088Y60236D1*
X25905D1*
X25724Y60297D1*
X25664Y60359D1*
X25602Y60479D1*
X26967Y61511D2*
X27634D1*
X27270Y61025D1*
X27453D1*
X27574Y60965D1*
X27634Y60905D1*
X27696Y60722D1*
Y60601D1*
X27634Y60419D1*
X27513Y60297D1*
X27331Y60236D1*
X27148D1*
X26967Y60297D1*
X26907Y60359D1*
X26845Y60479D1*
X28990Y74544D2*
X28929Y74665D1*
X28807Y74787D1*
X28687Y74847D1*
X28444D1*
X28322Y74787D1*
X28201Y74665D1*
X28139Y74544D1*
X28079Y74362D1*
Y74057D1*
X28139Y73876D1*
X28201Y73754D1*
X28322Y73633D1*
X28444Y73571D1*
X28687D1*
X28807Y73633D1*
X28929Y73754D1*
X28990Y73876D1*
X29504Y74846D2*
X30171D1*
X29807Y74360D1*
X29990D1*
X30111Y74300D1*
X30171Y74240D1*
X30233Y74057D1*
Y73936D1*
X30171Y73754D1*
X30050Y73632D1*
X29868Y73571D1*
X29685D1*
X29504Y73632D1*
X29444Y73694D1*
X29382Y73814D1*
X31233Y73571D2*
Y74846D1*
X30625Y73997D1*
X31536D1*
X23256Y41405D2*
X23135Y41345D1*
X23013Y41223D1*
X22953Y41102D1*
Y40859D1*
X23013Y40737D1*
X23135Y40616D1*
X23256Y40554D1*
X23438Y40494D1*
X23743D1*
X23924Y40554D1*
X24046Y40616D1*
X24167Y40737D1*
X24229Y40859D1*
Y41102D1*
X24167Y41223D1*
X24046Y41345D1*
X23924Y41405D1*
X22954Y41919D2*
Y42586D1*
X23440Y42223D1*
Y42405D1*
X23500Y42526D1*
X23560Y42586D1*
X23743Y42648D1*
X23864D1*
X24046Y42586D1*
X24168Y42466D1*
X24229Y42283D1*
Y42101D1*
X24168Y41919D1*
X24107Y41859D1*
X23986Y41797D1*
X22954Y43769D2*
Y43162D1*
X23500Y43102D1*
X23440Y43162D1*
X23378Y43345D1*
Y43526D1*
X23440Y43708D1*
X23560Y43831D1*
X23743Y43891D1*
X23864D1*
X24046Y43831D1*
X24168Y43708D1*
X24229Y43526D1*
Y43345D1*
X24168Y43162D1*
X24107Y43102D1*
X23986Y43040D1*
X26831Y31679D2*
X26771Y31800D1*
X26649Y31922D1*
X26528Y31982D1*
X26285D1*
X26163Y31922D1*
X26042Y31800D1*
X25980Y31679D1*
X25920Y31497D1*
Y31192D1*
X25980Y31011D1*
X26042Y30889D1*
X26163Y30768D1*
X26285Y30706D1*
X26528D1*
X26649Y30768D1*
X26771Y30889D1*
X26831Y31011D1*
X27345Y31981D2*
X28012D1*
X27649Y31495D1*
X27831D1*
X27952Y31435D1*
X28012Y31374D1*
X28074Y31192D1*
Y31071D1*
X28012Y30889D1*
X27891Y30767D1*
X27709Y30706D1*
X27526D1*
X27345Y30767D1*
X27285Y30828D1*
X27223Y30949D1*
X29195Y31800D2*
X29134Y31921D1*
X28952Y31981D1*
X28831D1*
X28649Y31921D1*
X28526Y31738D1*
X28466Y31435D1*
Y31132D1*
X28526Y30889D1*
X28649Y30767D1*
X28831Y30706D1*
X28891D1*
X29073Y30767D1*
X29195Y30889D1*
X29255Y31071D1*
Y31132D1*
X29195Y31314D1*
X29073Y31435D1*
X28891Y31495D1*
X28831D1*
X28649Y31435D1*
X28526Y31314D1*
X28466Y31132D1*
X34686Y31010D2*
X34565Y30950D1*
X34443Y30828D1*
X34383Y30707D1*
Y30464D1*
X34443Y30342D1*
X34565Y30221D1*
X34686Y30160D1*
X34868Y30099D1*
X35173D1*
X35354Y30160D1*
X35476Y30221D1*
X35597Y30342D1*
X35659Y30464D1*
Y30707D1*
X35597Y30828D1*
X35476Y30950D1*
X35354Y31010D1*
X34384Y31525D2*
Y32191D1*
X34870Y31828D1*
Y32010D1*
X34930Y32131D1*
X34990Y32191D1*
X35173Y32253D1*
X35294D1*
X35476Y32191D1*
X35598Y32071D1*
X35659Y31888D1*
Y31706D1*
X35598Y31525D1*
X35537Y31464D1*
X35416Y31402D1*
X35659Y32888D2*
X34384Y33496D1*
Y32645D1*
X31511Y29106D2*
X31390Y29046D1*
X31268Y28924D1*
X31208Y28803D1*
Y28560D1*
X31268Y28438D1*
X31390Y28317D1*
X31511Y28255D1*
X31693Y28195D1*
X31998D1*
X32179Y28255D1*
X32301Y28317D1*
X32422Y28438D1*
X32484Y28560D1*
Y28803D1*
X32422Y28924D1*
X32301Y29046D1*
X32179Y29106D1*
X31209Y29620D2*
Y30287D1*
X31695Y29924D1*
Y30106D1*
X31755Y30227D1*
X31815Y30287D1*
X31998Y30349D1*
X32119D1*
X32301Y30287D1*
X32423Y30166D1*
X32484Y29984D1*
Y29801D1*
X32423Y29620D1*
X32362Y29560D1*
X32241Y29498D1*
X31209Y31044D2*
X31269Y30863D1*
X31390Y30801D1*
X31512D1*
X31633Y30863D1*
X31695Y30984D1*
X31755Y31227D1*
X31815Y31409D1*
X31938Y31530D1*
X32058Y31590D1*
X32241D1*
X32362Y31530D1*
X32423Y31470D1*
X32484Y31287D1*
Y31044D1*
X32423Y30863D1*
X32362Y30801D1*
X32241Y30741D1*
X32058D1*
X31938Y30801D1*
X31815Y30924D1*
X31755Y31105D1*
X31695Y31348D1*
X31633Y31470D1*
X31512Y31530D1*
X31390D1*
X31269Y31470D1*
X31209Y31287D1*
Y31044D1*
X34216Y45014D2*
X34155Y45135D1*
X34033Y45257D1*
X33912Y45317D1*
X33669D1*
X33547Y45257D1*
X33427Y45135D1*
X33365Y45014D1*
X33304Y44832D1*
Y44527D1*
X33365Y44346D1*
X33427Y44224D1*
X33547Y44103D1*
X33669Y44041D1*
X33912D1*
X34033Y44103D1*
X34155Y44224D1*
X34216Y44346D1*
X34730Y45316D2*
X35397D1*
X35033Y44830D1*
X35216D1*
X35336Y44770D1*
X35397Y44709D1*
X35458Y44527D1*
Y44406D1*
X35397Y44224D1*
X35276Y44102D1*
X35093Y44041D1*
X34911D1*
X34730Y44102D1*
X34669Y44163D1*
X34608Y44284D1*
X36641Y44892D2*
X36579Y44709D1*
X36458Y44587D1*
X36276Y44527D1*
X36216D1*
X36033Y44587D1*
X35912Y44709D1*
X35851Y44892D1*
Y44952D1*
X35912Y45135D1*
X36033Y45256D1*
X36216Y45316D1*
X36276D1*
X36458Y45256D1*
X36579Y45135D1*
X36641Y44892D1*
Y44587D1*
X36579Y44284D1*
X36458Y44102D1*
X36276Y44041D1*
X36155D1*
X35973Y44102D1*
X35912Y44224D1*
X28990Y45334D2*
X28929Y45455D1*
X28807Y45577D1*
X28687Y45637D1*
X28444D1*
X28322Y45577D1*
X28201Y45455D1*
X28139Y45334D1*
X28079Y45152D1*
Y44847D1*
X28139Y44666D1*
X28201Y44544D1*
X28322Y44423D1*
X28444Y44361D1*
X28687D1*
X28807Y44423D1*
X28929Y44544D1*
X28990Y44666D1*
X29990Y44361D2*
Y45636D1*
X29382Y44787D1*
X30293D1*
X31050Y45636D2*
X30868Y45576D1*
X30746Y45393D1*
X30685Y45090D1*
Y44907D1*
X30746Y44604D1*
X30868Y44422D1*
X31050Y44361D1*
X31171D1*
X31353Y44422D1*
X31474Y44604D1*
X31536Y44907D1*
Y45090D1*
X31474Y45393D1*
X31353Y45576D1*
X31171Y45636D1*
X31050D1*
X31474Y45393D2*
X30746Y44604D1*
X43091Y72683D2*
Y71772D1*
X43151Y71589D1*
X43273Y71468D1*
X43456Y71407D1*
X43577D1*
X43759Y71468D1*
X43881Y71589D1*
X43942Y71772D1*
Y72683D1*
X44577Y71407D2*
X45184Y72681D1*
X44334D1*
X71666Y72048D2*
Y71137D1*
X71727Y70954D1*
X71849Y70833D1*
X72031Y70772D1*
X72152D1*
X72335Y70833D1*
X72457Y70954D1*
X72517Y71137D1*
Y72048D1*
X73213Y72046D2*
X73032Y71986D1*
X72970Y71865D1*
Y71743D1*
X73032Y71622D1*
X73152Y71560D1*
X73395Y71500D1*
X73578Y71440D1*
X73698Y71318D1*
X73759Y71197D1*
Y71014D1*
X73698Y70894D1*
X73638Y70832D1*
X73455Y70772D1*
X73213D1*
X73032Y70832D1*
X72970Y70894D1*
X72909Y71014D1*
Y71197D1*
X72970Y71318D1*
X73092Y71440D1*
X73273Y71500D1*
X73516Y71560D1*
X73638Y71622D1*
X73698Y71743D1*
Y71865D1*
X73638Y71986D1*
X73455Y72046D1*
X73213D1*
X45026Y54268D2*
Y53357D1*
X45086Y53174D1*
X45208Y53053D1*
X45391Y52992D1*
X45512D1*
X45694Y53053D1*
X45816Y53174D1*
X45877Y53357D1*
Y54268D1*
X47059Y53842D2*
X46997Y53660D1*
X46877Y53538D1*
X46694Y53477D1*
X46634D1*
X46451Y53538D1*
X46331Y53660D1*
X46269Y53842D1*
Y53903D1*
X46331Y54085D1*
X46451Y54206D1*
X46634Y54266D1*
X46694D1*
X46877Y54206D1*
X46997Y54085D1*
X47059Y53842D1*
Y53538D1*
X46997Y53234D1*
X46877Y53052D1*
X46694Y52992D1*
X46573D1*
X46391Y53052D1*
X46331Y53174D1*
X67507Y55538D2*
Y54627D1*
X67568Y54444D1*
X67690Y54323D1*
X67872Y54262D1*
X67993D1*
X68176Y54323D1*
X68298Y54444D1*
X68358Y54627D1*
Y55538D1*
X68750Y55293D2*
X68872Y55355D1*
X69055Y55536D1*
Y54262D1*
X69812Y55536D2*
X69630Y55476D1*
X69507Y55293D1*
X69447Y54990D1*
Y54808D1*
X69507Y54504D1*
X69630Y54322D1*
X69812Y54262D1*
X69933D1*
X70115Y54322D1*
X70236Y54504D1*
X70298Y54808D1*
Y54990D1*
X70236Y55293D1*
X70115Y55476D1*
X69933Y55536D1*
X69812D1*
X70236Y55293D2*
X69507Y54504D1*
X45555Y35218D2*
Y34307D1*
X45616Y34124D1*
X45738Y34003D1*
X45920Y33942D1*
X46041D1*
X46224Y34003D1*
X46346Y34124D1*
X46406Y34307D1*
Y35218D1*
X46798Y34973D2*
X46920Y35035D1*
X47103Y35216D1*
Y33942D1*
X47495Y34973D2*
X47617Y35035D1*
X47800Y35216D1*
Y33942D1*
X66872Y35853D2*
Y34942D1*
X66933Y34759D1*
X67055Y34638D1*
X67237Y34577D1*
X67358D1*
X67541Y34638D1*
X67663Y34759D1*
X67723Y34942D1*
Y35853D1*
X68115Y35608D2*
X68237Y35670D1*
X68420Y35851D1*
Y34577D1*
X68874Y35548D2*
Y35608D1*
X68934Y35730D1*
X68995Y35791D1*
X69117Y35851D1*
X69360D1*
X69480Y35791D1*
X69541Y35730D1*
X69602Y35608D1*
Y35488D1*
X69541Y35365D1*
X69420Y35184D1*
X68812Y34577D1*
X69663D1*
X61042Y21757D2*
Y20786D1*
X60982Y20604D1*
X60920Y20543D1*
X60799Y20481D1*
X60677D1*
X60556Y20543D1*
X60496Y20604D1*
X60434Y20786D1*
Y20907D1*
X61434Y21513D2*
X61556Y21575D1*
X61739Y21756D1*
Y20481D1*
X62131Y21513D2*
X62253Y21575D1*
X62436Y21756D1*
Y20481D1*
X100095Y28520D2*
X100641D1*
X100824Y28581D1*
X100885Y28642D1*
X100946Y28762D1*
Y28885D1*
X100885Y29005D1*
X100824Y29067D1*
X100641Y29127D1*
X100095D1*
Y27851D1*
X100520Y28520D2*
X100946Y27851D1*
X101460Y29126D2*
X102127D1*
X101763Y28640D1*
X101946D1*
X102067Y28580D1*
X102127Y28520D1*
X102189Y28337D1*
Y28216D1*
X102127Y28034D1*
X102006Y27912D1*
X101824Y27851D1*
X101641D1*
X101460Y27912D1*
X101400Y27974D1*
X101338Y28094D1*
X102884Y29126D2*
X102703Y29066D1*
X102641Y28945D1*
Y28823D1*
X102703Y28702D1*
X102824Y28640D1*
X103067Y28580D1*
X103249Y28520D1*
X103370Y28397D1*
X103430Y28277D1*
Y28094D1*
X103370Y27974D1*
X103309Y27912D1*
X103127Y27851D1*
X102884D1*
X102703Y27912D1*
X102641Y27974D1*
X102581Y28094D1*
Y28277D1*
X102641Y28397D1*
X102763Y28520D1*
X102944Y28580D1*
X103187Y28640D1*
X103309Y28702D1*
X103370Y28823D1*
Y28945D1*
X103309Y29066D1*
X103127Y29126D1*
X102884D1*
X100125Y36140D2*
X100671D1*
X100853Y36201D1*
X100915Y36262D1*
X100975Y36382D1*
Y36505D1*
X100915Y36625D1*
X100853Y36687D1*
X100671Y36747D1*
X100125D1*
Y35471D1*
X100550Y36140D2*
X100975Y35471D1*
X101490Y36746D2*
X102156D1*
X101793Y36260D1*
X101975D1*
X102096Y36200D1*
X102156Y36140D1*
X102218Y35957D1*
Y35836D1*
X102156Y35654D1*
X102036Y35532D1*
X101853Y35471D1*
X101671D1*
X101490Y35532D1*
X101429Y35594D1*
X101367Y35714D1*
X103401Y36322D2*
X103339Y36140D1*
X103218Y36017D1*
X103036Y35957D1*
X102975D1*
X102793Y36017D1*
X102672Y36140D1*
X102610Y36322D1*
Y36382D1*
X102672Y36565D1*
X102793Y36686D1*
X102975Y36746D1*
X103036D1*
X103218Y36686D1*
X103339Y36565D1*
X103401Y36322D1*
Y36017D1*
X103339Y35714D1*
X103218Y35532D1*
X103036Y35471D1*
X102915D1*
X102732Y35532D1*
X102672Y35654D1*
X100064Y43760D2*
X100610D1*
X100793Y43821D1*
X100855Y43882D1*
X100915Y44002D1*
Y44125D1*
X100855Y44245D1*
X100793Y44307D1*
X100610Y44367D1*
X100064D1*
Y43091D1*
X100490Y43760D2*
X100915Y43091D1*
X101915D2*
Y44366D1*
X101307Y43517D1*
X102218D1*
X102975Y44366D2*
X102793Y44306D1*
X102671Y44123D1*
X102610Y43820D1*
Y43637D1*
X102671Y43334D1*
X102793Y43152D1*
X102975Y43091D1*
X103096D1*
X103279Y43152D1*
X103399Y43334D1*
X103461Y43637D1*
Y43820D1*
X103399Y44123D1*
X103279Y44306D1*
X103096Y44366D1*
X102975D1*
X103399Y44123D2*
X102671Y43334D1*
X100337Y51380D2*
X100883D1*
X101066Y51441D1*
X101128Y51502D1*
X101188Y51622D1*
Y51745D1*
X101128Y51865D1*
X101066Y51927D1*
X100883Y51987D1*
X100337D1*
Y50711D1*
X100763Y51380D2*
X101188Y50711D1*
X102188D2*
Y51986D1*
X101580Y51137D1*
X102491D1*
X102883Y51743D2*
X103005Y51805D1*
X103188Y51986D1*
Y50711D1*
X100064Y59000D2*
X100610D1*
X100793Y59061D1*
X100855Y59122D1*
X100915Y59242D1*
Y59365D1*
X100855Y59485D1*
X100793Y59547D1*
X100610Y59607D1*
X100064D1*
Y58331D1*
X100490Y59000D2*
X100915Y58331D1*
X101915D2*
Y59606D1*
X101307Y58757D1*
X102218D1*
X102672Y59303D2*
Y59363D1*
X102732Y59485D1*
X102793Y59546D1*
X102915Y59606D1*
X103158D1*
X103279Y59546D1*
X103339Y59485D1*
X103401Y59363D1*
Y59242D1*
X103339Y59120D1*
X103218Y58939D1*
X102610Y58331D1*
X103461D1*
X100064Y66620D2*
X100610D1*
X100793Y66681D1*
X100855Y66742D1*
X100915Y66862D1*
Y66985D1*
X100855Y67105D1*
X100793Y67167D1*
X100610Y67227D1*
X100064D1*
Y65951D1*
X100490Y66620D2*
X100915Y65951D1*
X101915D2*
Y67226D1*
X101307Y66377D1*
X102218D1*
X102732Y67226D2*
X103399D1*
X103036Y66740D1*
X103218D1*
X103339Y66680D1*
X103399Y66620D1*
X103461Y66437D1*
Y66316D1*
X103399Y66134D1*
X103279Y66012D1*
X103096Y65951D1*
X102914D1*
X102732Y66012D1*
X102672Y66074D1*
X102610Y66194D1*
X100034Y74240D2*
X100580D1*
X100763Y74301D1*
X100824Y74362D1*
X100885Y74482D1*
Y74605D1*
X100824Y74725D1*
X100763Y74787D1*
X100580Y74847D1*
X100034D1*
Y73571D1*
X100459Y74240D2*
X100885Y73571D1*
X101885D2*
Y74846D1*
X101277Y73997D1*
X102188D1*
X103188Y73571D2*
Y74846D1*
X102580Y73997D1*
X103491D1*
X100064Y81860D2*
X100610D1*
X100793Y81921D1*
X100855Y81982D1*
X100915Y82102D1*
Y82225D1*
X100855Y82345D1*
X100793Y82407D1*
X100610Y82467D1*
X100064D1*
Y81191D1*
X100490Y81860D2*
X100915Y81191D1*
X101915D2*
Y82466D1*
X101307Y81617D1*
X102218D1*
X103339Y82466D2*
X102732D1*
X102672Y81920D1*
X102732Y81980D1*
X102915Y82042D1*
X103096D1*
X103279Y81980D1*
X103401Y81860D1*
X103461Y81677D1*
Y81556D1*
X103401Y81374D1*
X103279Y81252D1*
X103096Y81191D1*
X102915D1*
X102732Y81252D1*
X102672Y81314D1*
X102610Y81434D1*
X100095Y89480D2*
X100641D1*
X100824Y89541D1*
X100885Y89602D1*
X100946Y89722D1*
Y89845D1*
X100885Y89965D1*
X100824Y90027D1*
X100641Y90087D1*
X100095D1*
Y88811D1*
X100520Y89480D2*
X100946Y88811D1*
X101946D2*
Y90086D1*
X101338Y89237D1*
X102249D1*
X103370Y89905D2*
X103309Y90026D1*
X103127Y90086D1*
X103006D1*
X102824Y90026D1*
X102702Y89843D1*
X102641Y89540D1*
Y89237D1*
X102702Y88994D1*
X102824Y88872D1*
X103006Y88811D1*
X103067D1*
X103248Y88872D1*
X103370Y88994D1*
X103430Y89176D1*
Y89237D1*
X103370Y89419D1*
X103248Y89540D1*
X103067Y89600D1*
X103006D1*
X102824Y89540D1*
X102702Y89419D1*
X102641Y89237D1*
X100064Y97100D2*
X100610D1*
X100793Y97161D1*
X100855Y97222D1*
X100915Y97342D1*
Y97465D1*
X100855Y97585D1*
X100793Y97647D1*
X100610Y97707D1*
X100064D1*
Y96431D1*
X100490Y97100D2*
X100915Y96431D1*
X101915D2*
Y97706D1*
X101307Y96857D1*
X102218D1*
X102853Y96431D2*
X103461Y97706D1*
X102610D1*
X100065Y104720D2*
X100611D1*
X100793Y104781D1*
X100855Y104842D1*
X100916Y104962D1*
Y105085D1*
X100855Y105205D1*
X100793Y105267D1*
X100611Y105327D1*
X100065D1*
Y104051D1*
X100490Y104720D2*
X100916Y104051D1*
X101916D2*
Y105326D1*
X101308Y104477D1*
X102219D1*
X102914Y105326D2*
X102733Y105266D1*
X102671Y105145D1*
Y105023D1*
X102733Y104902D1*
X102854Y104840D1*
X103097Y104780D1*
X103279Y104720D1*
X103400Y104597D1*
X103460Y104477D1*
Y104294D1*
X103400Y104174D1*
X103340Y104112D1*
X103157Y104051D1*
X102914D1*
X102733Y104112D1*
X102671Y104174D1*
X102611Y104294D1*
Y104477D1*
X102671Y104597D1*
X102794Y104720D1*
X102975Y104780D1*
X103217Y104840D1*
X103340Y104902D1*
X103400Y105023D1*
Y105145D1*
X103340Y105266D1*
X103157Y105326D1*
X102914D1*
X80425Y73909D2*
X80364Y74030D1*
X80242Y74152D1*
X80122Y74212D1*
X79879D1*
X79757Y74152D1*
X79636Y74030D1*
X79574Y73909D1*
X79514Y73727D1*
Y73422D1*
X79574Y73241D1*
X79636Y73119D1*
X79757Y72998D1*
X79879Y72936D1*
X80122D1*
X80242Y72998D1*
X80364Y73119D1*
X80425Y73241D1*
X81425Y72936D2*
Y74211D1*
X80817Y73362D1*
X81728D1*
X82363Y72936D2*
X82971Y74211D1*
X82120D1*
X86141Y74544D2*
X86080Y74665D1*
X85958Y74787D1*
X85837Y74847D1*
X85594D1*
X85472Y74787D1*
X85352Y74665D1*
X85290Y74544D1*
X85229Y74362D1*
Y74057D1*
X85290Y73876D1*
X85352Y73754D1*
X85472Y73633D1*
X85594Y73571D1*
X85837D1*
X85958Y73633D1*
X86080Y73754D1*
X86141Y73876D1*
X87141Y73571D2*
Y74846D1*
X86533Y73997D1*
X87444D1*
X88139Y74846D2*
X87958Y74786D1*
X87896Y74665D1*
Y74543D1*
X87958Y74422D1*
X88079Y74360D1*
X88322Y74300D1*
X88504Y74240D1*
X88625Y74117D1*
X88685Y73997D1*
Y73814D1*
X88625Y73694D1*
X88565Y73632D1*
X88382Y73571D1*
X88139D1*
X87958Y73632D1*
X87896Y73694D1*
X87836Y73814D1*
Y73997D1*
X87896Y74117D1*
X88018Y74240D1*
X88200Y74300D1*
X88442Y74360D1*
X88565Y74422D1*
X88625Y74543D1*
Y74665D1*
X88565Y74786D1*
X88382Y74846D1*
X88139D1*
X92520Y74544D2*
X92460Y74665D1*
X92338Y74787D1*
X92217Y74847D1*
X91974D1*
X91852Y74787D1*
X91731Y74665D1*
X91669Y74544D1*
X91609Y74362D1*
Y74057D1*
X91669Y73876D1*
X91731Y73754D1*
X91852Y73633D1*
X91974Y73571D1*
X92217D1*
X92338Y73633D1*
X92460Y73754D1*
X92520Y73876D1*
X93520Y73571D2*
Y74846D1*
X92912Y73997D1*
X93823D1*
X95006Y74422D2*
X94944Y74240D1*
X94823Y74117D1*
X94641Y74057D1*
X94580D1*
X94398Y74117D1*
X94277Y74240D1*
X94215Y74422D1*
Y74482D1*
X94277Y74665D1*
X94398Y74786D1*
X94580Y74846D1*
X94641D1*
X94823Y74786D1*
X94944Y74665D1*
X95006Y74422D1*
Y74117D1*
X94944Y73814D1*
X94823Y73632D1*
X94641Y73571D1*
X94520D1*
X94338Y73632D1*
X94277Y73754D1*
X82631Y56960D2*
X82510Y56900D1*
X82388Y56778D1*
X82328Y56657D1*
Y56414D1*
X82388Y56292D1*
X82510Y56171D1*
X82631Y56109D1*
X82813Y56049D1*
X83118D1*
X83299Y56109D1*
X83421Y56171D1*
X83542Y56292D1*
X83604Y56414D1*
Y56657D1*
X83542Y56778D1*
X83421Y56900D1*
X83299Y56960D1*
X82329Y58081D2*
Y57474D1*
X82875Y57414D1*
X82815Y57474D1*
X82753Y57657D1*
Y57838D1*
X82815Y58020D1*
X82936Y58143D1*
X83118Y58203D1*
X83239D1*
X83421Y58143D1*
X83543Y58020D1*
X83604Y57838D1*
Y57657D1*
X83543Y57474D1*
X83482Y57414D1*
X83361Y57352D1*
X82329Y58960D2*
X82390Y58778D1*
X82572Y58655D1*
X82875Y58595D1*
X83058D1*
X83361Y58655D1*
X83543Y58778D1*
X83604Y58960D1*
Y59081D1*
X83543Y59263D1*
X83361Y59384D1*
X83058Y59446D1*
X82875D1*
X82572Y59384D1*
X82390Y59263D1*
X82329Y59081D1*
Y58960D1*
X82572Y59384D2*
X83361Y58655D1*
X91201Y58188D2*
X91080Y58128D1*
X90958Y58006D1*
X90898Y57885D1*
Y57642D1*
X90958Y57520D1*
X91080Y57399D1*
X91201Y57338D1*
X91383Y57277D1*
X91688D1*
X91869Y57338D1*
X91991Y57399D1*
X92112Y57520D1*
X92174Y57642D1*
Y57885D1*
X92112Y58006D1*
X91991Y58128D1*
X91869Y58188D1*
X90899Y59309D2*
Y58703D1*
X91445Y58642D1*
X91385Y58703D1*
X91323Y58885D1*
Y59066D1*
X91385Y59249D1*
X91505Y59371D1*
X91688Y59431D1*
X91809D1*
X91991Y59371D1*
X92113Y59249D1*
X92174Y59066D1*
Y58885D1*
X92113Y58703D1*
X92052Y58642D1*
X91931Y58580D1*
X91142Y59823D2*
X91080Y59945D1*
X90899Y60128D1*
X92174D1*
X86441Y56960D2*
X86320Y56900D1*
X86198Y56778D1*
X86138Y56657D1*
Y56414D1*
X86198Y56292D1*
X86320Y56171D1*
X86441Y56109D1*
X86623Y56049D1*
X86928D1*
X87109Y56109D1*
X87231Y56171D1*
X87352Y56292D1*
X87414Y56414D1*
Y56657D1*
X87352Y56778D1*
X87231Y56900D1*
X87109Y56960D1*
X86139Y58081D2*
Y57474D1*
X86685Y57414D1*
X86625Y57474D1*
X86563Y57657D1*
Y57838D1*
X86625Y58020D1*
X86746Y58143D1*
X86928Y58203D1*
X87049D1*
X87231Y58143D1*
X87353Y58020D1*
X87414Y57838D1*
Y57657D1*
X87353Y57474D1*
X87292Y57414D1*
X87171Y57352D1*
X86442Y58657D2*
X86382D1*
X86260Y58717D1*
X86200Y58778D1*
X86139Y58900D1*
Y59143D1*
X86200Y59263D1*
X86260Y59324D1*
X86382Y59385D1*
X86503D1*
X86625Y59324D1*
X86806Y59203D1*
X87414Y58595D1*
Y59446D1*
X81041Y43710D2*
X80920Y43650D1*
X80798Y43528D1*
X80738Y43407D1*
Y43164D1*
X80798Y43042D1*
X80920Y42921D1*
X81041Y42860D1*
X81223Y42799D1*
X81528D1*
X81709Y42860D1*
X81831Y42921D1*
X81952Y43042D1*
X82014Y43164D1*
Y43407D1*
X81952Y43528D1*
X81831Y43650D1*
X81709Y43710D1*
X80739Y44831D2*
Y44225D1*
X81285Y44164D1*
X81225Y44225D1*
X81163Y44407D1*
Y44588D1*
X81225Y44771D1*
X81345Y44893D1*
X81528Y44953D1*
X81649D1*
X81831Y44893D1*
X81953Y44771D1*
X82014Y44588D1*
Y44407D1*
X81953Y44225D1*
X81892Y44164D1*
X81771Y44102D1*
X80739Y45467D2*
Y46134D1*
X81225Y45771D1*
Y45953D1*
X81285Y46074D1*
X81345Y46134D1*
X81528Y46196D1*
X81649D1*
X81831Y46134D1*
X81953Y46014D1*
X82014Y45831D1*
Y45649D1*
X81953Y45467D1*
X81892Y45407D1*
X81771Y45345D1*
X90886Y44000D2*
X90765Y43940D1*
X90643Y43818D1*
X90583Y43697D1*
Y43454D1*
X90643Y43332D1*
X90765Y43211D1*
X90886Y43150D1*
X91068Y43089D1*
X91373D1*
X91554Y43150D1*
X91676Y43211D1*
X91797Y43332D1*
X91859Y43454D1*
Y43697D1*
X91797Y43818D1*
X91676Y43940D1*
X91554Y44000D1*
X90584Y45121D2*
Y44515D1*
X91130Y44454D1*
X91070Y44515D1*
X91008Y44697D1*
Y44878D1*
X91070Y45061D1*
X91191Y45183D1*
X91373Y45243D1*
X91494D1*
X91676Y45183D1*
X91798Y45061D1*
X91859Y44878D1*
Y44697D1*
X91798Y44515D1*
X91737Y44454D1*
X91616Y44392D1*
X91859Y46243D2*
X90584D1*
X91433Y45635D1*
Y46546D1*
X87711Y44030D2*
X87590Y43970D1*
X87468Y43848D1*
X87408Y43727D1*
Y43484D1*
X87468Y43362D1*
X87590Y43242D1*
X87711Y43180D1*
X87893Y43119D1*
X88198D1*
X88379Y43180D1*
X88501Y43242D1*
X88622Y43362D1*
X88684Y43484D1*
Y43727D1*
X88622Y43848D1*
X88501Y43970D1*
X88379Y44030D1*
X87409Y45151D2*
Y44545D1*
X87955Y44484D1*
X87895Y44545D1*
X87833Y44727D1*
Y44908D1*
X87895Y45091D1*
X88016Y45213D1*
X88198Y45273D1*
X88319D1*
X88501Y45213D1*
X88623Y45091D1*
X88684Y44908D1*
Y44727D1*
X88623Y44545D1*
X88562Y44484D1*
X88441Y44423D1*
X87409Y46394D2*
Y45788D1*
X87955Y45727D1*
X87895Y45788D1*
X87833Y45970D1*
Y46151D1*
X87895Y46334D1*
X88016Y46456D1*
X88198Y46516D1*
X88319D1*
X88501Y46456D1*
X88623Y46334D1*
X88684Y46151D1*
Y45970D1*
X88623Y45788D1*
X88562Y45727D1*
X88441Y45666D1*
X81121Y32634D2*
X81061Y32755D1*
X80938Y32877D1*
X80818Y32937D1*
X80575D1*
X80453Y32877D1*
X80332Y32755D1*
X80270Y32634D1*
X80210Y32452D1*
Y32147D1*
X80270Y31966D1*
X80332Y31844D1*
X80453Y31723D1*
X80575Y31661D1*
X80818D1*
X80938Y31723D1*
X81061Y31844D1*
X81121Y31966D1*
X82242Y32936D2*
X81635D1*
X81575Y32390D1*
X81635Y32450D1*
X81818Y32512D1*
X81999D1*
X82181Y32450D1*
X82303Y32330D1*
X82364Y32147D1*
Y32026D1*
X82303Y31844D1*
X82181Y31722D1*
X81999Y31661D1*
X81818D1*
X81635Y31722D1*
X81575Y31784D1*
X81513Y31904D1*
X83485Y32755D2*
X83424Y32876D1*
X83242Y32936D1*
X83121D1*
X82938Y32876D1*
X82816Y32693D1*
X82756Y32390D1*
Y32087D1*
X82816Y31844D1*
X82938Y31722D1*
X83121Y31661D1*
X83181D1*
X83362Y31722D1*
X83485Y31844D1*
X83545Y32026D1*
Y32087D1*
X83485Y32269D1*
X83362Y32390D1*
X83181Y32450D1*
X83121D1*
X82938Y32390D1*
X82816Y32269D1*
X82756Y32087D1*
X86170Y32634D2*
X86110Y32755D1*
X85988Y32877D1*
X85867Y32937D1*
X85624D1*
X85502Y32877D1*
X85381Y32755D1*
X85319Y32634D1*
X85259Y32452D1*
Y32147D1*
X85319Y31966D1*
X85381Y31844D1*
X85502Y31723D1*
X85624Y31661D1*
X85867D1*
X85988Y31723D1*
X86110Y31844D1*
X86170Y31966D1*
X87291Y32936D2*
X86684D1*
X86624Y32390D1*
X86684Y32450D1*
X86867Y32512D1*
X87048D1*
X87230Y32450D1*
X87353Y32330D1*
X87413Y32147D1*
Y32026D1*
X87353Y31844D1*
X87230Y31722D1*
X87048Y31661D1*
X86867D1*
X86684Y31722D1*
X86624Y31784D1*
X86562Y31904D1*
X88048Y31661D2*
X88656Y32936D1*
X87805D1*
X91251Y32634D2*
X91190Y32755D1*
X91068Y32877D1*
X90948Y32937D1*
X90705D1*
X90583Y32877D1*
X90462Y32755D1*
X90400Y32634D1*
X90340Y32452D1*
Y32147D1*
X90400Y31966D1*
X90462Y31844D1*
X90583Y31723D1*
X90705Y31661D1*
X90948D1*
X91068Y31723D1*
X91190Y31844D1*
X91251Y31966D1*
X92371Y32936D2*
X91765D1*
X91705Y32390D1*
X91765Y32450D1*
X91948Y32512D1*
X92129D1*
X92311Y32450D1*
X92433Y32330D1*
X92494Y32147D1*
Y32026D1*
X92433Y31844D1*
X92311Y31722D1*
X92129Y31661D1*
X91948D1*
X91765Y31722D1*
X91705Y31784D1*
X91643Y31904D1*
X93189Y32936D2*
X93008Y32876D1*
X92946Y32755D1*
Y32633D1*
X93008Y32512D1*
X93129Y32450D1*
X93372Y32390D1*
X93554Y32330D1*
X93675Y32207D1*
X93735Y32087D1*
Y31904D1*
X93675Y31784D1*
X93614Y31722D1*
X93432Y31661D1*
X93189D1*
X93008Y31722D1*
X92946Y31784D1*
X92886Y31904D1*
Y32087D1*
X92946Y32207D1*
X93068Y32330D1*
X93249Y32390D1*
X93492Y32450D1*
X93614Y32512D1*
X93675Y32633D1*
Y32755D1*
X93614Y32876D1*
X93432Y32936D1*
X93189D1*
X50281Y14835D2*
X50160Y14775D1*
X50038Y14653D1*
X49978Y14532D1*
Y14289D1*
X50038Y14167D1*
X50160Y14046D1*
X50281Y13985D1*
X50463Y13924D1*
X50768D1*
X50949Y13985D1*
X51071Y14046D1*
X51192Y14167D1*
X51254Y14289D1*
Y14532D1*
X51192Y14653D1*
X51071Y14775D1*
X50949Y14835D1*
X49979Y15956D2*
Y15350D1*
X50525Y15289D1*
X50465Y15350D1*
X50403Y15532D1*
Y15713D1*
X50465Y15896D1*
X50586Y16018D1*
X50768Y16078D1*
X50889D1*
X51071Y16018D1*
X51193Y15896D1*
X51254Y15713D1*
Y15532D1*
X51193Y15350D1*
X51132Y15289D1*
X51011Y15228D1*
X50403Y17261D2*
X50586Y17199D1*
X50708Y17078D1*
X50768Y16896D1*
Y16835D1*
X50708Y16653D1*
X50586Y16532D1*
X50403Y16470D1*
X50343D1*
X50160Y16532D1*
X50040Y16653D1*
X49979Y16835D1*
Y16896D1*
X50040Y17078D1*
X50160Y17199D1*
X50403Y17261D1*
X50708D1*
X51011Y17199D1*
X51193Y17078D1*
X51254Y16896D1*
Y16775D1*
X51193Y16593D1*
X51071Y16532D1*
X100094Y20900D2*
X100640D1*
X100823Y20961D1*
X100885Y21022D1*
X100945Y21142D1*
Y21265D1*
X100885Y21385D1*
X100823Y21447D1*
X100640Y21507D1*
X100094D1*
Y20231D1*
X100520Y20900D2*
X100945Y20231D1*
X101459Y21506D2*
X102126D1*
X101763Y21020D1*
X101945D1*
X102066Y20960D1*
X102126Y20900D1*
X102188Y20717D1*
Y20596D1*
X102126Y20414D1*
X102005Y20292D1*
X101823Y20231D1*
X101640D1*
X101459Y20292D1*
X101399Y20354D1*
X101337Y20474D1*
X102823Y20231D2*
X103431Y21506D1*
X102580D1*
X23978Y13240D2*
D61*
X24366Y11879D1*
X24755Y13240D1*
X25143Y11879D1*
X25532Y13240D1*
X26159D2*
X26548Y11879D1*
X26937Y13240D1*
X27325Y11879D1*
X27714Y13240D1*
X28341D2*
X28730Y11879D1*
X29118Y13240D1*
X29507Y11879D1*
X29896Y13240D1*
X30620Y12074D2*
X30523Y11975D1*
X30620Y11879D1*
X30718Y11975D1*
X30620Y12074D1*
X32512Y13920D2*
Y11879D1*
Y12948D2*
X32318Y13143D1*
X32123Y13240D1*
X31831D1*
X31638Y13143D1*
X31442Y12948D1*
X31346Y12656D1*
Y12463D1*
X31442Y12171D1*
X31638Y11977D1*
X31831Y11879D1*
X32123D1*
X32318Y11977D1*
X32512Y12171D1*
X34305Y13240D2*
Y11879D1*
Y12948D2*
X34112Y13143D1*
X33916Y13240D1*
X33626D1*
X33431Y13143D1*
X33238Y12948D1*
X33139Y12656D1*
Y12463D1*
X33238Y12171D1*
X33431Y11977D1*
X33626Y11879D1*
X33916D1*
X34112Y11977D1*
X34305Y12171D1*
X35224Y13920D2*
Y12267D1*
X35321Y11977D1*
X35516Y11879D1*
X35709D1*
X34932Y13240D2*
X35613D1*
X36822D2*
X36629Y13143D1*
X36433Y12948D1*
X36337Y12656D1*
Y12463D1*
X36433Y12171D1*
X36629Y11977D1*
X36822Y11879D1*
X37114D1*
X37309Y11977D1*
X37503Y12171D1*
X37601Y12463D1*
Y12656D1*
X37503Y12948D1*
X37309Y13143D1*
X37114Y13240D1*
X36822D1*
X38229D2*
Y11879D1*
Y12656D2*
X38328Y12948D1*
X38521Y13143D1*
X38716Y13240D1*
X39008D1*
X39636D2*
Y11879D1*
Y12851D2*
X39928Y13143D1*
X40123Y13240D1*
X40413D1*
X40608Y13143D1*
X40705Y12851D1*
Y11879D1*
Y12851D2*
X40997Y13143D1*
X41192Y13240D1*
X41482D1*
X41678Y13143D1*
X41776Y12851D1*
Y11879D1*
X42404Y13240D2*
Y12267D1*
X42500Y11977D1*
X42696Y11879D1*
X42988D1*
X43181Y11977D1*
X43473Y12267D1*
Y13240D2*
Y11879D1*
X45170Y12948D2*
X45073Y13143D1*
X44781Y13240D1*
X44489D1*
X44197Y13143D1*
X44100Y12948D1*
X44197Y12755D1*
X44392Y12656D1*
X44878Y12559D1*
X45073Y12463D1*
X45170Y12267D1*
Y12171D1*
X45073Y11977D1*
X44781Y11879D1*
X44489D1*
X44197Y11977D1*
X44100Y12171D1*
X45797Y12656D2*
X46963D1*
Y12851D1*
X46866Y13047D1*
X46770Y13143D1*
X46574Y13240D1*
X46282D1*
X46089Y13143D1*
X45894Y12948D1*
X45797Y12656D1*
Y12463D1*
X45894Y12171D1*
X46089Y11977D1*
X46282Y11879D1*
X46574D1*
X46770Y11977D1*
X46963Y12171D1*
X47590Y13240D2*
Y12267D1*
X47687Y11977D1*
X47882Y11879D1*
X48174D1*
X48367Y11977D1*
X48659Y12267D1*
Y13240D2*
Y11879D1*
X49287Y13240D2*
Y11879D1*
Y12851D2*
X49579Y13143D1*
X49774Y13240D1*
X50064D1*
X50259Y13143D1*
X50356Y12851D1*
Y11879D1*
Y12851D2*
X50648Y13143D1*
X50843Y13240D1*
X51133D1*
X51329Y13143D1*
X51427Y12851D1*
Y11879D1*
X52151Y12074D2*
X52055Y11975D1*
X52151Y11879D1*
X52250Y11975D1*
X52151Y12074D1*
X53947Y12948D2*
X53850Y13143D1*
X53558Y13240D1*
X53266D1*
X52974Y13143D1*
X52878Y12948D1*
X52974Y12755D1*
X53170Y12656D1*
X53655Y12559D1*
X53850Y12463D1*
X53947Y12267D1*
Y12171D1*
X53850Y11977D1*
X53558Y11879D1*
X53266D1*
X52974Y11977D1*
X52878Y12171D1*
X54574Y12656D2*
X55740D1*
Y12851D1*
X55644Y13047D1*
X55547Y13143D1*
X55352Y13240D1*
X55060D1*
X54866Y13143D1*
X54671Y12948D1*
X54574Y12656D1*
Y12463D1*
X54671Y12171D1*
X54866Y11977D1*
X55060Y11879D1*
X55352D1*
X55547Y11977D1*
X55740Y12171D1*
M02*
