M48
METRIC,0000.00
T01C0.486
T02C0.711
T03C0.9
T04C1.0
%
T01
X+002626Y+006223
X+002412Y+006462
X+002964Y+006091
X+002973Y+005621
X+003641Y+005604
X+003781Y+005918
X+004144Y+005918
X+004144Y+006124
X+003814Y+006405
X+003707Y+006545
X+003542Y+006735
X+003921Y+006784
X+004202Y+007155
X+004524Y+007155
X+004639Y+007254
X+004639Y+007601
X+004202Y+007601
X+003624Y+007362
X+003245Y+007172
X+003096Y+007056
X+003063Y+006809
X+002907Y+007386
X+002766Y+007386
X+003096Y+007494
X+003245Y+007989
X+003014Y+008178
X+003121Y+008682
X+003245Y+008937
X+004086Y+009193
X+004136Y+009952
X+004788Y+009952
X+004911Y+008426
X+006165Y+009193
X+007032Y+009193
X+007139Y+009449
X+006726Y+010208
X+008343Y+009952
X+008814Y+010464
X+009119Y+008426
X+008979Y+008170
X+008748Y+007923
X+008706Y+007386
X+008979Y+007230
X+009144Y+007023
X+009375Y+007023
X+009342Y+007386
X+009234Y+007551
X+008731Y+007023
X+008591Y+007023
X+008731Y+006743
X+009193Y+006660
X+008682Y+006149
X+008154Y+006264
X+008046Y+006108
X+008154Y+005893
X+007799Y+005703
X+007543Y+005703
X+007543Y+005439
X+007749Y+005439
X+007857Y+005043
X+007485Y+005068
X+007485Y+004664
X+007857Y+004664
X+007964Y+004565
X+008558Y+004400
X+008665Y+004557
X+008698Y+004227
X+008715Y+004045
X+008327Y+003608
X+007939Y+003567
X+007939Y+003072
X+007807Y+002973
X+007485Y+003237
X+007378Y+003096
X+006850Y+003327
X+006487Y+003509
X+006768Y+003740
X+006768Y+003946
X+006487Y+003946
X+006050Y+004062
X+005827Y+003674
X+005646Y+003550
X+005266Y+003055
X+005126Y+003162
X+004664Y+003294
X+004152Y+002907
X+004004Y+003039
X+003905Y+002931
X+003674Y+002725
X+003379Y+002417
X+003063Y+002667
X+003220Y+003047
X+003021Y+003286
X+002568Y+003410
X+002403Y+003517
X+002040Y+004037
X+002395Y+004177
X+002750Y+004169
X+003063Y+003888
X+003542Y+003666
X+004152Y+004268
X+004144Y+004441
X+003847Y+004581
X+003492Y+004532
X+003385Y+004647
X+003096Y+004911
X+003360Y+005068
X+004144Y+004911
X+004590Y+004598
X+004845Y+004227
X+004911Y+004086
X+004746Y+003954
X+005332Y+004565
X+005118Y+005068
X+005225Y+005291
X+005118Y+005497
X+004911Y+005679
X+004482Y+005778
X+004620Y+005192
X+005118Y+006273
X+004911Y+006660
X+006669Y+006215
X+006784Y+006000
X+006784Y+006586
X+007543Y+007089
X+007609Y+007362
X+007832Y+007485
X+008154Y+007659
X+007362Y+007469
X+007246Y+007568
X+007345Y+007923
X+007139Y+008170
X+007749Y+006842
X+007799Y+006603
X+007914Y+006339
X+008154Y+006636
X+009177Y+005761
X+008937Y+005439
X+008665Y+004944
X+009408Y+004812
X+009333Y+004210
X+009548Y+004045
X+008756Y+003352
X+008896Y+003195
X+008962Y+003039
X+008962Y+002593
X+008591Y+002593
X+008451Y+002593
X+008327Y+002700
X+008838Y+001892
X+006776Y+002816
X+006380Y+002461
X+006190Y+002593
X+006190Y+002849
X+005431Y+002659
X+005151Y+002403
X+004590Y+002527
X+003979Y+002354
X+006512Y+004441
X+006941Y+005299
X+009927Y+006446
X+010175Y+007494
X+002766Y+010274
X+001892Y+007007
X+001859Y+005489
T02
X+001318Y+001509
X+001572Y+001509
X+001572Y+002271
X+001318Y+002271
X+001318Y+003033
X+001572Y+003033
X+001572Y+003795
X+001318Y+003795
X+001318Y+004557
X+001572Y+004557
X+001572Y+005319
X+001318Y+005319
X+001318Y+006081
X+001572Y+006081
X+001572Y+006843
X+001318Y+006843
X+001318Y+007605
X+001572Y+007605
X+001572Y+008367
X+001318Y+008367
X+001318Y+009129
X+001572Y+009129
X+001572Y+009891
X+001318Y+009891
X+010335Y+009891
X+010589Y+009891
X+010589Y+009129
X+010335Y+009129
X+010335Y+008367
X+010589Y+008367
X+010589Y+007605
X+010335Y+007605
X+010335Y+006843
X+010589Y+006843
X+010589Y+006081
X+010335Y+006081
X+010335Y+005319
X+010589Y+005319
X+010589Y+004557
X+010335Y+004557
X+010335Y+003795
X+010589Y+003795
X+010589Y+003033
X+010335Y+003033
X+010335Y+002271
X+010589Y+002271
X+010589Y+001509
X+010335Y+001509
T03
X+005319Y+010589
X+005319Y+010335
X+005319Y+010081
X+005319Y+009827
X+005319Y+009573
X+005319Y+009319
X+005319Y+009065
X+005319Y+008811
X+005319Y+008557
X+005319Y+008303
X+005319Y+008049
X+005319Y+007795
X+004557Y+007795
X+004557Y+008049
X+004303Y+008049
X+004303Y+007795
X+004303Y+008303
X+004303Y+008557
X+004303Y+008811
X+004303Y+009065
X+004303Y+009319
X+004303Y+009573
X+004303Y+009827
X+004303Y+010081
X+004303Y+010335
X+004557Y+010335
X+004557Y+010081
X+004557Y+009827
X+004557Y+009573
X+004557Y+009319
X+004557Y+009065
X+004557Y+008811
X+004557Y+008557
X+004557Y+008303
X+003541Y+008303
X+003541Y+008557
X+003541Y+008811
X+003541Y+009065
X+003541Y+009319
X+003541Y+009573
X+003541Y+009827
X+003541Y+010081
X+003541Y+010335
X+003541Y+010589
X+004303Y+010589
X+004557Y+010589
X+006843Y+010589
X+006843Y+010335
X+006843Y+010081
X+006843Y+009827
X+006843Y+009573
X+006843Y+009319
X+006843Y+009065
X+006843Y+008811
X+006843Y+008557
X+006843Y+008303
X+006843Y+008049
X+006843Y+007795
X+007605Y+007795
X+007605Y+008049
X+007605Y+008303
X+007605Y+008557
X+007605Y+008811
X+007605Y+009065
X+007605Y+009319
X+007605Y+009573
X+007605Y+009827
X+007605Y+010081
X+007605Y+010335
X+007859Y+010335
X+007859Y+010081
X+007859Y+009827
X+007859Y+009573
X+007859Y+009319
X+007859Y+009065
X+007859Y+008811
X+007859Y+008557
X+007859Y+008303
X+007859Y+008049
X+007859Y+007795
X+008621Y+007795
X+008621Y+008049
X+008621Y+008303
X+008621Y+008557
X+008621Y+008811
X+008621Y+009065
X+008621Y+009319
X+008621Y+009573
X+008621Y+009827
X+008621Y+010081
X+008621Y+010335
X+008621Y+010589
X+007859Y+010589
X+007605Y+010589
X+009637Y+009891
X+009891Y+009891
X+009891Y+009129
X+009637Y+009129
X+009637Y+008367
X+009891Y+008367
X+009891Y+007605
X+009637Y+007605
X+009637Y+006843
X+009891Y+006843
X+009891Y+006081
X+009637Y+006081
X+009637Y+005319
X+009891Y+005319
X+009891Y+004557
X+009637Y+004557
X+009637Y+003795
X+009891Y+003795
X+009891Y+003033
X+009637Y+003033
X+009637Y+002271
X+009891Y+002271
X+009891Y+001509
X+009637Y+001509
X+002271Y+001509
X+002017Y+001509
X+002017Y+002271
X+002271Y+002271
X+002271Y+003033
X+002017Y+003033
X+002017Y+003795
X+002271Y+003795
X+002271Y+004557
X+002017Y+004557
X+002017Y+005319
X+002271Y+005319
X+002271Y+006081
X+002017Y+006081
X+002017Y+006843
X+002271Y+006843
X+002271Y+007605
X+002017Y+007605
X+002017Y+008367
X+002271Y+008367
X+002271Y+009129
X+002017Y+009129
X+002017Y+009891
X+002271Y+009891
X+003541Y+008049
X+003541Y+007795
T04
X+006206Y+001890G85X+005956Y+001890
X+006551Y+001465G85X+006551Y+001715
X+006181Y+001290G85X+005981Y+001290
T00
M30
