G04 DipTrace 2.3.1.0*
%INLOGICCOMP.GTL*%
%MOMM*%
%ADD13C,0.508*%
%ADD14C,0.33*%
%ADD15C,0.635*%
%ADD16R,1.5X1.5*%
%ADD17C,1.5*%
%ADD18C,1.27*%
%ADD19R,1.27X1.27*%
%ADD20R,2.0X0.6*%
%ADD21R,1.6X1.6*%
%ADD22C,1.6*%
%ADD23R,1.3X1.5*%
%ADD24R,1.5X1.3*%
%ADD25O,4.5X2.0*%
%ADD26O,2.0X4.5*%
%ADD27R,2.7X1.6*%
%ADD28C,1.016*%
%FSLAX53Y53*%
G04*
G71*
G90*
G75*
G01*
%LNTop*%
%LPD*%
X60808Y18898D2*
D13*
Y16993D1*
X53188D1*
X44823Y57775D2*
X43420Y59178D1*
X41440D1*
X60498Y40615D2*
X58482Y38599D1*
Y36949D1*
X58270Y36738D1*
X41440Y61240D2*
X39562D1*
Y62713D1*
X41438D1*
X65118Y44410D2*
X63781D1*
Y45568D1*
X66203D1*
X41440Y49113D2*
X30963D1*
X26260Y62230D2*
X26413Y62078D1*
X28103D1*
X61900Y25930D2*
X61948Y25883D1*
X65568D1*
X87540Y33503D2*
X85253D1*
X30205Y32868D2*
X28103D1*
X41440Y44410D2*
X41553Y44298D1*
X43343D1*
X45873Y25248D2*
X43978D1*
X66685Y62148D2*
X66755Y62078D1*
X70013D1*
X90018Y45568D2*
X91352D1*
Y42892D1*
X92237Y42007D1*
Y41123D1*
X90653D1*
X37313Y69693D2*
Y71629D1*
X36475Y72467D1*
X35429D1*
X34591Y73305D1*
Y74295D1*
X35251Y74955D1*
X39307D1*
X41395Y72866D1*
X43921D1*
X45235Y71553D1*
X34591Y74295D2*
X33931Y74955D1*
X30982D1*
X60808Y12898D2*
X56648D1*
X55353Y14193D1*
X53188D1*
X75430Y57033D2*
X77988D1*
X22708Y45568D2*
Y44181D1*
X23546Y43343D1*
X25562D1*
X30958Y43028D2*
Y41673D1*
X31919Y40712D1*
Y41372D1*
X33822D1*
Y42707D1*
X22708Y30328D2*
X24092D1*
X24471Y30706D1*
X28738D1*
Y29372D1*
X89620Y25930D2*
X85908D1*
X36408Y56043D2*
Y58898D1*
X34773D1*
X56455Y35500D2*
X59362D1*
X61260Y37398D1*
X67675D1*
X30958Y72238D2*
Y70568D1*
X52660Y30550D2*
Y32030D1*
X51822Y32868D1*
X49378D1*
X31919Y40712D2*
Y40488D1*
X33503D1*
X75430Y54393D2*
X74225Y53188D1*
X71603D1*
X75430Y70893D2*
X76997D1*
Y69698D1*
X75413D1*
X77988Y66025D2*
X78819D1*
X79327Y66533D1*
Y67524D1*
X80493Y68690D1*
Y71603D1*
X96368Y30328D2*
X93188D1*
X46203Y51918D2*
X48743D1*
X45235Y71553D2*
Y70841D1*
X45743Y70333D1*
X46838D1*
X70968Y33503D2*
X80290D1*
X81128Y32665D1*
Y30328D1*
X68500Y33273D2*
X68730Y33503D1*
X70968D1*
X30943Y74955D2*
X26513D1*
Y72238D1*
X91765Y57610D2*
X92019Y57864D1*
X93507D1*
Y57953D1*
X88748Y58898D2*
X90478D1*
X91765Y57610D1*
X84938Y56998D2*
X86272D1*
Y58060D1*
X87110Y58898D1*
X88748D1*
X77988Y57033D2*
X78023Y56998D1*
X84938D1*
X33822Y42707D2*
Y46445D1*
X33850Y46473D1*
X33817Y28742D2*
Y24202D1*
X33787Y24172D1*
X28738Y29372D2*
X31410D1*
X32040Y28742D1*
X33817D1*
X93193Y45568D2*
X91352D1*
X96368D2*
X93193D1*
X92558Y72238D2*
Y73355D1*
X93066Y73863D1*
X93415D1*
X90018Y69063D2*
X92493D1*
X92590Y69160D1*
X92558Y69193D1*
Y72238D1*
X85908Y70233D2*
X86208D1*
Y69063D1*
X90018D1*
X86208Y72238D2*
X86162D1*
Y70487D1*
X85908Y70233D1*
X30963Y70563D2*
X31828Y69698D1*
X33503D1*
X71603Y53188D2*
X69605D1*
X69408Y52990D1*
X86650Y45565D2*
X86332Y45247D1*
X83347D1*
X89620Y30385D2*
X89563Y30328D1*
X88108D1*
X29692Y58903D2*
X27148D1*
X29725Y56208D2*
X29692Y56240D1*
Y58903D1*
X36738Y27250D2*
X36992Y27505D1*
Y30647D1*
X20168Y15088D2*
D14*
X15723D1*
Y18898D1*
X16993D1*
X15723Y22708D2*
Y26518D1*
X16993D1*
X20168Y22708D2*
X15723D1*
Y30328D2*
Y34138D1*
X16993D1*
X20168Y30328D2*
X15723D1*
Y37948D2*
Y41758D1*
X16993D1*
X20168Y37948D2*
X15723D1*
Y45568D2*
Y49378D1*
X16993D1*
Y46228D1*
X17653Y45568D1*
X20168D1*
X15723Y53188D2*
Y56998D1*
X16993D1*
X20168Y53188D2*
X15723D1*
Y60808D2*
Y64618D1*
X16993D1*
X20168Y60808D2*
X15723D1*
Y68428D2*
Y72238D1*
X16993D1*
X20168Y68428D2*
X15723D1*
Y76048D2*
Y79858D1*
X16993D1*
Y76708D1*
X17653Y76048D1*
X20168D1*
X15723Y83668D2*
Y87478D1*
X16993D1*
X20168Y83668D2*
X15723D1*
Y91288D2*
Y95098D1*
X16993D1*
X20168Y91288D2*
X15723D1*
Y98908D2*
Y102718D1*
X16993D1*
X20168Y98908D2*
X15723D1*
X27663Y73863D2*
Y71153D1*
X27003Y70493D1*
X26608D1*
Y69698D1*
X28103D1*
X27643Y102718D2*
X18893D1*
Y95098D2*
X23343D1*
X24003Y94438D1*
Y89383D1*
X23343Y88723D1*
X14973D1*
X14313Y88063D1*
Y67793D1*
X14973Y67133D1*
X28103D1*
X18893Y87478D2*
X24663D1*
X25323Y88138D1*
Y95683D1*
X24663Y96343D1*
X12713D1*
X12053Y95683D1*
Y66523D1*
X12713Y65863D1*
X25285D1*
X26530Y64618D1*
X28103D1*
X32448Y71718D2*
X34338D1*
X34998Y71058D1*
Y68428D1*
X33503D1*
X32448Y79885D2*
X32420Y79858D1*
X18893D1*
X30633Y68088D2*
Y66548D1*
X31293Y65888D1*
X33503D1*
X18918Y70068D2*
X18893Y70093D1*
Y72238D1*
X29643Y60910D2*
Y62688D1*
X30303Y63348D1*
X33503D1*
X24110Y64618D2*
X18893D1*
X20403Y40368D2*
X20472Y40298D1*
X28103D1*
Y40488D1*
X18588Y54888D2*
X18893Y55193D1*
Y56998D1*
X28103Y37948D2*
X24890D1*
X23115Y36173D1*
X14973D1*
X14313Y36833D1*
Y49963D1*
X14973Y50623D1*
X18893D1*
Y49378D1*
X24033Y35170D2*
X24270Y35408D1*
X28103D1*
X23938Y41758D2*
X18893D1*
X33503Y34138D2*
X35062D1*
Y19558D1*
X34402Y18898D1*
X18893D1*
X35395Y36678D2*
X33503D1*
X30633Y26673D2*
X30619Y26518D1*
X18893D1*
X33503Y39218D2*
X31636D1*
Y32283D1*
X30976Y31623D1*
X19553D1*
X18893Y32283D1*
Y34138D1*
X42018Y76008D2*
X25273D1*
X24613Y75348D1*
Y72238D1*
X42018Y71553D2*
X39943D1*
Y70333D1*
X41438D1*
X24613Y72238D2*
Y69088D1*
X25273Y68428D1*
X28103D1*
X29065Y73863D2*
Y72238D1*
X46390Y72543D2*
X47673D1*
X48333Y71883D1*
Y69063D1*
X46838D1*
X29058Y72238D2*
Y70763D1*
X29598Y70223D1*
Y65888D1*
X28103D1*
X31213Y86818D2*
X53773D1*
X54433Y86158D1*
Y76668D1*
X53773Y76008D1*
X46390D1*
X28103Y63348D2*
X25908D1*
X25248Y62688D1*
Y58903D1*
Y54571D1*
X25908Y53911D1*
X52178D1*
Y60402D1*
X51518Y61062D1*
X46003D1*
X45343Y61722D1*
Y65253D1*
X46838D1*
X51175Y54970D2*
X32252D1*
X31592Y55630D1*
Y58903D1*
Y62078D1*
X33503D1*
X51175Y50680D2*
X51143Y50648D1*
X48743D1*
X33503Y64618D2*
X35358D1*
X36018Y63958D1*
Y62573D1*
X36678Y61913D1*
X38410Y60181D1*
X42273D1*
X42933Y60841D1*
Y66523D1*
X41438D1*
X36678Y61913D2*
X34807Y60043D1*
X33528D1*
Y56998D1*
X34773D1*
X49113Y40863D2*
X50116Y41866D1*
Y42773D1*
X49456Y43433D1*
X47228D1*
Y46838D1*
X48743D1*
X37810Y59178D2*
X40216Y56772D1*
X49100D1*
X35418Y67345D2*
X35583Y67510D1*
X37313D1*
Y67793D1*
X33503Y67158D2*
Y67293D1*
X35365D1*
X35418Y67345D1*
X28103Y39218D2*
X29598D1*
Y41013D1*
X29058Y41553D1*
Y43028D1*
Y51258D1*
X29718Y51918D1*
X43343D1*
X30633Y38883D2*
Y37338D1*
X29973Y36678D1*
X28103D1*
X27498Y41688D2*
X27333Y41523D1*
X25562D1*
Y41443D1*
X52235Y52921D2*
X28158D1*
X27498Y52261D1*
Y41688D1*
X51258Y31623D2*
X51233Y31598D1*
X49378D1*
X34923Y45318D2*
X37713Y48108D1*
X43343D1*
X28103Y34138D2*
X25723D1*
X25683Y34098D1*
X22525D1*
X21240Y35383D1*
X14973D1*
X14313Y34723D1*
Y28423D1*
X14973Y27763D1*
X26838D1*
Y29372D1*
X39790Y23538D2*
X41866Y21462D1*
X57376D1*
X58036Y22122D1*
Y27128D1*
X57376Y27788D1*
X49378D1*
X33817Y30642D2*
Y32868D1*
X33503D1*
X32200Y30468D2*
X32375Y30642D1*
X33817D1*
X43978Y32868D2*
X36992D1*
Y32547D1*
Y34748D1*
X36332Y35408D1*
X33503D1*
Y37948D2*
X35722D1*
Y42707D1*
X41493D1*
X41523Y42678D1*
X41530Y29058D2*
X43978D1*
X35408Y93193D2*
X43028D1*
X44323Y91898D1*
X55093D1*
X55753Y91238D1*
Y50038D1*
X55093Y49378D1*
X48743D1*
X45568Y93193D2*
X53188D1*
X55753D1*
X56413Y92533D1*
Y48768D1*
X55753Y48108D1*
X48743D1*
X46638Y32943D2*
Y29043D1*
X47558Y28122D1*
Y25248D1*
X49378D1*
X43028Y77953D2*
X35408D1*
X53188D2*
X45568D1*
X54310Y26590D2*
X54238Y26518D1*
X49378D1*
X47463Y39543D2*
X45498Y37578D1*
Y31598D1*
X43978D1*
X53188Y80493D2*
X45568D1*
X43028D2*
X35408D1*
X40038Y30385D2*
X40095Y30328D1*
X43978D1*
X39048Y29313D2*
X40573Y27788D1*
X43978D1*
X35408Y83033D2*
X43028D1*
X51505Y24033D2*
X47558D1*
X46898Y24693D1*
Y25858D1*
X46238Y26518D1*
X43978D1*
X53188Y83033D2*
X45568D1*
X48453Y42265D2*
X45498D1*
X44838Y42925D1*
Y46838D1*
X43343D1*
X53188Y85573D2*
X45568D1*
X43028D2*
X35408D1*
X38470Y45813D2*
X38715Y45568D1*
X43343D1*
X47875Y99520D2*
X57073D1*
X57733Y98860D1*
Y38401D1*
X57073Y37741D1*
X48301D1*
X47641Y37081D1*
Y30328D1*
X49378D1*
X43028Y88113D2*
X35408D1*
X40863Y91930D2*
X34823D1*
X34163Y92590D1*
Y101398D1*
X34823Y102058D1*
X57733D1*
X58393Y101398D1*
Y42278D1*
X59053Y41618D1*
X68018D1*
X68678Y40958D1*
Y36325D1*
X63745D1*
X56477Y29058D1*
X49378D1*
X53188Y88113D2*
X45568D1*
X86815Y61488D2*
X86770Y61443D1*
X84618D1*
X88960Y31953D2*
Y34773D1*
X90653D1*
X88403Y18898D2*
X100813D1*
X53188Y95733D2*
X45568D1*
X37068Y65448D2*
X37263Y65253D1*
X41438D1*
X43028Y95733D2*
X35408D1*
X38140Y64045D2*
X38203Y63983D1*
X41438D1*
X41358Y99520D2*
X43613D1*
X44273Y98860D1*
Y97638D1*
X44933Y96978D1*
X56413D1*
X57073Y96318D1*
Y44958D1*
X56413Y44298D1*
X48743D1*
X43028Y98273D2*
X35408D1*
X53188D2*
X45568D1*
X53320Y45648D2*
X53240Y45568D1*
X48743D1*
X32448Y89373D2*
X54433D1*
X55093Y88713D1*
Y64643D1*
X54433Y63983D1*
X46838D1*
X35408Y100813D2*
X41123D1*
X43028D1*
X53188D2*
X45568D1*
X51163Y62713D2*
X46838D1*
X30138Y81783D2*
X43613D1*
X44273Y81123D1*
Y74866D1*
X44933Y74206D1*
X48993D1*
X49653Y73546D1*
Y68453D1*
X48993Y67793D1*
X46838D1*
X35408Y103353D2*
X41783D1*
X43028D1*
X53188D2*
X45568D1*
X49113Y66603D2*
X49033Y66523D1*
X46838D1*
X45568Y103353D2*
X44323Y104598D1*
X30867D1*
X30207Y103938D1*
Y84938D1*
X30867Y84278D1*
X49093D1*
X36243Y73615D2*
X37898D1*
X38558Y72955D1*
Y69723D1*
X39218Y69063D1*
X41438D1*
X35408Y105893D2*
X41123D1*
X43028D1*
X45568D2*
X49925D1*
X53188D1*
X39213Y67840D2*
X39260Y67793D1*
X41438D1*
X35408Y90653D2*
X43028D1*
X33603Y50680D2*
X33635Y50648D1*
X43343D1*
X45895Y45978D2*
Y48718D1*
X45235Y49378D1*
X43343D1*
X53188Y90653D2*
X45568D1*
X70315Y91930D2*
X67843D1*
X67183Y91270D1*
Y69088D1*
X67843Y68428D1*
X70013D1*
X68428Y105893D2*
X76048D1*
X73450Y79225D2*
X76633D1*
X77293Y78565D1*
Y73214D1*
X78496Y72011D1*
Y67358D1*
X77568D1*
X76908Y66698D1*
Y65888D1*
X75413D1*
X68428Y103353D2*
X76048D1*
X72460Y75678D2*
Y62738D1*
X73120Y62078D1*
X75413D1*
X68428Y100813D2*
X76048D1*
Y98273D2*
X68428D1*
X65863Y95708D1*
Y64008D1*
X66523Y63348D1*
X70013D1*
X67263Y102078D2*
X64543D1*
X63883Y101418D1*
Y51308D1*
X64543Y50648D1*
X66203D1*
X68428Y95733D2*
X76048D1*
X61653Y91930D2*
Y48768D1*
X62313Y48108D1*
X66203D1*
X68428Y93193D2*
X76048D1*
X68428Y90653D2*
X76048D1*
X74853Y50680D2*
X74820Y50648D1*
X71603D1*
X68428Y88113D2*
X76048D1*
X77293Y89358D1*
X88478D1*
X89138Y90018D1*
Y106478D1*
X88478Y107138D1*
X60373D1*
X59713Y106478D1*
Y44067D1*
X60373Y43407D1*
X67038D1*
X67698Y44067D1*
Y46178D1*
X68358Y46838D1*
X71603D1*
X64870Y35088D2*
X64073Y34290D1*
Y32233D1*
X65568D1*
X67675Y39460D2*
X64870D1*
X89373Y54393D2*
X77493D1*
X68428Y85573D2*
X76048D1*
X77343Y84278D1*
X91168D1*
X68428Y83033D2*
X76048D1*
X61900Y28488D2*
X61965Y28423D1*
X65568D1*
X73780Y30963D2*
X70968D1*
X68428Y80493D2*
X76048D1*
X63798Y24610D2*
X67771D1*
X68431Y25270D1*
Y26493D1*
X69091Y27153D1*
X70968D1*
X68428Y77953D2*
X76048D1*
X86208D2*
X78588D1*
X84505Y25930D2*
X84458Y25883D1*
X70968D1*
X86208Y80493D2*
X78588D1*
X78070Y29725D2*
X78038Y29693D1*
X70968D1*
X86208Y83033D2*
X78588D1*
X67758Y28158D2*
Y27661D1*
X67250Y27153D1*
X65568D1*
X78588Y85573D2*
X86208D1*
X89138D1*
X89798Y86233D1*
Y103963D1*
X90458Y104623D1*
X106363D1*
X107023Y103963D1*
Y22073D1*
X106363Y21413D1*
X61431D1*
X60771Y22073D1*
Y30303D1*
X61431Y30963D1*
X65568D1*
X86208Y88113D2*
X78588D1*
X79638Y45648D2*
X79558Y45568D1*
X71603D1*
X86208Y90653D2*
X78588D1*
X86650Y49443D2*
X86585Y49378D1*
X71603D1*
X88135Y104635D2*
X61033D1*
X60373Y103975D1*
Y47498D1*
X61033Y46838D1*
X66203D1*
X86208Y93193D2*
X78588D1*
X83433Y99520D2*
X65203D1*
X64543Y98860D1*
Y51918D1*
X66203D1*
X86208Y95733D2*
X78588D1*
X80463Y61075D2*
X72168D1*
X71508Y61735D1*
Y64618D1*
X70013D1*
X86208Y98273D2*
X78588D1*
Y100813D2*
X86208D1*
X79143Y63385D2*
X79105Y63348D1*
X75413D1*
X73615Y74688D2*
Y67158D1*
X75413D1*
X78588Y103353D2*
X86208D1*
X71388Y94488D2*
X67183D1*
X66523Y93828D1*
Y67818D1*
X67183Y67158D1*
X70013D1*
X78588Y105893D2*
X86208D1*
X98908Y15088D2*
X103353D1*
Y16218D1*
X102713Y16858D1*
Y18898D1*
X98908Y22708D2*
X103353D1*
Y23838D1*
X102713Y24478D1*
Y26518D1*
X103353Y30328D2*
Y31458D1*
X102713Y32098D1*
Y34138D1*
X98908Y37948D2*
X103353D1*
Y39078D1*
X102713Y39718D1*
Y41758D1*
X98908Y45568D2*
X103353D1*
Y46698D1*
X102713Y47338D1*
Y49378D1*
X98908Y53188D2*
X103353D1*
Y54318D1*
X102713Y54958D1*
Y56998D1*
X98908Y60808D2*
X103353D1*
Y61938D1*
X102713Y62578D1*
Y64618D1*
X98908Y68428D2*
X103353D1*
Y69558D1*
X102713Y70198D1*
Y72238D1*
X103353Y76048D2*
Y77178D1*
X102713Y77818D1*
Y79858D1*
X98908Y83668D2*
X103353D1*
Y84798D1*
X102713Y85438D1*
Y87478D1*
X98908Y91288D2*
X103353D1*
Y92418D1*
X102713Y93058D1*
Y95098D1*
X98908Y98908D2*
X103353D1*
Y100038D1*
X102713Y100678D1*
Y102718D1*
X100813Y26518D2*
Y27763D1*
X103823D1*
X104483Y28423D1*
Y35858D1*
X103823Y36518D1*
X92942D1*
X92148Y37313D1*
X90653D1*
X83268Y27003D2*
X91921D1*
X93341Y28423D1*
X100153D1*
X100813Y29083D1*
Y34138D1*
X83268Y36078D2*
X83303Y36043D1*
X85253D1*
X87145Y40450D2*
Y38583D1*
X85253D1*
X95478Y40450D2*
X100813D1*
Y41758D1*
X94075Y48123D2*
X95330Y49378D1*
X100813D1*
X85578Y43998D2*
X85253Y43673D1*
Y41123D1*
X90653Y39853D2*
X92863D1*
X96013Y43003D1*
X103823D1*
X104483Y43663D1*
Y57583D1*
X103823Y58243D1*
X100813D1*
Y56998D1*
Y64618D2*
Y63373D1*
X100153Y62713D1*
X90018D1*
X93745Y70233D2*
X100153D1*
X100813Y70893D1*
Y72238D1*
X87310Y70233D2*
X91435D1*
X87310Y67428D2*
X86113Y66230D1*
Y63983D1*
X84618D1*
X101748Y74935D2*
X100813Y75870D1*
Y79858D1*
X99273Y64458D2*
X92308D1*
X91513Y65253D1*
X90018D1*
X81535Y76585D2*
X92197D1*
X92857Y77245D1*
Y86818D1*
X93517Y87478D1*
X100813D1*
X81535Y66355D2*
X81703Y66523D1*
X84618D1*
X90018Y67793D2*
X94083D1*
X94743Y67133D1*
X104483D1*
Y95683D1*
X103823Y96343D1*
X100813D1*
Y95098D1*
X87475Y79225D2*
X91531D1*
X92191Y79885D1*
Y102058D1*
X92851Y102718D1*
X100813D1*
X87063Y73863D2*
X85278D1*
X84618Y73203D1*
Y69063D1*
X90653Y33503D2*
X92148D1*
Y32483D1*
X91288Y31623D1*
Y30328D1*
Y28666D1*
X90628Y28006D1*
X73883D1*
X73466Y28423D1*
X70968D1*
X85253Y34773D2*
X83687D1*
Y34298D1*
X83027Y33638D1*
X82368Y34298D1*
X67723D1*
X67063Y33638D1*
Y29693D1*
X65568D1*
X83027Y33638D2*
Y32754D1*
X83028D1*
Y30328D1*
X85253Y37313D2*
X81038D1*
X79390Y35665D1*
Y30715D2*
Y29382D1*
X80050Y28722D1*
X86208D1*
Y30328D1*
X79390Y35665D2*
X66533D1*
X65873Y35005D1*
Y33503D1*
X65568D1*
X93333Y42100D2*
Y43474D1*
X93193Y43668D1*
X78565Y46638D2*
X74853D1*
X93333Y43474D2*
X93526Y43668D1*
X93193D1*
X86980Y42265D2*
X88148Y41097D1*
Y36703D1*
X88808Y36043D1*
X90653D1*
X78578Y50446D2*
X87653D1*
Y43941D1*
X86980Y43268D1*
Y42265D1*
X74853Y32365D2*
X74720Y32233D1*
X70968D1*
X85253Y39853D2*
X83347D1*
Y43347D1*
X81301D1*
X80641Y44008D1*
Y47448D1*
X79981Y48108D1*
X71603D1*
X90653Y38583D2*
X88808D1*
Y41313D1*
X90018Y42522D1*
Y43668D1*
X88313D1*
Y51258D1*
X87653Y51918D1*
X71603D1*
X90018Y61443D2*
X94092D1*
X94752Y60783D1*
Y56607D1*
X90571D1*
X90180Y56998D1*
X88748D1*
Y55396D1*
X69018D1*
X68358Y54736D1*
Y50038D1*
X67698Y49378D1*
X66203D1*
X84938Y58898D2*
X81568D1*
X81535Y58930D1*
X68358D1*
X67698Y58270D1*
Y53188D1*
X66203D1*
X81535Y62643D2*
X81605Y62713D1*
X84618D1*
X75413Y64618D2*
X79237D1*
X80532Y65913D1*
Y67358D1*
X82393Y69219D1*
Y71603D1*
X80532Y65913D2*
X81192Y65253D1*
X84618D1*
X93507Y59853D2*
X90087D1*
X89898Y60043D1*
X88561D1*
X87901Y60703D1*
Y63983D1*
X90018D1*
X87901Y60703D2*
X87241Y60043D1*
X67880D1*
X67840Y60003D1*
Y65860D2*
X67868Y65888D1*
X70013D1*
X89785Y72295D2*
X88383D1*
X88108Y72238D1*
Y74866D1*
X84198D1*
X83538Y74206D1*
Y70100D1*
X83053Y69615D1*
Y67793D1*
X84618D1*
X88383Y72295D2*
X88108Y72571D1*
Y72238D1*
X71388Y81700D2*
X71425Y81738D1*
X89748D1*
X89785Y81700D1*
X76103Y73628D2*
Y74659D1*
X73587Y77176D1*
X70471D1*
X68518Y75222D1*
Y69698D1*
X70013D1*
X78318Y74853D2*
X78991Y75526D1*
X92330D1*
X91930Y66603D2*
X91850Y66523D1*
X90018D1*
X92356Y75526D2*
X93798D1*
X94458Y74866D1*
Y72238D1*
X77483Y68428D2*
X75413D1*
D28*
X26260Y62230D3*
X61900Y25930D3*
X41440Y44410D3*
Y59178D3*
X58270Y36738D3*
X60498Y40615D3*
X41440Y61240D3*
X45895Y25270D3*
X65118Y44410D3*
X66685Y62148D3*
X30963Y49113D3*
X87558Y33520D3*
X30213Y32860D3*
X44823Y57775D3*
X41440Y49113D3*
X33850Y46473D3*
X85908Y25930D3*
X89620D3*
X36408Y56043D3*
X67675Y37398D3*
X56455Y35500D3*
X93415Y73863D3*
X86650Y45565D3*
X75430Y70893D3*
X77988Y66025D3*
X89620Y30385D3*
X75430Y54393D3*
X33787Y24172D3*
X52660Y30550D3*
X29725Y56208D3*
X45235Y71553D3*
X36738Y27250D3*
X30963Y74935D3*
X77988Y57033D3*
X69408Y52990D3*
X75430Y57033D3*
X85908Y70233D3*
X46203Y51918D3*
X91765Y57610D3*
X68500Y33273D3*
X30963Y70563D3*
X27663Y73863D3*
Y102738D3*
X32448Y71718D3*
Y79885D3*
X30633Y68088D3*
X18918Y70068D3*
X29643Y60910D3*
X24115Y64623D3*
X20403Y40368D3*
X18588Y54888D3*
X24033Y35170D3*
X23950Y41770D3*
X35418Y36655D3*
X30633Y26673D3*
X42018Y76008D3*
Y71553D3*
X46390Y72543D3*
Y76008D3*
X31210Y86815D3*
X29065Y73863D3*
X51175Y50680D3*
Y54970D3*
X49113Y40863D3*
Y56785D3*
X37810Y59178D3*
X35418Y67345D3*
X30633Y38883D3*
X51258Y31623D3*
X52248Y52908D3*
X27498Y41688D3*
X34923Y45318D3*
X25683Y34098D3*
X32200Y30468D3*
X39790Y23538D3*
X41523Y42678D3*
Y29065D3*
X46638Y32943D3*
X54310Y26590D3*
X47463Y39543D3*
X40038Y30385D3*
X39048Y29313D3*
X51505Y24033D3*
X48453Y42265D3*
X38470Y45813D3*
X47875Y99520D3*
X40863Y91930D3*
X86815Y61488D3*
X88960Y31953D3*
X88383Y18918D3*
X37068Y65448D3*
X38140Y64045D3*
X41358Y99520D3*
X53320Y45648D3*
X32448Y89373D3*
X51175Y62725D3*
X30138Y81783D3*
X49113Y66603D3*
Y84258D3*
X36243Y73615D3*
X39213Y67840D3*
X33603Y50680D3*
X45895Y45978D3*
X70315Y91930D3*
X73450Y79225D3*
X72460Y75678D3*
X67263Y102078D3*
X61653Y91930D3*
X74853Y50680D3*
X64870Y35088D3*
Y39460D3*
X67675D3*
X77493Y54393D3*
X89373D3*
X91188Y84258D3*
X61900Y28488D3*
X73780Y30963D3*
X63798Y24610D3*
X84505Y25930D3*
X78070Y29725D3*
X67758Y28158D3*
X79638Y45648D3*
X86650Y49443D3*
X88135Y104635D3*
X83433Y99520D3*
X80463Y61075D3*
X79143Y63385D3*
X73615Y74688D3*
X71388Y94488D3*
X83268Y27003D3*
Y36078D3*
X87145Y40450D3*
X95478D3*
X85578Y43998D3*
X94075Y48123D3*
X93745Y70233D3*
X91435D3*
X87310D3*
Y67428D3*
X101748Y74935D3*
X99273Y64458D3*
X81535Y76585D3*
Y66355D3*
X87475Y79225D3*
X87063Y73863D3*
X79390Y30715D3*
Y35665D3*
X93333Y42100D3*
X74853Y32365D3*
Y46638D3*
X78565D3*
Y50433D3*
X86980Y42265D3*
X81535Y62643D3*
Y58930D3*
X67840Y65860D3*
Y60003D3*
X89785Y72295D3*
Y81700D3*
X71388D3*
X76090Y73615D3*
X91930Y66603D3*
X92343Y75513D3*
X78318Y74853D3*
X77493Y68418D3*
X11024Y107483D2*
D15*
X59469D1*
X89382D2*
X108057D1*
X11024Y106852D2*
X33920D1*
X36895D2*
X41540D1*
X46678D2*
X51700D1*
X54675D2*
X58904D1*
X89947D2*
X108057D1*
X11024Y106220D2*
X33920D1*
X54675D2*
X58814D1*
X90036D2*
X108057D1*
X11024Y105588D2*
X33920D1*
X54675D2*
X58814D1*
X90036D2*
X108057D1*
X11024Y104957D2*
X29981D1*
X54675D2*
X58814D1*
X107281D2*
X108057D1*
X11024Y104325D2*
X29396D1*
X54288D2*
X58814D1*
X11024Y103693D2*
X15605D1*
X20276D2*
X26906D1*
X28422D2*
X29307D1*
X54635D2*
X58814D1*
X11024Y103062D2*
X14900D1*
X28858D2*
X29303D1*
X54645D2*
X58814D1*
X11024Y102430D2*
X14821D1*
X28868D2*
X29303D1*
X11024Y101798D2*
X14821D1*
X20276D2*
X26886D1*
X28441D2*
X29307D1*
X93182D2*
X99425D1*
X11024Y101167D2*
X14821D1*
X16624D2*
X29307D1*
X93092D2*
X101816D1*
X11024Y100535D2*
X14821D1*
X16624D2*
X29307D1*
X93092D2*
X101826D1*
X11024Y99903D2*
X12271D1*
X17091D2*
X18631D1*
X21704D2*
X29307D1*
X93092D2*
X97371D1*
X100444D2*
X101984D1*
X11024Y99272D2*
X11864D1*
X21704D2*
X29307D1*
X93092D2*
X97371D1*
X11024Y98640D2*
X11834D1*
X21704D2*
X29307D1*
X93092D2*
X97371D1*
X11024Y98008D2*
X12172D1*
X17091D2*
X18631D1*
X21704D2*
X29307D1*
X93092D2*
X97371D1*
X100444D2*
X101984D1*
X11024Y97377D2*
X29307D1*
X93092D2*
X106122D1*
X11024Y96745D2*
X11864D1*
X25505D2*
X29307D1*
X93092D2*
X100010D1*
X104671D2*
X106122D1*
X26100Y96113D2*
X29307D1*
X93092D2*
X99425D1*
X105267D2*
X106122D1*
X26219Y95482D2*
X29307D1*
X93092D2*
X99425D1*
X105386D2*
X106122D1*
X26219Y94850D2*
X29307D1*
X93092D2*
X99425D1*
X105386D2*
X106122D1*
X20276Y94218D2*
X22976D1*
X26219D2*
X29307D1*
X93092D2*
X99425D1*
X105386D2*
X106122D1*
X16624Y93587D2*
X23105D1*
X26219D2*
X29307D1*
X93092D2*
X101816D1*
X105386D2*
X106122D1*
X16624Y92955D2*
X23105D1*
X26219D2*
X29307D1*
X93092D2*
X101816D1*
X105386D2*
X106122D1*
X17091Y92323D2*
X18631D1*
X21704D2*
X23105D1*
X26219D2*
X29307D1*
X93092D2*
X97371D1*
X100444D2*
X101984D1*
X21704Y91692D2*
X23105D1*
X26219D2*
X29307D1*
X93092D2*
X97371D1*
X21704Y91060D2*
X23105D1*
X26219D2*
X29307D1*
X93092D2*
X97371D1*
X17091Y90428D2*
X18631D1*
X21704D2*
X23105D1*
X26219D2*
X29307D1*
X93092D2*
X97371D1*
X100444D2*
X101984D1*
X12953Y89797D2*
X23105D1*
X26219D2*
X29307D1*
X93092D2*
X103582D1*
X12953Y89165D2*
X14166D1*
X26219D2*
X29307D1*
X93092D2*
X103582D1*
X12953Y88533D2*
X13561D1*
X26219D2*
X29307D1*
X93092D2*
X99425D1*
X12953Y87902D2*
X13408D1*
X26189D2*
X29307D1*
X12953Y87270D2*
X13408D1*
X25703D2*
X29307D1*
X12953Y86638D2*
X13408D1*
X20276D2*
X29307D1*
X93926D2*
X99425D1*
X12953Y86007D2*
X13408D1*
X16624D2*
X29307D1*
X93757D2*
X101816D1*
X12953Y85375D2*
X13408D1*
X16624D2*
X29307D1*
X93757D2*
X101816D1*
X17091Y84743D2*
X18631D1*
X21704D2*
X29326D1*
X93757D2*
X97371D1*
X100444D2*
X101984D1*
X21704Y84112D2*
X29783D1*
X93757D2*
X97371D1*
X21704Y83480D2*
X30547D1*
X93757D2*
X97371D1*
X21704Y82848D2*
X29565D1*
X30714D2*
X33930D1*
X93757D2*
X97371D1*
X15216Y82217D2*
X18631D1*
X21704D2*
X28979D1*
X93757D2*
X97371D1*
X100444D2*
X103582D1*
X15216Y81585D2*
X28910D1*
X93757D2*
X103582D1*
X15216Y80953D2*
X15615D1*
X20276D2*
X29237D1*
X93757D2*
X99425D1*
X33611Y80322D2*
X33936D1*
X93757D2*
X99425D1*
X33680Y79690D2*
X34168D1*
X93757D2*
X99425D1*
X33353Y79058D2*
X34446D1*
X93757D2*
X99425D1*
X17894Y78427D2*
X34000D1*
X93757D2*
X99911D1*
X17894Y77795D2*
X33930D1*
X93757D2*
X99911D1*
X17894Y77163D2*
X18631D1*
X21704D2*
X34158D1*
X93757D2*
X97371D1*
X21704Y76532D2*
X24544D1*
X93390D2*
X97371D1*
X21704Y75900D2*
X23919D1*
X94670D2*
X97371D1*
X21704Y75268D2*
X23711D1*
X43007D2*
X43376D1*
X95255D2*
X97371D1*
X15216Y74637D2*
X18631D1*
X21704D2*
X23711D1*
X25514D2*
X26707D1*
X30019D2*
X35587D1*
X36895D2*
X43406D1*
X79539D2*
X82756D1*
X89005D2*
X91487D1*
X95355D2*
X97371D1*
X102955D2*
X103582D1*
X15216Y74005D2*
X23711D1*
X25514D2*
X26429D1*
X30297D2*
X35061D1*
X38760D2*
X43882D1*
X79202D2*
X82637D1*
X89005D2*
X93561D1*
X95355D2*
X100952D1*
X102538D2*
X103582D1*
X15216Y73373D2*
X15615D1*
X20276D2*
X23225D1*
X26001D2*
X26529D1*
X30446D2*
X35022D1*
X39346D2*
X44775D1*
X74519D2*
X74868D1*
X78378D2*
X82637D1*
X90334D2*
X93075D1*
X95841D2*
X99425D1*
X20276Y72742D2*
X23225D1*
X26001D2*
X26757D1*
X30446D2*
X31797D1*
X33095D2*
X35389D1*
X37103D2*
X37520D1*
X39455D2*
X45162D1*
X74519D2*
X75235D1*
X79013D2*
X81010D1*
X85522D2*
X86625D1*
X90939D2*
X93075D1*
X95841D2*
X99425D1*
X20276Y72110D2*
X23225D1*
X26001D2*
X26757D1*
X30446D2*
X31271D1*
X35198D2*
X37661D1*
X43126D2*
X45231D1*
X74519D2*
X77150D1*
X79390D2*
X81010D1*
X85522D2*
X86725D1*
X91019D2*
X93075D1*
X95841D2*
X99425D1*
X20276Y71478D2*
X23225D1*
X26001D2*
X26737D1*
X30446D2*
X31231D1*
X35784D2*
X37661D1*
X43255D2*
X45817D1*
X46966D2*
X47434D1*
X74519D2*
X77596D1*
X79400D2*
X81010D1*
X85522D2*
X86725D1*
X90701D2*
X93075D1*
X95841D2*
X99425D1*
X20276Y70847D2*
X23225D1*
X30446D2*
X31589D1*
X33313D2*
X33960D1*
X35903D2*
X37661D1*
X43175D2*
X47434D1*
X74519D2*
X77596D1*
X79400D2*
X81010D1*
X85522D2*
X86238D1*
X20157Y70215D2*
X23711D1*
X30495D2*
X34099D1*
X35903D2*
X37661D1*
X43175D2*
X47434D1*
X74519D2*
X77596D1*
X79400D2*
X81010D1*
X85522D2*
X86070D1*
X21704Y69583D2*
X23711D1*
X30495D2*
X34099D1*
X35903D2*
X37671D1*
X43175D2*
X45102D1*
X74519D2*
X77239D1*
X79400D2*
X81496D1*
X21704Y68952D2*
X23721D1*
X43175D2*
X45102D1*
X79400D2*
X80881D1*
X86355D2*
X97371D1*
X21704Y68320D2*
X24127D1*
X43175D2*
X45102D1*
X79400D2*
X80246D1*
X94799D2*
X97371D1*
X43175Y67688D2*
X45102D1*
X43642Y67057D2*
X45102D1*
X43830Y66425D2*
X45102D1*
X77882D2*
X79630D1*
X11024Y65793D2*
X11537D1*
X43830D2*
X44636D1*
X77803D2*
X79164D1*
X87010D2*
X88282D1*
X11024Y65162D2*
X12191D1*
X43830D2*
X44437D1*
X87010D2*
X88282D1*
X11024Y64530D2*
X14821D1*
X43830D2*
X44437D1*
X11024Y63898D2*
X14821D1*
X43830D2*
X44437D1*
X11024Y63267D2*
X14821D1*
X20276D2*
X24574D1*
X43830D2*
X44437D1*
X86613D2*
X86992D1*
X11024Y62635D2*
X14821D1*
X16624D2*
X24346D1*
X43830D2*
X44437D1*
X52413D2*
X54855D1*
X11024Y62003D2*
X12588D1*
X13777D2*
X14354D1*
X17091D2*
X18631D1*
X21704D2*
X24346D1*
X43830D2*
X44437D1*
X52175D2*
X54855D1*
X11024Y61372D2*
X11943D1*
X21704D2*
X24346D1*
X43830D2*
X44517D1*
X52452D2*
X54855D1*
X95414D2*
X97371D1*
X11024Y60740D2*
X11814D1*
X21704D2*
X24346D1*
X26149D2*
X28414D1*
X43830D2*
X45072D1*
X53008D2*
X54855D1*
X95652D2*
X97371D1*
X11024Y60108D2*
X12013D1*
X21704D2*
X23860D1*
X26636D2*
X28711D1*
X36121D2*
X37016D1*
X43453D2*
X51224D1*
X53077D2*
X54855D1*
X95652D2*
X97371D1*
X11024Y59477D2*
X18631D1*
X21704D2*
X23860D1*
X26636D2*
X30210D1*
X35486D2*
X36609D1*
X44495D2*
X51274D1*
X53077D2*
X54855D1*
X95652D2*
X97371D1*
X100444D2*
X106122D1*
X11024Y58845D2*
X23860D1*
X26636D2*
X30210D1*
X34424D2*
X36609D1*
X45388D2*
X51274D1*
X53077D2*
X54855D1*
X86425D2*
X92023D1*
X95652D2*
X100169D1*
X104473D2*
X106122D1*
X11024Y58213D2*
X15605D1*
X20276D2*
X23860D1*
X26636D2*
X30210D1*
X36260D2*
X37066D1*
X45983D2*
X51274D1*
X53077D2*
X54855D1*
X86425D2*
X87260D1*
X90235D2*
X93848D1*
X95652D2*
X99425D1*
X105098D2*
X106122D1*
X11024Y57582D2*
X15059D1*
X20276D2*
X23860D1*
X26636D2*
X30210D1*
X36260D2*
X38157D1*
X50051D2*
X51274D1*
X53077D2*
X54855D1*
X68595D2*
X83450D1*
X86425D2*
X87260D1*
X90840D2*
X93848D1*
X95652D2*
X99425D1*
X105386D2*
X106122D1*
X11024Y56950D2*
X14821D1*
X20276D2*
X24346D1*
X26149D2*
X30696D1*
X36260D2*
X38792D1*
X50349D2*
X51274D1*
X53077D2*
X54855D1*
X68595D2*
X87260D1*
X95652D2*
X99425D1*
X105386D2*
X106122D1*
X11024Y56318D2*
X14821D1*
X20276D2*
X24346D1*
X26149D2*
X30696D1*
X36260D2*
X39417D1*
X50260D2*
X51274D1*
X53077D2*
X54855D1*
X68595D2*
X87260D1*
X95603D2*
X99425D1*
X105386D2*
X106122D1*
X11024Y55687D2*
X14821D1*
X20276D2*
X24346D1*
X26149D2*
X30696D1*
X53077D2*
X54855D1*
X90235D2*
X99425D1*
X105386D2*
X106122D1*
X11024Y55055D2*
X14821D1*
X19819D2*
X24346D1*
X26149D2*
X30924D1*
X53077D2*
X54855D1*
X90413D2*
X101816D1*
X105386D2*
X106122D1*
X11024Y54423D2*
X12687D1*
X13678D2*
X14354D1*
X21704D2*
X24356D1*
X53077D2*
X54855D1*
X69290D2*
X76247D1*
X90612D2*
X97371D1*
X100444D2*
X101984D1*
X11024Y53792D2*
X11963D1*
X21704D2*
X24782D1*
X53097D2*
X54855D1*
X69260D2*
X76416D1*
X90453D2*
X97371D1*
X11024Y53160D2*
X11814D1*
X21704D2*
X25467D1*
X53464D2*
X54855D1*
X69260D2*
X97371D1*
X11024Y52528D2*
X11993D1*
X21704D2*
X26638D1*
X53425D2*
X54855D1*
X69260D2*
X69867D1*
X88290D2*
X97371D1*
X11024Y51897D2*
X12906D1*
X13456D2*
X14354D1*
X17091D2*
X18631D1*
X21704D2*
X26598D1*
X45080D2*
X51571D1*
X52919D2*
X54855D1*
X69260D2*
X69867D1*
X88925D2*
X97371D1*
X100444D2*
X101984D1*
X11024Y51265D2*
X14374D1*
X19492D2*
X26598D1*
X45080D2*
X47007D1*
X52264D2*
X54855D1*
X69260D2*
X69867D1*
X89213D2*
X103582D1*
X11024Y50633D2*
X13739D1*
X20276D2*
X26598D1*
X45080D2*
X47007D1*
X52423D2*
X54855D1*
X69260D2*
X69867D1*
X89213D2*
X99425D1*
X11024Y50002D2*
X13412D1*
X20276D2*
X26598D1*
X45854D2*
X47007D1*
X69260D2*
X69867D1*
X89213D2*
X94712D1*
X11024Y49370D2*
X13412D1*
X20276D2*
X26598D1*
X46489D2*
X47007D1*
X68943D2*
X69867D1*
X89213D2*
X94077D1*
X11024Y48738D2*
X13412D1*
X20276D2*
X26598D1*
X68308D2*
X69867D1*
X89213D2*
X93005D1*
X11024Y48107D2*
X13412D1*
X20276D2*
X26598D1*
X29959D2*
X30279D1*
X31646D2*
X36460D1*
X67940D2*
X69867D1*
X81226D2*
X86754D1*
X89213D2*
X92826D1*
X95315D2*
X99425D1*
X11024Y47475D2*
X13412D1*
X17894D2*
X26598D1*
X29959D2*
X35835D1*
X81543D2*
X86754D1*
X89213D2*
X93025D1*
X95126D2*
X101816D1*
X11024Y46843D2*
X12836D1*
X17894D2*
X18631D1*
X21704D2*
X26598D1*
X29959D2*
X35200D1*
X39107D2*
X41610D1*
X81543D2*
X86754D1*
X89213D2*
X97371D1*
X100444D2*
X101974D1*
X11024Y46212D2*
X11983D1*
X21704D2*
X26598D1*
X29959D2*
X34089D1*
X81543D2*
X86754D1*
X89213D2*
X97371D1*
X11024Y45580D2*
X11814D1*
X21704D2*
X26598D1*
X29959D2*
X33712D1*
X36429D2*
X37244D1*
X81543D2*
X86754D1*
X89213D2*
X97371D1*
X11024Y44948D2*
X11963D1*
X21704D2*
X26598D1*
X29959D2*
X33742D1*
X36111D2*
X37601D1*
X81543D2*
X84810D1*
X86346D2*
X86753D1*
X94680D2*
X97371D1*
X11024Y44317D2*
X12737D1*
X17091D2*
X18631D1*
X21704D2*
X26598D1*
X30446D2*
X34228D1*
X35615D2*
X40201D1*
X94680D2*
X97371D1*
X100444D2*
X101984D1*
X11024Y43685D2*
X13412D1*
X15216D2*
X26598D1*
X30446D2*
X34337D1*
X37113D2*
X40449D1*
X94680D2*
X95466D1*
X11024Y43053D2*
X13412D1*
X15216D2*
X15615D1*
X20276D2*
X26598D1*
X30446D2*
X34337D1*
X11024Y42422D2*
X13412D1*
X30446D2*
X34337D1*
X11024Y41790D2*
X13412D1*
X30446D2*
X34337D1*
X90533D2*
X92132D1*
X11024Y41158D2*
X13412D1*
X30485D2*
X34823D1*
X89898D2*
X92559D1*
X11024Y40527D2*
X13412D1*
X30495D2*
X34823D1*
X61739D2*
X64301D1*
X65440D2*
X67109D1*
X11024Y39895D2*
X13412D1*
X61501D2*
X63706D1*
X11024Y39263D2*
X13412D1*
X21704D2*
X26370D1*
X60519D2*
X63646D1*
X93519D2*
X97371D1*
X100444D2*
X101945D1*
X11024Y38632D2*
X12003D1*
X21704D2*
X24346D1*
X59884D2*
X63964D1*
X92388D2*
X97371D1*
X11024Y38000D2*
X11814D1*
X21704D2*
X23691D1*
X59467D2*
X67774D1*
X92686D2*
X97371D1*
X11024Y37368D2*
X11943D1*
X21704D2*
X23066D1*
X59467D2*
X67774D1*
X93340D2*
X97371D1*
X11024Y36737D2*
X12628D1*
X48543D2*
X57028D1*
X59517D2*
X62912D1*
X11024Y36105D2*
X13789D1*
X48543D2*
X57207D1*
X59328D2*
X62277D1*
X86990D2*
X87498D1*
X11024Y35473D2*
X13819D1*
X29840D2*
X30735D1*
X48543D2*
X61642D1*
X86990D2*
X88133D1*
X92388D2*
X99425D1*
X11024Y34842D2*
X13422D1*
X29840D2*
X30735D1*
X48543D2*
X61017D1*
X86990D2*
X88064D1*
X92388D2*
X99425D1*
X11024Y34210D2*
X13412D1*
X29840D2*
X30735D1*
X48543D2*
X60382D1*
X92656D2*
X99425D1*
X11024Y33578D2*
X13412D1*
X48543D2*
X59747D1*
X62245D2*
X63170D1*
X93043D2*
X99425D1*
X11024Y32947D2*
X13412D1*
X48543D2*
X59122D1*
X61610D2*
X63170D1*
X67960D2*
X69232D1*
X75947D2*
X82131D1*
X93053D2*
X99425D1*
X11024Y32315D2*
X13412D1*
X52274D2*
X58487D1*
X60985D2*
X63170D1*
X67960D2*
X69232D1*
X76096D2*
X82131D1*
X83925D2*
X87776D1*
X90146D2*
X90733D1*
X93033D2*
X99911D1*
X11024Y31683D2*
X13412D1*
X38482D2*
X42245D1*
X52502D2*
X57852D1*
X60350D2*
X60938D1*
X67960D2*
X69232D1*
X75878D2*
X78648D1*
X80124D2*
X81645D1*
X84411D2*
X84828D1*
X92676D2*
X97371D1*
X11024Y31052D2*
X12033D1*
X35962D2*
X39000D1*
X52353D2*
X57227D1*
X59715D2*
X60273D1*
X67960D2*
X69232D1*
X75025D2*
X78192D1*
X80581D2*
X81645D1*
X84411D2*
X84828D1*
X87596D2*
X88133D1*
X92676D2*
X97371D1*
X11024Y30420D2*
X11814D1*
X21704D2*
X25447D1*
X28223D2*
X30954D1*
X35962D2*
X38574D1*
X51113D2*
X56592D1*
X59090D2*
X59876D1*
X67960D2*
X69232D1*
X80601D2*
X81645D1*
X84411D2*
X84828D1*
X87596D2*
X89900D1*
X92676D2*
X97371D1*
X11024Y29788D2*
X11924D1*
X21704D2*
X25447D1*
X28223D2*
X31172D1*
X35962D2*
X37899D1*
X58455D2*
X59866D1*
X67960D2*
X69232D1*
X80293D2*
X81645D1*
X84411D2*
X84828D1*
X87596D2*
X89900D1*
X92676D2*
X97371D1*
X11024Y29157D2*
X12539D1*
X17091D2*
X18631D1*
X21704D2*
X25447D1*
X28223D2*
X34158D1*
X35962D2*
X37810D1*
X57820D2*
X59866D1*
X68446D2*
X69232D1*
X87596D2*
X89900D1*
X11024Y28525D2*
X13412D1*
X28223D2*
X34158D1*
X35962D2*
X38107D1*
X57840D2*
X59866D1*
X11024Y27893D2*
X13600D1*
X27737D2*
X34158D1*
X35962D2*
X39219D1*
X45715D2*
X46541D1*
X58515D2*
X59866D1*
X11024Y27262D2*
X14225D1*
X31716D2*
X34158D1*
X35962D2*
X39854D1*
X58921D2*
X59866D1*
X93430D2*
X99425D1*
X11024Y26630D2*
X14831D1*
X31874D2*
X34158D1*
X35962D2*
X42245D1*
X55558D2*
X57137D1*
X58941D2*
X59866D1*
X92795D2*
X99425D1*
X11024Y25998D2*
X14821D1*
X31666D2*
X34158D1*
X35962D2*
X42245D1*
X55399D2*
X57137D1*
X58941D2*
X59866D1*
X85750D2*
X99425D1*
X11024Y25367D2*
X14821D1*
X20276D2*
X34158D1*
X35962D2*
X42245D1*
X51113D2*
X57137D1*
X58941D2*
X59866D1*
X85601D2*
X99425D1*
X11024Y24735D2*
X14821D1*
X16624D2*
X34158D1*
X35962D2*
X42245D1*
X52522D2*
X57137D1*
X58941D2*
X59866D1*
X61670D2*
X62565D1*
X69141D2*
X101816D1*
X11024Y24103D2*
X14821D1*
X16624D2*
X18631D1*
X21704D2*
X34158D1*
X35962D2*
X38693D1*
X40893D2*
X45648D1*
X52750D2*
X57137D1*
X58941D2*
X59866D1*
X61670D2*
X62664D1*
X68516D2*
X97371D1*
X100444D2*
X101895D1*
X11024Y23472D2*
X12062D1*
X21704D2*
X34158D1*
X35962D2*
X38544D1*
X41102D2*
X46868D1*
X52611D2*
X57137D1*
X58941D2*
X59866D1*
X61670D2*
X63418D1*
X64170D2*
X97371D1*
X11024Y22840D2*
X11814D1*
X21704D2*
X34158D1*
X35962D2*
X38772D1*
X41737D2*
X57137D1*
X58941D2*
X59866D1*
X61670D2*
X97371D1*
X11024Y22208D2*
X11914D1*
X21704D2*
X34158D1*
X35962D2*
X39873D1*
X58941D2*
X59866D1*
X11024Y21577D2*
X12459D1*
X13906D2*
X14360D1*
X17091D2*
X18631D1*
X21704D2*
X34158D1*
X35962D2*
X40499D1*
X58733D2*
X60035D1*
X11024Y20945D2*
X34158D1*
X35962D2*
X41134D1*
X58108D2*
X60650D1*
X107142D2*
X108057D1*
X11024Y20313D2*
X15605D1*
X20276D2*
X34158D1*
X35962D2*
X58606D1*
X63009D2*
X99425D1*
X104096D2*
X108057D1*
X11024Y19682D2*
X15366D1*
X35962D2*
X58021D1*
X63595D2*
X87419D1*
X104096D2*
X108057D1*
X11024Y19050D2*
X14831D1*
X35794D2*
X57832D1*
X63783D2*
X87141D1*
X104096D2*
X108057D1*
X11024Y18418D2*
X14821D1*
X35168D2*
X51105D1*
X55270D2*
X57892D1*
X63724D2*
X64361D1*
X66661D2*
X87250D1*
X104096D2*
X108057D1*
X11024Y17787D2*
X14821D1*
X20276D2*
X51105D1*
X63376D2*
X63894D1*
X67117D2*
X87975D1*
X88786D2*
X99425D1*
X104096D2*
X108057D1*
X11024Y17155D2*
X14821D1*
X16624D2*
X51105D1*
X61799D2*
X63775D1*
X67246D2*
X101816D1*
X103659D2*
X108057D1*
X11024Y16523D2*
X14821D1*
X16624D2*
X18631D1*
X21704D2*
X51105D1*
X61670D2*
X63775D1*
X67246D2*
X97371D1*
X100444D2*
X101885D1*
X104195D2*
X108057D1*
X11024Y15892D2*
X12092D1*
X21704D2*
X51105D1*
X55270D2*
X63775D1*
X67246D2*
X97371D1*
X106983D2*
X108057D1*
X11024Y15260D2*
X11824D1*
X21704D2*
X63775D1*
X67246D2*
X97371D1*
X107251D2*
X108057D1*
X11024Y14628D2*
X11894D1*
X21704D2*
X63775D1*
X67246D2*
X97371D1*
X107181D2*
X108057D1*
X11024Y13997D2*
X12400D1*
X13965D2*
X14346D1*
X17091D2*
X18631D1*
X21704D2*
X63904D1*
X67117D2*
X97371D1*
X100444D2*
X101984D1*
X104721D2*
X105110D1*
X106675D2*
X108057D1*
X11024Y13365D2*
X64371D1*
X66641D2*
X108057D1*
X11024Y12733D2*
X108057D1*
X11024Y12102D2*
X108057D1*
X11024Y11470D2*
X108057D1*
X14414Y52771D2*
X14340Y52577D1*
X14159Y52317D1*
X13921Y52108D1*
X13640Y51962D1*
X13332Y51888D1*
X13015Y51890D1*
X12708Y51968D1*
X12429Y52118D1*
X12194Y52331D1*
X12017Y52593D1*
X11909Y52891D1*
X11875Y53206D1*
X11917Y53519D1*
X12034Y53814D1*
X12218Y54071D1*
X12459Y54277D1*
X12742Y54419D1*
X13051Y54489D1*
X13368Y54483D1*
X13674Y54400D1*
X13951Y54247D1*
X14183Y54031D1*
X14356Y53766D1*
X14418Y53588D1*
X14414Y54496D1*
X14881D1*
X14885Y56998D1*
X14944Y57308D1*
X15114Y57574D1*
X15380Y57760D1*
X15639Y57831D1*
X15669Y58114D1*
Y58421D1*
X18316Y58411D1*
X18522Y58421D1*
X20216D1*
Y55575D1*
X19730D1*
X19729Y55183D1*
X19769Y54888D1*
X19738Y54662D1*
X21641Y54661D1*
Y51714D1*
X18695D1*
Y52359D1*
X17628Y52350D1*
X17022D1*
X17031Y51880D1*
X14414D1*
Y52743D1*
Y98491D2*
X14340Y98297D1*
X14159Y98037D1*
X13921Y97828D1*
X13640Y97682D1*
X13332Y97608D1*
X13015Y97610D1*
X12708Y97688D1*
X12429Y97838D1*
X12194Y98051D1*
X12017Y98313D1*
X11909Y98611D1*
X11875Y98926D1*
X11917Y99239D1*
X12034Y99534D1*
X12218Y99791D1*
X12459Y99997D1*
X12742Y100139D1*
X13051Y100209D1*
X13368Y100203D1*
X13674Y100120D1*
X13951Y99967D1*
X14183Y99751D1*
X14356Y99486D1*
X14418Y99308D1*
X14414Y100216D1*
X14881D1*
X14885Y102718D1*
X14944Y103028D1*
X15114Y103294D1*
X15380Y103480D1*
X15639Y103551D1*
X15669Y103834D1*
Y104141D1*
X18316Y104131D1*
X18522Y104141D1*
X20216D1*
Y103555D1*
X26820Y103556D1*
X26920Y103656D1*
X27190Y103820D1*
X27495Y103907D1*
X27811Y103909D1*
X28117Y103828D1*
X28390Y103668D1*
X28611Y103441D1*
X28764Y103164D1*
X28838Y102856D1*
X28844Y102738D1*
X28801Y102424D1*
X28677Y102133D1*
X28480Y101885D1*
X28224Y101699D1*
X27928Y101587D1*
X27613Y101558D1*
X27301Y101613D1*
X27016Y101749D1*
X26859Y101886D1*
X22563Y101880D1*
X20211D1*
X20216Y101295D1*
X17570Y101304D1*
X17363Y101295D1*
X16560D1*
X16561Y100207D1*
X17031Y100216D1*
Y99749D1*
X18689Y99746D1*
X18695Y100381D1*
X21641D1*
Y97435D1*
X18695D1*
Y98079D1*
X17628Y98070D1*
X17022D1*
X17031Y97599D1*
X14414D1*
Y98463D1*
X107162Y14773D2*
X107050Y14477D1*
X106869Y14217D1*
X106631Y14008D1*
X106350Y13862D1*
X106042Y13788D1*
X105725Y13790D1*
X105418Y13868D1*
X105139Y14018D1*
X104904Y14231D1*
X104727Y14493D1*
X104663Y14670D1*
X104661Y13780D1*
X102045D1*
Y14246D1*
X100386Y14250D1*
X100381Y13615D1*
X97435D1*
Y16561D1*
X100381D1*
Y15916D1*
X101448Y15926D1*
X102053D1*
X102045Y16350D1*
X101973Y16463D1*
X101880Y16765D1*
X101874Y17483D1*
X100548Y17475D1*
X99490D1*
Y18060D1*
X89194D1*
X88944Y17879D1*
X88648Y17767D1*
X88333Y17738D1*
X88021Y17793D1*
X87736Y17929D1*
X87496Y18137D1*
X87321Y18400D1*
X87222Y18701D1*
X87206Y19017D1*
X87274Y19326D1*
X87423Y19606D1*
X87640Y19836D1*
X87910Y20000D1*
X88215Y20087D1*
X88531Y20089D1*
X88837Y20008D1*
X89110Y19848D1*
X89214Y19742D1*
X93800Y19736D1*
X99485D1*
X99490Y20321D1*
X102136Y20311D1*
X102342Y20321D1*
X104036D1*
Y17475D1*
X103550D1*
X103551Y17201D1*
X103945Y16810D1*
X104125Y16539D1*
X104095Y16602D1*
X104267Y16396D1*
X104661D1*
Y15532D1*
X104744Y15714D1*
X104928Y15971D1*
X105169Y16177D1*
X105452Y16319D1*
X105761Y16389D1*
X106078Y16383D1*
X106384Y16300D1*
X106661Y16147D1*
X106893Y15931D1*
X107066Y15666D1*
X107171Y15367D1*
X107201Y15088D1*
X107162Y14773D1*
X102045Y38793D2*
Y39210D1*
X101973Y39323D1*
X101880Y39625D1*
X101874Y40343D1*
X101650Y40334D1*
X101607Y40184D1*
X101452Y39909D1*
X101207Y39711D1*
X100905Y39617D1*
X96318Y39612D1*
X96039Y39411D1*
X95743Y39299D1*
X95428Y39270D1*
X95116Y39326D1*
X94831Y39462D1*
X94591Y39669D1*
X94416Y39933D1*
X94344Y40149D1*
X93455Y39260D1*
X93194Y39083D1*
X92863Y39015D1*
X92317D1*
X92316Y38880D1*
X92326Y38603D1*
Y38137D1*
X92671Y37967D1*
X93294Y37351D1*
X97437Y37356D1*
X97435Y39421D1*
X100381D1*
Y38776D1*
X101448Y38786D1*
X102053D1*
X32147Y40191D2*
X34876D1*
X34884Y41291D1*
X34399Y41284D1*
Y44131D1*
X37046D1*
Y43545D1*
X40634Y43546D1*
X40378Y43893D1*
X40279Y44193D1*
X40263Y44509D1*
X40313Y44732D1*
X38947Y44730D1*
X38736Y44662D1*
X38420Y44633D1*
X38109Y44688D1*
X37823Y44824D1*
X37584Y45032D1*
X37408Y45295D1*
X37309Y45596D1*
X37293Y45912D1*
X37362Y46221D1*
X37510Y46501D1*
X37727Y46731D1*
X37998Y46895D1*
X38302Y46982D1*
X38619Y46984D1*
X38925Y46903D1*
X39198Y46743D1*
X39419Y46516D1*
X39481Y46403D1*
X41662Y46406D1*
X41669Y47263D1*
X38054Y47270D1*
X36109Y45319D1*
X36061Y45004D1*
X35937Y44713D1*
X35740Y44465D1*
X35484Y44279D1*
X35188Y44167D1*
X34873Y44138D1*
X34561Y44193D1*
X34276Y44329D1*
X34036Y44537D1*
X33861Y44800D1*
X33762Y45101D1*
X33746Y45417D1*
X33814Y45726D1*
X33963Y46006D1*
X34180Y46236D1*
X34450Y46400D1*
X34755Y46487D1*
X34903Y46488D1*
X36610Y48190D1*
X31687Y48186D1*
X31524Y48074D1*
X31228Y47962D1*
X30913Y47933D1*
X30601Y47988D1*
X30316Y48124D1*
X30076Y48332D1*
X29898Y48605D1*
X29896Y44441D1*
X30381Y44451D1*
Y41605D1*
X30192D1*
X30337Y41407D1*
X30431Y41105D1*
X30436Y40050D1*
X30781Y40054D1*
X31087Y39973D1*
X31181Y39918D1*
X31241Y39957D1*
X31543Y40051D1*
X31824Y40056D1*
X31829Y40191D1*
X32147D1*
X26430Y38790D2*
Y39465D1*
X21167Y39460D1*
X21235Y39421D1*
X21641D1*
Y37010D1*
X22761Y37011D1*
X24297Y38540D1*
X24558Y38717D1*
X24890Y38786D1*
X26428D1*
X26439Y38921D1*
X29776Y35835D2*
X29766Y35704D1*
X29776Y35428D1*
X29766Y34434D1*
X29776Y33950D1*
X30045Y34029D1*
X30361Y34032D1*
X30667Y33950D1*
X30795Y33875D1*
X30797Y36321D1*
X30565Y36085D1*
X30304Y35908D1*
X29973Y35840D1*
X29784D1*
X88344Y64825D2*
X88354Y64956D1*
X88344Y65232D1*
X88354Y66226D1*
X88344Y66502D1*
Y66849D1*
X88128Y66575D1*
X87872Y66389D1*
X87576Y66277D1*
X87329Y66254D1*
X86956Y65888D1*
X86951Y63983D1*
X86891Y63673D1*
X86721Y63407D1*
X86456Y63220D1*
X86497Y63240D1*
X86291Y63051D1*
X86281Y63010D1*
X86291Y62545D1*
X86647Y62657D1*
X86964Y62659D1*
X87069Y62631D1*
X87063Y63983D1*
X87122Y64293D1*
X87292Y64559D1*
X87548Y64743D1*
X87901Y64821D1*
X88347D1*
X88662Y68766D2*
X91691D1*
Y68637D1*
X94083Y68631D1*
X94393Y68571D1*
X94675Y68385D1*
X95089Y67971D1*
X97431D1*
X97435Y69385D1*
X96025Y69395D1*
X94562Y69380D1*
X94307Y69194D1*
X94011Y69082D1*
X93695Y69053D1*
X93384Y69108D1*
X93098Y69244D1*
X92859Y69452D1*
X92683Y69715D1*
X92593Y69988D1*
X92450Y69628D1*
X92252Y69380D1*
X91997Y69194D1*
X91701Y69082D1*
X91385Y69053D1*
X91074Y69108D1*
X90788Y69244D1*
X90616Y69394D1*
X88151Y69395D1*
X87872Y69194D1*
X87576Y69082D1*
X87260Y69053D1*
X86949Y69108D1*
X86663Y69244D1*
X86424Y69452D1*
X86287Y69658D1*
X86281Y68090D1*
X86291Y68022D1*
X86567Y68346D1*
X86838Y68510D1*
X87142Y68597D1*
X87459Y68599D1*
X87765Y68518D1*
X88038Y68358D1*
X88259Y68131D1*
X88350Y67966D1*
X88344Y68766D1*
X88662D1*
X85455Y70036D2*
X86146D1*
X86133Y70332D1*
X86202Y70641D1*
X86350Y70921D1*
X86567Y71151D1*
X86779Y71279D1*
X86784Y72710D1*
X86416Y72874D1*
X86244Y73023D1*
X85624Y73024D1*
X85456Y72855D1*
Y70038D1*
X92320Y34476D2*
X92326Y34327D1*
X92689Y34142D1*
X92887Y33897D1*
X92981Y33595D1*
X92986Y32483D1*
X92926Y32173D1*
X92740Y31890D1*
X92611Y31751D1*
Y28904D1*
X92125D1*
X92126Y28666D1*
X92061Y28347D1*
X92085Y28413D1*
X92227Y28493D1*
X92749Y29015D1*
X93010Y29192D1*
X93341Y29261D1*
X97439D1*
X97435Y31801D1*
X99984D1*
X99975Y32724D1*
X99490Y32715D1*
Y35561D1*
X102136Y35551D1*
X102342Y35561D1*
X103602D1*
X103188Y35680D1*
X92942D1*
X92633Y35739D1*
X92329Y35946D1*
X92316Y35069D1*
X92326Y34793D1*
Y34327D1*
X92458Y34281D1*
X92724Y34111D1*
X92908Y33855D1*
X92983Y33539D1*
X91006Y32529D2*
X89994D1*
X90062Y32379D1*
X90135Y32071D1*
X90113Y31747D1*
X90451Y31751D1*
X90486Y31867D1*
X90633Y32146D1*
X91011Y32531D1*
X90687Y32204D1*
X86926Y37740D2*
X86916Y37609D1*
X86926Y37333D1*
X86916Y36339D1*
X86926Y36063D1*
X86916Y35069D1*
X86926Y34793D1*
Y34525D1*
X87085Y34603D1*
X87390Y34689D1*
X87706Y34692D1*
X88012Y34610D1*
X88123Y34545D1*
X88122Y34773D1*
X88187Y35091D1*
X88328Y35320D1*
X88215Y35450D1*
X87555Y36110D1*
X87378Y36371D1*
X87310Y36703D1*
Y37764D1*
X87145Y37745D1*
X87182Y37747D1*
X86916Y32529D2*
X83860D1*
X83866Y31752D1*
X84351Y31751D1*
Y29558D1*
X84882Y29560D1*
X84885Y31751D1*
X87531D1*
Y28904D1*
X87045D1*
X87218Y28844D1*
X90284D1*
X90071Y28904D1*
X89965D1*
Y31335D1*
X89777Y31100D1*
X89522Y30914D1*
X89226Y30802D1*
X88910Y30773D1*
X88599Y30828D1*
X88313Y30964D1*
X88074Y31172D1*
X87898Y31435D1*
X87799Y31736D1*
X87783Y32052D1*
X87866Y32387D1*
X87508Y32340D1*
X87196Y32396D1*
X86920Y32528D1*
X18695Y76886D2*
Y77521D1*
X21641D1*
Y74575D1*
X18695D1*
Y75219D1*
X17653Y75210D1*
X17343Y75269D1*
X17025Y75490D1*
X17031Y74740D1*
X15151Y74728D1*
Y72852D1*
X15328Y72977D1*
X15639Y73071D1*
X15380Y73000D1*
X15669Y73354D1*
Y73661D1*
X18316Y73651D1*
X18522Y73661D1*
X20216D1*
Y70814D1*
X19829D1*
X20019Y70494D1*
X20093Y70186D1*
X20076Y69901D1*
X21641D1*
Y67966D1*
X24547Y67971D1*
X24020Y68495D1*
X23843Y68756D1*
X23775Y69088D1*
Y70824D1*
X23290Y70814D1*
Y73661D1*
X23776D1*
X23775Y75348D1*
X23834Y75658D1*
X24020Y75940D1*
X24680Y76600D1*
X24941Y76777D1*
X25273Y76846D1*
X34510D1*
X34308Y77050D1*
X34135Y77315D1*
X34026Y77613D1*
X33985Y77927D1*
X34014Y78242D1*
X34113Y78543D1*
X34276Y78815D1*
X34495Y79044D1*
X34768Y79223D1*
X34535Y79369D1*
X34308Y79590D1*
X34135Y79855D1*
X34026Y80153D1*
X33985Y80467D1*
X34014Y80782D1*
X34067Y80942D1*
X32966Y80944D1*
X33175Y80815D1*
X33396Y80589D1*
X33549Y80311D1*
X33623Y80003D1*
X33629Y79885D1*
X33586Y79571D1*
X33462Y79280D1*
X33265Y79033D1*
X33009Y78846D1*
X32713Y78734D1*
X32398Y78705D1*
X32086Y78761D1*
X31801Y78897D1*
X31659Y79020D1*
X20206D1*
X20216Y78434D1*
X17825D1*
X17831Y77050D1*
X18000Y76886D1*
X18694D1*
X97435Y22256D2*
Y24181D1*
X100381D1*
Y23536D1*
X101448Y23546D1*
X102045Y23553D1*
Y23970D1*
X101973Y24083D1*
X101880Y24385D1*
X101874Y25103D1*
X100548Y25095D1*
X99490D1*
Y27585D1*
X93693D1*
X92514Y26410D1*
X92253Y26233D1*
X91921Y26164D1*
X85661D1*
X85686Y25930D1*
X85644Y25616D1*
X85520Y25325D1*
X85322Y25078D1*
X85067Y24891D1*
X84771Y24779D1*
X84455Y24750D1*
X84144Y24806D1*
X83858Y24942D1*
X83746Y25039D1*
X75885Y25045D1*
X72641D1*
Y24909D1*
X69294D1*
Y26170D1*
X69269Y25540D1*
Y25270D1*
X69209Y24960D1*
X69023Y24677D1*
X68363Y24017D1*
X68102Y23840D1*
X67771Y23772D1*
X64615Y23758D1*
X64359Y23571D1*
X64063Y23459D1*
X63748Y23430D1*
X63436Y23486D1*
X63151Y23622D1*
X62911Y23829D1*
X62736Y24093D1*
X62637Y24393D1*
X62621Y24709D1*
X62674Y24951D1*
X62166Y24779D1*
X61850Y24750D1*
X61607Y24793D1*
X61609Y22415D1*
X61778Y22251D1*
X97438D1*
X18316Y17484D2*
X17681Y17475D1*
X16560D1*
X16568Y16396D1*
X17031D1*
Y15929D1*
X18689Y15926D1*
X18695Y16561D1*
X21641D1*
Y13615D1*
X18695D1*
Y14259D1*
X17628Y14250D1*
X17022D1*
X17031Y13780D1*
X14414D1*
Y14671D1*
X14340Y14477D1*
X14159Y14217D1*
X13921Y14008D1*
X13640Y13862D1*
X13332Y13788D1*
X13015Y13790D1*
X12708Y13868D1*
X12429Y14018D1*
X12194Y14231D1*
X12017Y14493D1*
X11909Y14791D1*
X11875Y15106D1*
X11917Y15419D1*
X12034Y15714D1*
X12218Y15971D1*
X12459Y16177D1*
X12742Y16319D1*
X13051Y16389D1*
X13368Y16383D1*
X13674Y16300D1*
X13951Y16147D1*
X14183Y15931D1*
X14356Y15666D1*
X14418Y15488D1*
X14414Y16396D1*
X14881D1*
X14885Y18898D1*
X14944Y19208D1*
X15114Y19474D1*
X15380Y19660D1*
X15639Y19731D1*
X15669Y20015D1*
Y20321D1*
X18316Y20311D1*
X18522Y20321D1*
X20216D1*
Y19735D1*
X34063Y19736D1*
X34224Y19905D1*
X34219Y29319D1*
X32466Y29317D1*
X32150Y29288D1*
X31839Y29343D1*
X31553Y29479D1*
X31314Y29687D1*
X31138Y29950D1*
X31039Y30251D1*
X31023Y30567D1*
X31073Y30789D1*
X28161Y30786D1*
Y27949D1*
X27675D1*
X27676Y27763D1*
X27611Y27444D1*
X27628Y27488D1*
X27783Y27356D1*
X29673Y27361D1*
X29890Y27591D1*
X30160Y27755D1*
X30465Y27842D1*
X30781Y27844D1*
X31087Y27763D1*
X31360Y27603D1*
X31581Y27376D1*
X31734Y27099D1*
X31808Y26791D1*
X31814Y26673D1*
X31771Y26359D1*
X31647Y26068D1*
X31450Y25820D1*
X31194Y25634D1*
X30898Y25522D1*
X30583Y25493D1*
X30271Y25548D1*
X29984Y25680D1*
X20216Y25688D1*
Y25095D1*
X17570Y25104D1*
X18316D2*
X17681Y25095D1*
X16560D1*
X16568Y24016D1*
X17031D1*
Y23549D1*
X18689Y23546D1*
X18695Y24181D1*
X21641D1*
Y21235D1*
X18695D1*
Y21879D1*
X17628Y21870D1*
X17022D1*
X17031Y21399D1*
X14414D1*
Y22291D1*
X14340Y22097D1*
X14159Y21837D1*
X13921Y21628D1*
X13640Y21482D1*
X13332Y21408D1*
X13015Y21410D1*
X12708Y21488D1*
X12429Y21638D1*
X12194Y21851D1*
X12017Y22113D1*
X11909Y22411D1*
X11875Y22726D1*
X11917Y23039D1*
X12034Y23334D1*
X12218Y23591D1*
X12459Y23797D1*
X12742Y23939D1*
X13051Y24009D1*
X13368Y24003D1*
X13674Y23920D1*
X13951Y23767D1*
X14183Y23551D1*
X14356Y23286D1*
X14418Y23108D1*
X14414Y24016D1*
X14881D1*
X14885Y26518D1*
X14949Y26836D1*
X14973Y26925D1*
X14663Y26984D1*
X14380Y27170D1*
X13720Y27830D1*
X13543Y28091D1*
X13474Y28423D1*
Y29048D1*
X13015Y29030D1*
X12708Y29108D1*
X12429Y29258D1*
X12194Y29471D1*
X12017Y29733D1*
X11909Y30031D1*
X11875Y30346D1*
X11917Y30659D1*
X12034Y30954D1*
X12218Y31211D1*
X12459Y31417D1*
X12742Y31559D1*
X13051Y31629D1*
X13368Y31623D1*
X13473Y31594D1*
X13474Y34723D1*
X13534Y35033D1*
X13720Y35315D1*
X14189Y35784D1*
X13720Y36240D1*
X13541Y36511D1*
X13570Y36448D1*
X13332Y36648D1*
X13015Y36650D1*
X12708Y36728D1*
X12429Y36878D1*
X12194Y37091D1*
X12017Y37353D1*
X11909Y37651D1*
X11875Y37966D1*
X11917Y38279D1*
X12034Y38574D1*
X12218Y38831D1*
X12459Y39037D1*
X12742Y39179D1*
X13051Y39249D1*
X13368Y39243D1*
X13473Y39214D1*
X13474Y44284D1*
X13015Y44270D1*
X12708Y44348D1*
X12429Y44498D1*
X12194Y44711D1*
X12017Y44973D1*
X11909Y45271D1*
X11875Y45586D1*
X11917Y45899D1*
X12034Y46194D1*
X12218Y46451D1*
X12459Y46657D1*
X12742Y46799D1*
X13051Y46869D1*
X13368Y46863D1*
X13473Y46834D1*
X13474Y49963D1*
X13534Y50273D1*
X13720Y50555D1*
X14380Y51215D1*
X14641Y51392D1*
X14973Y51461D1*
X18893D1*
X19203Y51401D1*
X19469Y51231D1*
X19655Y50966D1*
X19792Y50801D1*
X20216D1*
Y47954D1*
X17825D1*
X17831Y46570D1*
X18000Y46406D1*
X18695D1*
Y47041D1*
X21641D1*
Y44095D1*
X18695D1*
Y44739D1*
X17653Y44730D1*
X17343Y44789D1*
X17025Y45010D1*
X17031Y44260D1*
X15151Y44248D1*
Y42372D1*
X15328Y42497D1*
X15639Y42591D1*
X15380Y42520D1*
X15669Y42875D1*
Y43181D1*
X18316Y43171D1*
X18522Y43181D1*
X20216D1*
Y42595D1*
X23109Y42596D1*
X23207Y42688D1*
X23478Y42853D1*
X23782Y42939D1*
X24099Y42942D1*
X24405Y42860D1*
X24567Y42765D1*
X26669Y42766D1*
X26660Y44228D1*
Y52261D1*
X26719Y52571D1*
X26905Y52853D1*
X27122Y53071D1*
X25908Y53073D1*
X25598Y53132D1*
X25315Y53318D1*
X24655Y53978D1*
X24478Y54239D1*
X24410Y54571D1*
Y57478D1*
X23924Y57480D1*
Y60326D1*
X24411D1*
X24410Y62688D1*
X24469Y62998D1*
X24655Y63280D1*
X25315Y63940D1*
X25586Y64120D1*
X25523Y64090D1*
X25713Y64249D1*
X25299Y64663D1*
X25254Y64309D1*
X25130Y64018D1*
X24932Y63770D1*
X24677Y63584D1*
X24381Y63472D1*
X24065Y63443D1*
X23754Y63498D1*
X23468Y63634D1*
X23296Y63784D1*
X20211Y63780D1*
X20216Y63194D1*
X17570Y63204D1*
X17363Y63194D1*
X16560D1*
X16561Y62107D1*
X17031Y62116D1*
Y61649D1*
X18689Y61646D1*
X18695Y62281D1*
X21641D1*
Y59334D1*
X18695D1*
Y59979D1*
X17628Y59970D1*
X17022D1*
X17031Y59500D1*
X14414D1*
Y60363D1*
X14340Y60197D1*
X14159Y59937D1*
X13921Y59728D1*
X13640Y59582D1*
X13332Y59508D1*
X13015Y59510D1*
X12708Y59588D1*
X12429Y59738D1*
X12194Y59951D1*
X12017Y60213D1*
X11909Y60511D1*
X11875Y60826D1*
X11917Y61139D1*
X12034Y61434D1*
X12218Y61691D1*
X12459Y61897D1*
X12742Y62039D1*
X13051Y62109D1*
X13368Y62103D1*
X13674Y62020D1*
X13951Y61867D1*
X14183Y61651D1*
X14356Y61386D1*
X14418Y61208D1*
X14414Y62116D1*
X14881D1*
X14885Y64618D1*
X14949Y64936D1*
X14933Y64893D1*
X14808Y65025D1*
X12713D1*
X12403Y65084D1*
X12120Y65270D1*
X11460Y65930D1*
X11283Y66191D1*
X11215Y66523D1*
Y95683D1*
X11274Y95993D1*
X11460Y96275D1*
X12120Y96935D1*
X12381Y97112D1*
X12713Y97181D1*
X24663D1*
X24973Y97121D1*
X25255Y96935D1*
X25915Y96275D1*
X26092Y96014D1*
X26161Y95683D1*
Y88138D1*
X26101Y87828D1*
X25915Y87545D1*
X25255Y86885D1*
X24994Y86708D1*
X24663Y86640D1*
X20208D1*
X20216Y86055D1*
X17570Y86064D1*
X17363Y86055D1*
X16560D1*
X16561Y84967D1*
X17031Y84976D1*
Y84509D1*
X18689Y84506D1*
X18695Y85141D1*
X21641D1*
Y82194D1*
X18695D1*
Y82839D1*
X17628Y82830D1*
X17022D1*
X17031Y82359D1*
X15151Y82348D1*
Y80472D1*
X15328Y80597D1*
X15639Y80691D1*
X15380Y80620D1*
X15669Y80974D1*
Y81281D1*
X18316Y81271D1*
X18522Y81281D1*
X20216D1*
Y80695D1*
X29678Y80696D1*
X29491Y80794D1*
X29251Y81002D1*
X29076Y81265D1*
X28977Y81566D1*
X28961Y81882D1*
X29029Y82191D1*
X29178Y82471D1*
X29395Y82701D1*
X29665Y82865D1*
X29970Y82952D1*
X30286Y82954D1*
X30592Y82873D1*
X30865Y82713D1*
X30955Y82621D1*
X34037D1*
X33985Y83007D1*
X34014Y83322D1*
X34054Y83445D1*
X30867Y83440D1*
X30557Y83499D1*
X30274Y83685D1*
X29614Y84345D1*
X29437Y84606D1*
X29369Y84938D1*
Y103938D1*
X29428Y104248D1*
X29614Y104530D1*
X30274Y105190D1*
X30536Y105367D1*
X30867Y105436D1*
X33993D1*
X33985Y107316D1*
X36831D1*
Y106730D1*
X41609Y106731D1*
X41605Y107316D1*
X44451D1*
Y106770D1*
X44655Y106984D1*
X44919Y107159D1*
X45215Y107271D1*
X45529Y107315D1*
X45845Y107288D1*
X46147Y107193D1*
X46420Y107032D1*
X46651Y106815D1*
X46712Y106725D1*
X49935Y106729D1*
X51765Y106722D1*
Y107316D1*
X54611D1*
Y104469D1*
X54065D1*
X54271Y104275D1*
X54448Y104013D1*
X54563Y103718D1*
X54611Y103353D1*
X54575Y103038D1*
X54527Y102897D1*
X57733Y102896D1*
X58043Y102836D1*
X58325Y102650D1*
X58873Y102102D1*
X58875Y106478D1*
X58934Y106788D1*
X59120Y107070D1*
X59780Y107730D1*
X60041Y107907D1*
X60373Y107976D1*
X88478D1*
X88788Y107916D1*
X89071Y107730D1*
X89731Y107070D1*
X89908Y106809D1*
X89976Y106478D1*
Y105317D1*
X90365Y105456D1*
X95856Y105461D1*
X106363D1*
X106673Y105401D1*
X106955Y105215D1*
X107615Y104555D1*
X107792Y104294D1*
X107861Y103963D1*
Y22073D1*
X107801Y21763D1*
X107615Y21480D1*
X106955Y20820D1*
X106694Y20643D1*
X106363Y20575D1*
X61431D1*
X61121Y20634D1*
X60838Y20820D1*
X60178Y21480D1*
X60001Y21741D1*
X59933Y22073D1*
Y30303D1*
X59992Y30613D1*
X60178Y30895D1*
X60838Y31555D1*
X61100Y31732D1*
X61431Y31801D1*
X63346D1*
X63240Y32140D1*
X63234Y34290D1*
X63299Y34608D1*
X63275Y34543D1*
X63215Y34610D1*
X57231Y28625D1*
X57376Y28626D1*
X57686Y28566D1*
X57968Y28380D1*
X58628Y27720D1*
X58805Y27459D1*
X58874Y27128D1*
Y22122D1*
X58814Y21812D1*
X58628Y21529D1*
X57968Y20869D1*
X57707Y20692D1*
X57376Y20624D1*
X41866D1*
X41556Y20683D1*
X41273Y20869D1*
X39793Y22350D1*
X39429Y22413D1*
X39143Y22549D1*
X38904Y22757D1*
X38728Y23020D1*
X38629Y23321D1*
X38613Y23637D1*
X38682Y23946D1*
X38830Y24226D1*
X39047Y24456D1*
X39318Y24620D1*
X39622Y24707D1*
X39939Y24709D1*
X40245Y24628D1*
X40518Y24468D1*
X40739Y24241D1*
X40892Y23964D1*
X40971Y23541D1*
X42214Y22299D1*
X57036Y22300D1*
X57197Y22469D1*
Y26775D1*
X57028Y26950D1*
X55428Y26949D1*
X55491Y26590D1*
X55449Y26276D1*
X55325Y25985D1*
X55127Y25738D1*
X54872Y25551D1*
X54576Y25439D1*
X54260Y25410D1*
X53949Y25466D1*
X53663Y25602D1*
X53566Y25686D1*
X51063Y25680D1*
X51051Y25586D1*
Y25119D1*
X51337Y25202D1*
X51654Y25204D1*
X51960Y25123D1*
X52233Y24963D1*
X52454Y24736D1*
X52607Y24459D1*
X52680Y24151D1*
X52686Y24033D1*
X52644Y23719D1*
X52520Y23428D1*
X52323Y23180D1*
X52067Y22994D1*
X51771Y22882D1*
X51455Y22853D1*
X51144Y22908D1*
X50858Y23044D1*
X50686Y23193D1*
X47558Y23194D1*
X47248Y23254D1*
X46965Y23440D1*
X46300Y24108D1*
X46161Y24119D1*
X45845Y24090D1*
X45534Y24146D1*
X45257Y24278D1*
X42304Y24274D1*
X42314Y26221D1*
X42304Y26497D1*
Y26943D1*
X40573Y26950D1*
X40263Y27009D1*
X39980Y27195D1*
X39047Y28128D1*
X38686Y28188D1*
X38401Y28324D1*
X38161Y28532D1*
X37986Y28795D1*
X37887Y29096D1*
X37871Y29412D1*
X37939Y29721D1*
X38088Y30001D1*
X38305Y30231D1*
X38575Y30395D1*
X38861Y30484D1*
X38929Y30793D1*
X39078Y31073D1*
X39295Y31303D1*
X39565Y31468D1*
X39870Y31554D1*
X40186Y31557D1*
X40492Y31475D1*
X40765Y31315D1*
X40910Y31167D1*
X42308Y31166D1*
X42304Y32023D1*
X38411Y32030D1*
X38416Y31224D1*
X35905D1*
X35901Y19558D1*
X35841Y19248D1*
X35655Y18965D1*
X34995Y18305D1*
X34734Y18128D1*
X34402Y18060D1*
X20216Y18068D1*
Y17475D1*
X17570Y17484D1*
X18316Y93684D2*
X17681Y93675D1*
X16560D1*
X16568Y92596D1*
X17031D1*
Y92129D1*
X18689Y92126D1*
X18695Y92761D1*
X21641D1*
Y89815D1*
X18695D1*
Y90459D1*
X17628Y90450D1*
X17022D1*
X17031Y89980D1*
X14414D1*
Y90871D1*
X14340Y90677D1*
X14159Y90417D1*
X13921Y90208D1*
X13640Y90062D1*
X13332Y89988D1*
X13015Y89990D1*
X12891Y90022D1*
X12887Y84932D1*
X13051Y84969D1*
X13368Y84963D1*
X13473Y84934D1*
X13474Y88063D1*
X13534Y88373D1*
X13720Y88655D1*
X14380Y89315D1*
X14641Y89492D1*
X14973Y89561D1*
X22999D1*
X23164Y89730D1*
Y94095D1*
X22995Y94260D1*
X20216Y94268D1*
Y93675D1*
X17570Y93684D1*
X25827Y70814D2*
X25450D1*
X25451Y69430D1*
X25775Y69605D1*
X25769Y70493D1*
X25829Y70803D1*
X25999Y71069D1*
X30762Y57480D2*
X30269D1*
Y59910D1*
X29908Y59759D1*
X29593Y59730D1*
X29281Y59786D1*
X28996Y59922D1*
X28756Y60129D1*
X28581Y60393D1*
X28482Y60693D1*
X28466Y61009D1*
X28476Y61104D1*
X26611D1*
X26210Y61050D1*
X26084Y61073D1*
X26086Y60316D1*
X26571Y60326D1*
Y57480D1*
X26085D1*
X26086Y54924D1*
X26255Y54749D1*
X31295D1*
X31000Y55038D1*
X30822Y55299D1*
X30754Y55630D1*
Y57486D1*
X34371Y58321D2*
X36196D1*
Y55810D1*
X48455Y55808D1*
X48147Y55934D1*
X40216D1*
X39906Y55993D1*
X39623Y56179D1*
X37806Y57997D1*
X37449Y58053D1*
X37163Y58189D1*
X36924Y58397D1*
X36748Y58660D1*
X36649Y58961D1*
X36633Y59277D1*
X36702Y59586D1*
X36850Y59866D1*
X37067Y60096D1*
X37211Y60183D1*
X36674Y60732D1*
X35400Y59450D1*
X35139Y59273D1*
X34807Y59205D1*
X34361D1*
X34366Y58326D1*
X25515Y28594D2*
Y30786D1*
X21641Y30779D1*
Y28855D1*
X18695D1*
Y29499D1*
X17628Y29490D1*
X17031Y29483D1*
Y29019D1*
X15151Y29008D1*
Y28760D1*
X15320Y28601D1*
X25520D1*
X43111Y71097D2*
X43101Y69360D1*
X43111Y69083D1*
X43101Y68090D1*
X43111Y67813D1*
Y67347D1*
X43474Y67162D1*
X43672Y66917D1*
X43766Y66615D1*
X43771Y61125D1*
Y60841D1*
X43711Y60531D1*
X43525Y60248D1*
X43378Y60101D1*
X43731Y60051D1*
X44036Y59871D1*
X44971Y58947D1*
X45277Y58865D1*
X45550Y58705D1*
X45771Y58479D1*
X45924Y58201D1*
X45998Y57893D1*
X45981Y57608D1*
X48262Y57610D1*
X48370Y57703D1*
X48640Y57868D1*
X48945Y57954D1*
X49261Y57957D1*
X49567Y57875D1*
X49840Y57715D1*
X50061Y57489D1*
X50214Y57211D1*
X50288Y56903D1*
X50294Y56785D1*
X50251Y56471D1*
X50127Y56180D1*
X49930Y55933D1*
X49762Y55810D1*
X50340Y55808D1*
X50703Y56053D1*
X51007Y56139D1*
X51333D1*
X51340Y60052D1*
X51171Y60224D1*
X46003D1*
X45693Y60283D1*
X45410Y60469D1*
X44750Y61129D1*
X44573Y61391D1*
X44505Y61722D1*
Y65253D1*
X44564Y65563D1*
X44734Y65829D1*
X45000Y66015D1*
X45165Y66075D1*
X45174Y66226D1*
X45165Y66502D1*
X45174Y67496D1*
X45165Y67772D1*
X45174Y68766D1*
X45165Y69042D1*
Y70036D1*
X47496D1*
X47494Y71533D1*
X47207Y71690D1*
X46952Y71504D1*
X46656Y71392D1*
X46340Y71363D1*
X46029Y71418D1*
X45743Y71554D1*
X45504Y71762D1*
X45328Y72025D1*
X45229Y72326D1*
X45213Y72642D1*
X45282Y72951D1*
X45430Y73231D1*
X45559Y73367D1*
X44933Y73368D1*
X44623Y73427D1*
X44340Y73613D1*
X43680Y74273D1*
X43503Y74534D1*
X43435Y74866D1*
X43439Y76598D1*
X43070Y76533D1*
X43119Y76434D1*
X43193Y76126D1*
X43199Y76008D1*
X43156Y75694D1*
X43032Y75403D1*
X42835Y75155D1*
X42579Y74969D1*
X42283Y74857D1*
X41968Y74828D1*
X41656Y74883D1*
X41371Y75019D1*
X41199Y75168D1*
X25617Y75169D1*
X25451Y75000D1*
X25443Y73661D1*
X25936D1*
Y70996D1*
X25999Y71069D1*
X26255Y71253D1*
X26608Y71331D1*
X26649D1*
X26825Y71500D1*
X26829Y73036D1*
X26601Y73345D1*
X26502Y73646D1*
X26486Y73962D1*
X26554Y74271D1*
X26703Y74551D1*
X26920Y74781D1*
X27190Y74945D1*
X27495Y75032D1*
X27811Y75034D1*
X28117Y74953D1*
X28365Y74808D1*
X28593Y74945D1*
X28897Y75032D1*
X29214Y75034D1*
X29520Y74953D1*
X29793Y74793D1*
X30014Y74566D1*
X30167Y74289D1*
X30240Y73981D1*
X30218Y73657D1*
X30381Y73661D1*
Y70814D1*
X30192D1*
X30337Y70617D1*
X30431Y70315D1*
X30436Y69260D1*
X30781Y69259D1*
X31087Y69178D1*
X31360Y69018D1*
X31581Y68791D1*
X31734Y68514D1*
X31808Y68206D1*
X31814Y68088D1*
X31771Y67774D1*
X31647Y67483D1*
X31468Y67258D1*
X31471Y66887D1*
X31829Y66730D1*
X31839Y66861D1*
X31829Y67137D1*
X31839Y68131D1*
X31829Y68407D1*
Y69401D1*
X34161D1*
X34159Y70720D1*
X33990Y70880D1*
X33265Y70865D1*
X33009Y70679D1*
X32713Y70567D1*
X32398Y70538D1*
X32086Y70593D1*
X31801Y70729D1*
X31561Y70937D1*
X31386Y71200D1*
X31287Y71501D1*
X31271Y71817D1*
X31339Y72126D1*
X31488Y72406D1*
X31705Y72636D1*
X31975Y72800D1*
X32280Y72887D1*
X32596Y72889D1*
X32902Y72808D1*
X33175Y72648D1*
X33265Y72556D1*
X34338D1*
X34648Y72496D1*
X34930Y72310D1*
X35590Y71650D1*
X35767Y71389D1*
X35836Y71058D1*
Y68447D1*
X35890Y68424D1*
Y69116D1*
X37965Y69130D1*
X37788Y69391D1*
X37720Y69723D1*
Y72610D1*
X37550Y72777D1*
X37060Y72763D1*
X36804Y72576D1*
X36508Y72464D1*
X36193Y72435D1*
X35881Y72491D1*
X35596Y72627D1*
X35356Y72834D1*
X35181Y73098D1*
X35082Y73398D1*
X35066Y73714D1*
X35134Y74023D1*
X35283Y74303D1*
X35500Y74533D1*
X35770Y74698D1*
X36075Y74784D1*
X36391Y74787D1*
X36697Y74705D1*
X36970Y74545D1*
X37060Y74453D1*
X37898D1*
X38208Y74394D1*
X38490Y74208D1*
X39150Y73548D1*
X39327Y73287D1*
X39396Y72955D1*
Y72191D1*
X39548Y72292D1*
X39850Y72386D1*
X41200Y72392D1*
X41275Y72471D1*
X41545Y72635D1*
X41850Y72722D1*
X42166Y72724D1*
X42472Y72643D1*
X42745Y72483D1*
X42966Y72256D1*
X43119Y71979D1*
X43193Y71671D1*
X43199Y71553D1*
X43156Y71239D1*
X43114Y71139D1*
X73740Y62920D2*
X73749Y63051D1*
X73740Y63327D1*
X73749Y64321D1*
X73740Y64597D1*
X73749Y65591D1*
X73740Y65867D1*
Y66313D1*
X73305Y66379D1*
X73340Y66368D1*
X73298Y66153D1*
Y63087D1*
X74444Y69401D2*
X76845D1*
X77020Y69500D1*
X77325Y69587D1*
X77651D1*
X77658Y71654D1*
X76713Y72608D1*
X76356Y72464D1*
X76040Y72435D1*
X75729Y72491D1*
X75443Y72627D1*
X75204Y72834D1*
X75028Y73098D1*
X74929Y73398D1*
X74913Y73714D1*
X74982Y74023D1*
X75130Y74303D1*
X75205Y74382D1*
X74788Y74789D1*
X74796Y74688D1*
X74754Y74374D1*
X74630Y74083D1*
X74451Y73858D1*
X74453Y69399D1*
X67876Y48555D2*
X67866Y48405D1*
X67876Y48128D1*
Y47523D1*
X67963Y47577D1*
X68265Y47671D1*
X69930Y47680D1*
X69939Y47811D1*
X69930Y48087D1*
X69939Y49081D1*
X69930Y49357D1*
X69939Y50351D1*
X69930Y50627D1*
X69939Y51621D1*
X69930Y51897D1*
Y52891D1*
X73276D1*
Y52762D1*
X78588Y52756D1*
X87653D1*
X87963Y52696D1*
X88246Y52510D1*
X88906Y51850D1*
X89083Y51589D1*
X89151Y51258D1*
Y44997D1*
X91441Y44991D1*
Y42345D1*
X90835D1*
X90672Y41999D1*
X89649Y40969D1*
X89644Y40826D1*
X92326D1*
Y40697D1*
X92719Y40894D1*
X92852Y41028D1*
X92686Y41112D1*
X92446Y41319D1*
X92271Y41583D1*
X92172Y41883D1*
X92156Y42199D1*
X92188Y42344D1*
X91770Y42345D1*
Y44991D1*
X94616D1*
Y42798D1*
X95420Y43595D1*
X95681Y43772D1*
X96013Y43841D1*
X103484D1*
X103639Y44260D1*
X102045D1*
Y44726D1*
X100386Y44730D1*
X100381Y44095D1*
X97435D1*
Y47041D1*
X100381D1*
Y46396D1*
X101448Y46406D1*
X102053D1*
X102045Y46830D1*
X101973Y46943D1*
X101880Y47245D1*
X101874Y47963D1*
X100548Y47954D1*
X99490D1*
Y48540D1*
X95683D1*
X95256Y48118D1*
X95214Y47809D1*
X95090Y47518D1*
X94892Y47270D1*
X94637Y47084D1*
X94341Y46972D1*
X94025Y46943D1*
X93714Y46998D1*
X93428Y47134D1*
X93189Y47342D1*
X93013Y47605D1*
X92914Y47906D1*
X92898Y48222D1*
X92967Y48531D1*
X93115Y48811D1*
X93332Y49041D1*
X93603Y49205D1*
X93907Y49292D1*
X94056Y49293D1*
X94737Y49970D1*
X94999Y50147D1*
X95330Y50216D1*
X99487D1*
X99490Y50801D1*
X102136Y50791D1*
X102342Y50801D1*
X103642D1*
X103644Y51888D1*
X102045Y51880D1*
Y52346D1*
X100386Y52350D1*
X100381Y51714D1*
X97435D1*
Y54661D1*
X100381D1*
Y54016D1*
X101448Y54026D1*
X102053D1*
X102045Y54450D1*
X101973Y54563D1*
X101880Y54865D1*
X101874Y55583D1*
X100548Y55575D1*
X99490D1*
Y58421D1*
X99996D1*
X100018Y58509D1*
X100173Y58784D1*
X100418Y58982D1*
X100720Y59076D1*
X103823Y59081D1*
X104133Y59021D1*
X104415Y58835D1*
X105075Y58175D1*
X105252Y57914D1*
X105321Y57583D1*
Y54358D1*
X105452Y54419D1*
X105761Y54489D1*
X106078Y54483D1*
X106183Y54454D1*
X106184Y59528D1*
X105725Y59510D1*
X105418Y59588D1*
X105139Y59738D1*
X104904Y59951D1*
X104727Y60213D1*
X104663Y60390D1*
X104661Y59500D1*
X102045D1*
Y59966D1*
X100386Y59970D1*
X100381Y59334D1*
X97435D1*
Y61884D1*
X96343Y61875D1*
X94844D1*
X95345Y61375D1*
X95522Y61114D1*
X95591Y60783D1*
Y56607D1*
X95531Y56297D1*
X95361Y56031D1*
X95105Y55847D1*
X94752Y55769D1*
X90571D1*
X90253Y55834D1*
X90318Y55810D1*
X90171Y55781D1*
Y55675D1*
X89585D1*
X89827Y55483D1*
X90100Y55323D1*
X90321Y55096D1*
X90474Y54819D1*
X90548Y54511D1*
X90554Y54393D1*
X90511Y54079D1*
X90387Y53788D1*
X90190Y53540D1*
X89934Y53354D1*
X89638Y53242D1*
X89323Y53213D1*
X89011Y53268D1*
X88726Y53404D1*
X88554Y53554D1*
X78330Y53555D1*
X78054Y53354D1*
X77758Y53242D1*
X77443Y53213D1*
X77131Y53268D1*
X76846Y53404D1*
X76606Y53612D1*
X76431Y53875D1*
X76332Y54176D1*
X76331Y54560D1*
X69370Y54557D1*
X69196Y54388D1*
Y50038D1*
X69136Y49728D1*
X68950Y49445D1*
X68290Y48785D1*
X68019Y48606D1*
X68082Y48635D1*
X51045Y30031D2*
X51051Y29902D1*
X56134Y29896D1*
X63152Y36918D1*
X63413Y37095D1*
X63745Y37163D1*
X67843D1*
X67840Y38300D1*
X67625Y38280D1*
X67314Y38336D1*
X67028Y38472D1*
X66856Y38621D1*
X65687Y38608D1*
X65432Y38421D1*
X65136Y38309D1*
X64820Y38280D1*
X64509Y38336D1*
X64223Y38472D1*
X63984Y38679D1*
X63808Y38943D1*
X63709Y39243D1*
X63693Y39559D1*
X63762Y39868D1*
X63910Y40148D1*
X64127Y40378D1*
X64398Y40543D1*
X64702Y40629D1*
X65019Y40632D1*
X65325Y40550D1*
X65598Y40390D1*
X65688Y40298D1*
X66845D1*
X66932Y40378D1*
X67203Y40543D1*
X67507Y40629D1*
X67814Y40632D1*
X67383Y40780D1*
X61658D1*
X61679Y40615D1*
X61636Y40301D1*
X61512Y40010D1*
X61315Y39763D1*
X61059Y39576D1*
X60763Y39464D1*
X60655Y39454D1*
X59406Y38213D1*
X59409Y37041D1*
X59451Y36738D1*
X59409Y36424D1*
X59285Y36133D1*
X59087Y35885D1*
X58832Y35699D1*
X58536Y35587D1*
X58220Y35558D1*
X57909Y35613D1*
X57623Y35749D1*
X57384Y35957D1*
X57208Y36220D1*
X57109Y36521D1*
X57108Y36905D1*
X48649Y36902D1*
X48479Y36733D1*
X48468Y32571D1*
X50552D1*
X50785Y32705D1*
X51090Y32792D1*
X51406Y32794D1*
X51712Y32713D1*
X51985Y32553D1*
X52206Y32326D1*
X52359Y32049D1*
X52433Y31741D1*
X52439Y31623D1*
X52396Y31309D1*
X52272Y31018D1*
X52075Y30770D1*
X51819Y30584D1*
X51523Y30472D1*
X51208Y30443D1*
X51051Y30457D1*
Y30031D1*
X45651Y30775D2*
X45641Y30624D1*
X45651Y30348D1*
X45641Y29355D1*
X45651Y29078D1*
X45641Y28085D1*
X45651Y27808D1*
Y27362D1*
X46238Y27356D1*
X46556Y27291D1*
X46491Y27315D1*
X46720Y27470D1*
Y27778D1*
X46045Y28450D1*
X45868Y28711D1*
X45800Y29043D1*
Y30819D1*
X58202Y17927D2*
X58077Y18118D1*
X57957Y18411D1*
X57894Y18722D1*
X57890Y19039D1*
X57947Y19351D1*
X58061Y19646D1*
X58229Y19915D1*
X58445Y20147D1*
X58701Y20335D1*
X58987Y20471D1*
X59294Y20550D1*
X59875Y20571D1*
X62058Y20561D1*
X62425Y20530D1*
X62727Y20431D1*
X63004Y20277D1*
X63247Y20074D1*
X63448Y19829D1*
X63598Y19550D1*
X63694Y19247D1*
X63731Y18898D1*
X63701Y18582D1*
X63612Y18278D1*
X63467Y17996D1*
X63271Y17746D1*
X63032Y17538D1*
X62758Y17378D1*
X62459Y17273D1*
X62057Y17231D1*
X61730Y17225D1*
X61735Y16993D1*
X61681Y16681D1*
X61526Y16406D1*
X61287Y16199D1*
X60983Y16084D1*
X60808Y16066D1*
X55202D1*
X55211Y15520D1*
X51164D1*
Y18466D1*
X55211D1*
Y17920D1*
X58198D1*
X63842Y17140D2*
X63840Y17289D1*
X63897Y17601D1*
X64011Y17896D1*
X64179Y18165D1*
X64395Y18397D1*
X64651Y18585D1*
X64937Y18721D1*
X65244Y18800D1*
X65561Y18820D1*
X65875Y18780D1*
X66177Y18681D1*
X66454Y18527D1*
X66697Y18324D1*
X66898Y18079D1*
X67048Y17800D1*
X67144Y17497D1*
X67181Y17148D1*
X67171Y14648D1*
X67151Y14332D1*
X67062Y14028D1*
X66917Y13746D1*
X66721Y13496D1*
X66482Y13288D1*
X66208Y13128D1*
X65909Y13023D1*
X65596Y12977D1*
X65279Y12990D1*
X64970Y13063D1*
X64681Y13193D1*
X64422Y13375D1*
X64201Y13603D1*
X64027Y13868D1*
X63907Y14161D1*
X63844Y14472D1*
X63834Y14965D1*
X63844Y17148D1*
X81563Y70180D2*
X81069D1*
Y73026D1*
X82707D1*
X82700Y74206D1*
X82764Y74524D1*
X82805Y74688D1*
X79481D1*
X79456Y74539D1*
X79332Y74248D1*
X79135Y74000D1*
X78879Y73814D1*
X78583Y73702D1*
X78268Y73673D1*
X78122Y73699D1*
X78334Y73357D1*
X79088Y72603D1*
X79265Y72342D1*
X79334Y72011D1*
Y67358D1*
X79274Y67048D1*
X79104Y66782D1*
X78848Y66598D1*
X78496Y66520D1*
X77910D1*
X77746Y66351D1*
Y65888D1*
X77681Y65569D1*
X77635Y65456D1*
X78895D1*
X79690Y66256D1*
X79694Y67358D1*
X79753Y67668D1*
X79939Y67951D1*
X81560Y69571D1*
X81554Y70181D1*
X88938Y73661D2*
X89431D1*
Y73413D1*
X89617Y73464D1*
X89934Y73467D1*
X90240Y73385D1*
X90513Y73225D1*
X90734Y72999D1*
X90887Y72721D1*
X90960Y72413D1*
X90966Y72295D1*
X90924Y71981D1*
X90800Y71690D1*
X90602Y71443D1*
X90347Y71256D1*
X90051Y71144D1*
X89735Y71115D1*
X89433Y71169D1*
X89431Y71073D1*
X90594Y71071D1*
X90963Y71315D1*
X91267Y71402D1*
X91584Y71404D1*
X91890Y71323D1*
X92163Y71163D1*
X92384Y70936D1*
X92537Y70659D1*
X92585Y70457D1*
X92637Y70641D1*
X92785Y70921D1*
X93002Y71151D1*
X93129Y71228D1*
X93135Y73661D1*
X93621D1*
X93619Y74510D1*
X93178Y74683D1*
X92904Y74474D1*
X92608Y74362D1*
X92293Y74333D1*
X91981Y74388D1*
X91696Y74524D1*
X91509Y74686D1*
X88946Y74688D1*
Y73665D1*
X82242Y44671D2*
X84618Y44686D1*
X84835Y44916D1*
X85105Y45080D1*
X85410Y45167D1*
X85726Y45169D1*
X86032Y45088D1*
X86305Y44928D1*
X86526Y44701D1*
X86679Y44424D1*
X86732Y44203D1*
X86815Y44576D1*
Y48277D1*
X86600Y48263D1*
X86289Y48318D1*
X86003Y48454D1*
X85906Y48539D1*
X80741Y48540D1*
X81233Y48040D1*
X81410Y47779D1*
X81479Y47448D1*
Y44362D1*
X81924Y44247D1*
Y44671D1*
X82242D1*
X81704Y29569D2*
Y31751D1*
X82191D1*
X82189Y33300D1*
X82020Y33459D1*
X75307Y33455D1*
X75580Y33295D1*
X75801Y33069D1*
X75954Y32791D1*
X76028Y32483D1*
X76034Y32365D1*
X75991Y32051D1*
X75867Y31760D1*
X75670Y31513D1*
X75414Y31326D1*
X75118Y31214D1*
X74930Y31187D1*
X74961Y30963D1*
X74919Y30649D1*
X74868Y30531D1*
X77208D1*
X77327Y30643D1*
X77598Y30808D1*
X77902Y30894D1*
X78228D1*
X78282Y31123D1*
X78430Y31403D1*
X78647Y31633D1*
X78918Y31798D1*
X79222Y31884D1*
X79539Y31887D1*
X79845Y31805D1*
X80118Y31645D1*
X80339Y31419D1*
X80492Y31141D1*
X80565Y30833D1*
X80571Y30715D1*
X80529Y30401D1*
X80405Y30110D1*
X80226Y29886D1*
X80228Y29733D1*
X80397Y29560D1*
X81707D1*
X52279Y63142D2*
X52356Y62725D1*
X52314Y62411D1*
X52190Y62120D1*
X51993Y61873D1*
X51905Y61808D1*
X52111Y61655D1*
X52771Y60995D1*
X52948Y60734D1*
X53016Y60402D1*
X53010Y53802D1*
X53196Y53611D1*
X53349Y53334D1*
X53423Y53026D1*
X53429Y52908D1*
X53386Y52594D1*
X53262Y52303D1*
X53065Y52055D1*
X52809Y51869D1*
X52513Y51757D1*
X52198Y51728D1*
X51886Y51783D1*
X51601Y51919D1*
X51414Y52081D1*
X45016Y52087D1*
X45006Y50944D1*
X45016Y50668D1*
Y50222D1*
X45235Y50216D1*
X45545Y50156D1*
X45828Y49970D1*
X46488Y49310D1*
X46665Y49049D1*
X46733Y48718D1*
Y47517D1*
X46885Y47600D1*
X47069Y47660D1*
X47079Y47811D1*
X47069Y48087D1*
X47079Y49081D1*
X47069Y49357D1*
X47079Y50351D1*
X47069Y50627D1*
Y51621D1*
X50416D1*
Y51591D1*
X50703Y51763D1*
X51007Y51849D1*
X51324Y51852D1*
X51630Y51770D1*
X51903Y51610D1*
X52124Y51384D1*
X52277Y51106D1*
X52350Y50798D1*
X52356Y50680D1*
X52314Y50366D1*
X52248Y50212D1*
X54745Y50216D1*
X54914Y50385D1*
Y63303D1*
X54827Y63243D1*
X54525Y63150D1*
X52280Y63145D1*
X67817Y29329D2*
X67906D1*
X68212Y29248D1*
X68485Y29088D1*
X68706Y28861D1*
X68859Y28584D1*
X68933Y28276D1*
X68914Y27971D1*
X69299Y27991D1*
X69077Y27989D1*
X69294Y27995D1*
X69304Y28126D1*
X69294Y28402D1*
X69304Y29396D1*
X69294Y29672D1*
X69304Y30666D1*
X69294Y30942D1*
X69304Y31936D1*
X69294Y32212D1*
Y33206D1*
X72641D1*
Y33077D1*
X73914Y33071D1*
X74110Y33283D1*
X74428Y33461D1*
X68070Y33459D1*
X67901Y33290D1*
Y29693D1*
X67836Y29374D1*
X67852Y29418D1*
X93226Y76428D2*
X93162Y76365D1*
X93798Y76364D1*
X94108Y76304D1*
X94390Y76118D1*
X95050Y75458D1*
X95227Y75197D1*
X95296Y74866D1*
X95288Y73661D1*
X95781D1*
Y71073D1*
X99490Y71063D1*
Y73661D1*
X102136Y73651D1*
X102342Y73661D1*
X103642D1*
X103639Y74740D1*
X102905D1*
X102886Y74621D1*
X102762Y74330D1*
X102565Y74083D1*
X102309Y73896D1*
X102013Y73784D1*
X101698Y73755D1*
X101386Y73811D1*
X101101Y73947D1*
X100861Y74154D1*
X100686Y74418D1*
X100587Y74718D1*
X100576Y74926D1*
X100376Y75121D1*
X100381Y74575D1*
X97435D1*
Y77521D1*
X99984D1*
X99975Y78440D1*
X99490Y78434D1*
Y81281D1*
X102136Y81271D1*
X102342Y81281D1*
X103642D1*
X103644Y82363D1*
X102045Y82359D1*
Y82826D1*
X100386Y82830D1*
X100381Y82194D1*
X97435D1*
Y85141D1*
X100381D1*
Y84496D1*
X101448Y84506D1*
X102053D1*
X102045Y84930D1*
X101973Y85043D1*
X101880Y85345D1*
X101874Y86063D1*
X100548Y86055D1*
X99490D1*
Y86640D1*
X93857D1*
X93695Y86470D1*
Y77245D1*
X93636Y76935D1*
X93450Y76652D1*
X93226Y76428D1*
X93835Y88316D2*
X99490Y88307D1*
Y88901D1*
X102136Y88891D1*
X102342Y88901D1*
X103642D1*
X103639Y89980D1*
X102045D1*
Y90446D1*
X100386Y90450D1*
X100381Y89815D1*
X97435D1*
Y92761D1*
X100381D1*
Y92116D1*
X101448Y92126D1*
X102053D1*
X102045Y92550D1*
X101973Y92663D1*
X101880Y92965D1*
X101874Y93683D1*
X100548Y93675D1*
X99490D1*
Y96521D1*
X99996D1*
X100018Y96609D1*
X100173Y96884D1*
X100418Y97082D1*
X100720Y97176D1*
X103823Y97181D1*
X104133Y97121D1*
X104415Y96935D1*
X105075Y96275D1*
X105252Y96014D1*
X105321Y95683D1*
X105319Y92453D1*
X105452Y92519D1*
X105761Y92589D1*
X106078Y92583D1*
X106183Y92554D1*
X106184Y97628D1*
X105725Y97610D1*
X105418Y97688D1*
X105139Y97838D1*
X104904Y98051D1*
X104727Y98313D1*
X104663Y98490D1*
X104661Y97599D1*
X102045D1*
Y98066D1*
X100386Y98070D1*
X100381Y97435D1*
X97435D1*
Y100381D1*
X100381D1*
Y99736D1*
X101448Y99746D1*
X102053D1*
X102045Y100170D1*
X101973Y100283D1*
X101880Y100585D1*
X101874Y101303D1*
X100548Y101295D1*
X99490D1*
Y101880D1*
X93203D1*
X93029Y101710D1*
Y88157D1*
X93123Y88217D1*
X93425Y88311D1*
X93835Y88316D1*
X69335Y56234D2*
X87325Y56240D1*
Y58321D1*
X90171D1*
X90180Y57836D1*
X90490Y57776D1*
X90773Y57590D1*
X90920Y57443D1*
X93914Y57445D1*
X93909Y58530D1*
X92084D1*
Y59016D1*
X90087Y59015D1*
X89746Y59088D1*
X89588Y59180D1*
X88945Y59205D1*
X88561D1*
X88251Y59264D1*
X87968Y59450D1*
X87905Y59513D1*
X87572Y59273D1*
X87241Y59205D1*
X86361Y59199D1*
Y57575D1*
X83514D1*
Y58061D1*
X82328Y58059D1*
X82097Y57891D1*
X81801Y57779D1*
X81485Y57750D1*
X81174Y57806D1*
X80888Y57942D1*
X80716Y58091D1*
X68706Y58092D1*
X68536Y57923D1*
Y56077D1*
X68623Y56135D1*
X68925Y56229D1*
X69335Y56234D1*
X107798Y108115D2*
X10960D1*
Y10960D1*
X108115D1*
Y108115D1*
X107798D1*
D16*
X53188Y105893D3*
D17*
Y103353D3*
Y100813D3*
Y98273D3*
Y95733D3*
Y93193D3*
Y90653D3*
Y88113D3*
Y85573D3*
Y83033D3*
Y80493D3*
Y77953D3*
X68428D3*
Y80493D3*
Y83033D3*
Y85573D3*
Y88113D3*
Y90653D3*
Y93193D3*
Y95733D3*
Y98273D3*
Y100813D3*
Y103353D3*
Y105893D3*
D18*
X13183Y15088D3*
D19*
X15723D3*
D18*
X13183Y22708D3*
D19*
X15723D3*
D18*
X13183Y30328D3*
D19*
X15723D3*
D18*
X13183Y37948D3*
D19*
X15723D3*
D18*
X13183Y45568D3*
D19*
X15723D3*
D18*
X13183Y53188D3*
D19*
X15723D3*
D18*
X13183Y60808D3*
D19*
X15723D3*
D18*
X13183Y68428D3*
D19*
X15723D3*
D18*
X13183Y76048D3*
D19*
X15723D3*
D18*
X13183Y83668D3*
D19*
X15723D3*
D18*
X13183Y91288D3*
D19*
X15723D3*
D18*
X13183Y98908D3*
D19*
X15723D3*
D18*
X105893Y15088D3*
D19*
X103353D3*
D18*
X105893Y22708D3*
D19*
X103353D3*
D18*
X105893Y30328D3*
D19*
X103353D3*
D18*
X105893Y37948D3*
D19*
X103353D3*
D18*
X105893Y45568D3*
D19*
X103353D3*
D18*
X105893Y53188D3*
D19*
X103353D3*
D18*
X105893Y60808D3*
D19*
X103353D3*
D18*
X105893Y68428D3*
D19*
X103353D3*
D18*
X105893Y76048D3*
D19*
X103353D3*
D18*
X105893Y83668D3*
D19*
X103353D3*
D18*
X105893Y91288D3*
D19*
X103353D3*
D18*
X105893Y98908D3*
D19*
X103353D3*
D20*
X33503Y32868D3*
Y34138D3*
Y35408D3*
Y36678D3*
Y37948D3*
Y39218D3*
Y40488D3*
X28103D3*
Y39218D3*
Y37948D3*
Y36678D3*
Y35408D3*
Y34138D3*
Y32868D3*
X33503Y62078D3*
Y63348D3*
Y64618D3*
Y65888D3*
Y67158D3*
Y68428D3*
Y69698D3*
X28103D3*
Y68428D3*
Y67158D3*
Y65888D3*
Y64618D3*
Y63348D3*
Y62078D3*
X90018Y61443D3*
Y62713D3*
Y63983D3*
Y65253D3*
Y66523D3*
Y67793D3*
Y69063D3*
X84618D3*
Y67793D3*
Y66523D3*
Y65253D3*
Y63983D3*
Y62713D3*
Y61443D3*
X90653Y33503D3*
Y34773D3*
Y36043D3*
Y37313D3*
Y38583D3*
Y39853D3*
Y41123D3*
X85253D3*
Y39853D3*
Y38583D3*
Y37313D3*
Y36043D3*
Y34773D3*
Y33503D3*
D21*
X20168Y15088D3*
D22*
X22708D3*
D21*
X20168Y22708D3*
D22*
X22708D3*
D21*
X20168Y30328D3*
D22*
X22708D3*
D21*
X20168Y37948D3*
D22*
X22708D3*
D21*
X20168Y45568D3*
D22*
X22708D3*
D21*
X20168Y53188D3*
D22*
X22708D3*
D21*
X20168Y60808D3*
D22*
X22708D3*
D21*
X20168Y68428D3*
D22*
X22708D3*
D21*
X20168Y76048D3*
D22*
X22708D3*
D21*
X20168Y83668D3*
D22*
X22708D3*
D21*
X20168Y91288D3*
D22*
X22708D3*
D21*
X20168Y98908D3*
D22*
X22708D3*
D21*
X98908D3*
D22*
X96368D3*
D21*
X98908Y91288D3*
D22*
X96368D3*
D21*
X98908Y83668D3*
D22*
X96368D3*
D21*
X98908Y76048D3*
D22*
X96368D3*
D21*
X98908Y68428D3*
D22*
X96368D3*
D21*
X98908Y60808D3*
D22*
X96368D3*
D21*
X98908Y53188D3*
D22*
X96368D3*
D16*
X76048Y100813D3*
D17*
Y98273D3*
Y95733D3*
Y93193D3*
Y90653D3*
Y88113D3*
Y85573D3*
Y83033D3*
Y80493D3*
Y77953D3*
X78588Y100813D3*
Y98273D3*
Y95733D3*
Y93193D3*
Y90653D3*
Y88113D3*
Y85573D3*
Y83033D3*
Y80493D3*
Y77953D3*
D16*
X43028Y100813D3*
D17*
Y98273D3*
Y95733D3*
Y93193D3*
Y90653D3*
Y88113D3*
Y85573D3*
Y83033D3*
Y80493D3*
Y77953D3*
X45568Y100813D3*
Y98273D3*
Y95733D3*
Y93193D3*
Y90653D3*
Y88113D3*
Y85573D3*
Y83033D3*
Y80493D3*
Y77953D3*
D16*
X76048Y103353D3*
D17*
X78588D3*
D16*
X76048Y105893D3*
D17*
X78588D3*
D16*
X43028Y103353D3*
D17*
X45568D3*
D16*
X43028Y105893D3*
D17*
X45568D3*
D16*
X35408Y90653D3*
D17*
Y88113D3*
Y85573D3*
Y83033D3*
Y80493D3*
Y77953D3*
D16*
Y105893D3*
D17*
Y103353D3*
Y100813D3*
Y98273D3*
Y95733D3*
Y93193D3*
D16*
X86208Y90653D3*
D17*
Y88113D3*
Y85573D3*
Y83033D3*
Y80493D3*
Y77953D3*
D16*
Y105893D3*
D17*
Y103353D3*
Y100813D3*
Y98273D3*
Y95733D3*
Y93193D3*
D21*
X98908Y45568D3*
D22*
X96368D3*
D21*
X98908Y37948D3*
D22*
X96368D3*
D21*
X98908Y30328D3*
D22*
X96368D3*
D21*
X98908Y22708D3*
D22*
X96368D3*
D21*
X98908Y15088D3*
D22*
X96368D3*
D23*
X16993Y18898D3*
X18893D3*
X16993Y26518D3*
X18893D3*
X16993Y34138D3*
X18893D3*
X16993Y41758D3*
X18893D3*
X16993Y49378D3*
X18893D3*
X16993Y56998D3*
X18893D3*
X16993Y64618D3*
X18893D3*
X16993Y72238D3*
X18893D3*
X16993Y79858D3*
X18893D3*
X16993Y87478D3*
X18893D3*
X16993Y95098D3*
X18893D3*
X16993Y102718D3*
X18893D3*
X24613Y72238D3*
X26513D3*
X31592Y58903D3*
X29692D3*
D24*
X34773Y56998D3*
Y58898D3*
X37313Y67793D3*
Y69693D3*
D23*
X25248Y58903D3*
X27148D3*
X29058Y72238D3*
X30958D3*
D24*
X25562Y41443D3*
Y43343D3*
D23*
X26838Y29372D3*
X28738D3*
D24*
X36992Y32547D3*
Y30647D3*
X33817Y30642D3*
Y28742D3*
D23*
X35722Y42707D3*
X33822D3*
X29058Y43028D3*
X30958D3*
D20*
X46838Y62713D3*
Y63983D3*
Y65253D3*
Y66523D3*
Y67793D3*
Y69063D3*
Y70333D3*
X41438D3*
Y69063D3*
Y67793D3*
Y66523D3*
Y65253D3*
Y63983D3*
Y62713D3*
X75413Y62078D3*
Y63348D3*
Y64618D3*
Y65888D3*
Y67158D3*
Y68428D3*
Y69698D3*
X70013D3*
Y68428D3*
Y67158D3*
Y65888D3*
Y64618D3*
Y63348D3*
Y62078D3*
X48743Y44298D3*
Y45568D3*
Y46838D3*
Y48108D3*
Y49378D3*
Y50648D3*
Y51918D3*
X43343D3*
Y50648D3*
Y49378D3*
Y48108D3*
Y46838D3*
Y45568D3*
Y44298D3*
X71603Y45568D3*
Y46838D3*
Y48108D3*
Y49378D3*
Y50648D3*
Y51918D3*
Y53188D3*
X66203D3*
Y51918D3*
Y50648D3*
Y49378D3*
Y48108D3*
Y46838D3*
Y45568D3*
X49378Y25248D3*
Y26518D3*
Y27788D3*
Y29058D3*
Y30328D3*
Y31598D3*
Y32868D3*
X43978D3*
Y31598D3*
Y30328D3*
Y29058D3*
Y27788D3*
Y26518D3*
Y25248D3*
X70968Y25883D3*
Y27153D3*
Y28423D3*
Y29693D3*
Y30963D3*
Y32233D3*
Y33503D3*
X65568D3*
Y32233D3*
Y30963D3*
Y29693D3*
Y28423D3*
Y27153D3*
Y25883D3*
D25*
X60808Y18898D3*
Y12898D3*
D26*
X65508Y15898D3*
D23*
X100813Y26518D3*
X102713D3*
X100813Y34138D3*
X102713D3*
X100813Y41758D3*
X102713D3*
X100813Y49378D3*
X102713D3*
X100813Y56998D3*
X102713D3*
X100813Y64618D3*
X102713D3*
X100813Y72238D3*
X102713D3*
X100813Y79858D3*
X102713D3*
X100813Y87478D3*
X102713D3*
X100813Y95098D3*
X102713D3*
X100813Y102718D3*
X102713D3*
X80493Y71603D3*
X82393D3*
X86208Y72238D3*
X88108D3*
X92558D3*
X94458D3*
D24*
X84938Y56998D3*
Y58898D3*
X93507Y57953D3*
Y59853D3*
X88748Y56998D3*
Y58898D3*
X83347Y45247D3*
Y43347D3*
X93193Y45568D3*
Y43668D3*
X90018Y45568D3*
Y43668D3*
D23*
X81128Y30328D3*
X83028D3*
X86208D3*
X88108D3*
X91288D3*
X93188D3*
D27*
X53188Y16993D3*
Y14193D3*
D23*
X100813Y18898D3*
X102713D3*
M02*
