G04 DipTrace 2.3.1.0*
%INLOGICCOMP.GTS*%
%MOMM*%
%ADD36R,2.903X1.803*%
%ADD38O,2.203X4.703*%
%ADD40O,4.703X2.203*%
%ADD42R,1.703X1.503*%
%ADD44R,1.503X1.703*%
%ADD46C,1.803*%
%ADD48R,1.803X1.803*%
%ADD50R,2.203X0.803*%
%ADD52R,1.473X1.473*%
%ADD54C,1.473*%
%ADD56C,1.703*%
%ADD58R,1.703X1.703*%
%FSLAX53Y53*%
G04*
G71*
G90*
G75*
G01*
%LNTopMask*%
%LPD*%
D58*
X53188Y105893D3*
D56*
Y103353D3*
Y100813D3*
Y98273D3*
Y95733D3*
Y93193D3*
Y90653D3*
Y88113D3*
Y85573D3*
Y83033D3*
Y80493D3*
Y77953D3*
X68428D3*
Y80493D3*
Y83033D3*
Y85573D3*
Y88113D3*
Y90653D3*
Y93193D3*
Y95733D3*
Y98273D3*
Y100813D3*
Y103353D3*
Y105893D3*
D54*
X13183Y15088D3*
D52*
X15723D3*
D54*
X13183Y22708D3*
D52*
X15723D3*
D54*
X13183Y30328D3*
D52*
X15723D3*
D54*
X13183Y37948D3*
D52*
X15723D3*
D54*
X13183Y45568D3*
D52*
X15723D3*
D54*
X13183Y53188D3*
D52*
X15723D3*
D54*
X13183Y60808D3*
D52*
X15723D3*
D54*
X13183Y68428D3*
D52*
X15723D3*
D54*
X13183Y76048D3*
D52*
X15723D3*
D54*
X13183Y83668D3*
D52*
X15723D3*
D54*
X13183Y91288D3*
D52*
X15723D3*
D54*
X13183Y98908D3*
D52*
X15723D3*
D54*
X105893Y15088D3*
D52*
X103353D3*
D54*
X105893Y22708D3*
D52*
X103353D3*
D54*
X105893Y30328D3*
D52*
X103353D3*
D54*
X105893Y37948D3*
D52*
X103353D3*
D54*
X105893Y45568D3*
D52*
X103353D3*
D54*
X105893Y53188D3*
D52*
X103353D3*
D54*
X105893Y60808D3*
D52*
X103353D3*
D54*
X105893Y68428D3*
D52*
X103353D3*
D54*
X105893Y76048D3*
D52*
X103353D3*
D54*
X105893Y83668D3*
D52*
X103353D3*
D54*
X105893Y91288D3*
D52*
X103353D3*
D54*
X105893Y98908D3*
D52*
X103353D3*
D50*
X33503Y32868D3*
Y34138D3*
Y35408D3*
Y36678D3*
Y37948D3*
Y39218D3*
Y40488D3*
X28103D3*
Y39218D3*
Y37948D3*
Y36678D3*
Y35408D3*
Y34138D3*
Y32868D3*
X33503Y62078D3*
Y63348D3*
Y64618D3*
Y65888D3*
Y67158D3*
Y68428D3*
Y69698D3*
X28103D3*
Y68428D3*
Y67158D3*
Y65888D3*
Y64618D3*
Y63348D3*
Y62078D3*
X90018Y61443D3*
Y62713D3*
Y63983D3*
Y65253D3*
Y66523D3*
Y67793D3*
Y69063D3*
X84618D3*
Y67793D3*
Y66523D3*
Y65253D3*
Y63983D3*
Y62713D3*
Y61443D3*
X90653Y33503D3*
Y34773D3*
Y36043D3*
Y37313D3*
Y38583D3*
Y39853D3*
Y41123D3*
X85253D3*
Y39853D3*
Y38583D3*
Y37313D3*
Y36043D3*
Y34773D3*
Y33503D3*
D48*
X20168Y15088D3*
D46*
X22708D3*
D48*
X20168Y22708D3*
D46*
X22708D3*
D48*
X20168Y30328D3*
D46*
X22708D3*
D48*
X20168Y37948D3*
D46*
X22708D3*
D48*
X20168Y45568D3*
D46*
X22708D3*
D48*
X20168Y53188D3*
D46*
X22708D3*
D48*
X20168Y60808D3*
D46*
X22708D3*
D48*
X20168Y68428D3*
D46*
X22708D3*
D48*
X20168Y76048D3*
D46*
X22708D3*
D48*
X20168Y83668D3*
D46*
X22708D3*
D48*
X20168Y91288D3*
D46*
X22708D3*
D48*
X20168Y98908D3*
D46*
X22708D3*
D48*
X98908D3*
D46*
X96368D3*
D48*
X98908Y91288D3*
D46*
X96368D3*
D48*
X98908Y83668D3*
D46*
X96368D3*
D48*
X98908Y76048D3*
D46*
X96368D3*
D48*
X98908Y68428D3*
D46*
X96368D3*
D48*
X98908Y60808D3*
D46*
X96368D3*
D48*
X98908Y53188D3*
D46*
X96368D3*
D58*
X76048Y100813D3*
D56*
Y98273D3*
Y95733D3*
Y93193D3*
Y90653D3*
Y88113D3*
Y85573D3*
Y83033D3*
Y80493D3*
Y77953D3*
X78588Y100813D3*
Y98273D3*
Y95733D3*
Y93193D3*
Y90653D3*
Y88113D3*
Y85573D3*
Y83033D3*
Y80493D3*
Y77953D3*
D58*
X43028Y100813D3*
D56*
Y98273D3*
Y95733D3*
Y93193D3*
Y90653D3*
Y88113D3*
Y85573D3*
Y83033D3*
Y80493D3*
Y77953D3*
X45568Y100813D3*
Y98273D3*
Y95733D3*
Y93193D3*
Y90653D3*
Y88113D3*
Y85573D3*
Y83033D3*
Y80493D3*
Y77953D3*
D58*
X76048Y103353D3*
D56*
X78588D3*
D58*
X76048Y105893D3*
D56*
X78588D3*
D58*
X43028Y103353D3*
D56*
X45568D3*
D58*
X43028Y105893D3*
D56*
X45568D3*
D58*
X35408Y90653D3*
D56*
Y88113D3*
Y85573D3*
Y83033D3*
Y80493D3*
Y77953D3*
D58*
Y105893D3*
D56*
Y103353D3*
Y100813D3*
Y98273D3*
Y95733D3*
Y93193D3*
D58*
X86208Y90653D3*
D56*
Y88113D3*
Y85573D3*
Y83033D3*
Y80493D3*
Y77953D3*
D58*
Y105893D3*
D56*
Y103353D3*
Y100813D3*
Y98273D3*
Y95733D3*
Y93193D3*
D48*
X98908Y45568D3*
D46*
X96368D3*
D48*
X98908Y37948D3*
D46*
X96368D3*
D48*
X98908Y30328D3*
D46*
X96368D3*
D48*
X98908Y22708D3*
D46*
X96368D3*
D48*
X98908Y15088D3*
D46*
X96368D3*
D44*
X16993Y18898D3*
X18893D3*
X16993Y26518D3*
X18893D3*
X16993Y34138D3*
X18893D3*
X16993Y41758D3*
X18893D3*
X16993Y49378D3*
X18893D3*
X16993Y56998D3*
X18893D3*
X16993Y64618D3*
X18893D3*
X16993Y72238D3*
X18893D3*
X16993Y79858D3*
X18893D3*
X16993Y87478D3*
X18893D3*
X16993Y95098D3*
X18893D3*
X16993Y102718D3*
X18893D3*
X24613Y72238D3*
X26513D3*
X31592Y58903D3*
X29692D3*
D42*
X34773Y56998D3*
Y58898D3*
X37313Y67793D3*
Y69693D3*
D44*
X25248Y58903D3*
X27148D3*
X29058Y72238D3*
X30958D3*
D42*
X25562Y41443D3*
Y43343D3*
D44*
X26838Y29372D3*
X28738D3*
D42*
X36992Y32547D3*
Y30647D3*
X33817Y30642D3*
Y28742D3*
D44*
X35722Y42707D3*
X33822D3*
X29058Y43028D3*
X30958D3*
D50*
X46838Y62713D3*
Y63983D3*
Y65253D3*
Y66523D3*
Y67793D3*
Y69063D3*
Y70333D3*
X41438D3*
Y69063D3*
Y67793D3*
Y66523D3*
Y65253D3*
Y63983D3*
Y62713D3*
X75413Y62078D3*
Y63348D3*
Y64618D3*
Y65888D3*
Y67158D3*
Y68428D3*
Y69698D3*
X70013D3*
Y68428D3*
Y67158D3*
Y65888D3*
Y64618D3*
Y63348D3*
Y62078D3*
X48743Y44298D3*
Y45568D3*
Y46838D3*
Y48108D3*
Y49378D3*
Y50648D3*
Y51918D3*
X43343D3*
Y50648D3*
Y49378D3*
Y48108D3*
Y46838D3*
Y45568D3*
Y44298D3*
X71603Y45568D3*
Y46838D3*
Y48108D3*
Y49378D3*
Y50648D3*
Y51918D3*
Y53188D3*
X66203D3*
Y51918D3*
Y50648D3*
Y49378D3*
Y48108D3*
Y46838D3*
Y45568D3*
X49378Y25248D3*
Y26518D3*
Y27788D3*
Y29058D3*
Y30328D3*
Y31598D3*
Y32868D3*
X43978D3*
Y31598D3*
Y30328D3*
Y29058D3*
Y27788D3*
Y26518D3*
Y25248D3*
X70968Y25883D3*
Y27153D3*
Y28423D3*
Y29693D3*
Y30963D3*
Y32233D3*
Y33503D3*
X65568D3*
Y32233D3*
Y30963D3*
Y29693D3*
Y28423D3*
Y27153D3*
Y25883D3*
D40*
X60808Y18898D3*
Y12898D3*
D38*
X65508Y15898D3*
D44*
X100813Y26518D3*
X102713D3*
X100813Y34138D3*
X102713D3*
X100813Y41758D3*
X102713D3*
X100813Y49378D3*
X102713D3*
X100813Y56998D3*
X102713D3*
X100813Y64618D3*
X102713D3*
X100813Y72238D3*
X102713D3*
X100813Y79858D3*
X102713D3*
X100813Y87478D3*
X102713D3*
X100813Y95098D3*
X102713D3*
X100813Y102718D3*
X102713D3*
X80493Y71603D3*
X82393D3*
X86208Y72238D3*
X88108D3*
X92558D3*
X94458D3*
D42*
X84938Y56998D3*
Y58898D3*
X93507Y57953D3*
Y59853D3*
X88748Y56998D3*
Y58898D3*
X83347Y45247D3*
Y43347D3*
X93193Y45568D3*
Y43668D3*
X90018Y45568D3*
Y43668D3*
D44*
X81128Y30328D3*
X83028D3*
X86208D3*
X88108D3*
X91288D3*
X93188D3*
D36*
X53188Y16993D3*
Y14193D3*
D44*
X100813Y18898D3*
X102713D3*
M02*
